<?xml version="1.0" standalone="no"?>
<!DOCTYPE svg PUBLIC "-//W3C//DTD SVG 20010904//EN"
 "http://www.w3.org/TR/2001/REC-SVG-20010904/DTD/svg10.dtd">
<svg version="1.0" xmlns="http://www.w3.org/2000/svg"
 width="6250.000000pt" height="5000.000000pt" viewBox="0 0 6250.000000 5000.000000"
 preserveAspectRatio="xMidYMid meet">

<g transform="translate(0.000000,5000.000000) scale(0.100000,-0.100000)"
fill="#1111111" stroke="none">
<path d="M28450 38324 c-891 -79 -1645 -343 -2380 -832 -196 -131 -395 -279
-545 -403 -143 -119 -442 -421 -570 -577 -646 -784 -1025 -1713 -1132 -2776
-21 -210 -23 -734 -4 -936 103 -1102 479 -2026 1152 -2835 248 -298 757 -747
1134 -1000 565 -379 1138 -606 1815 -719 301 -50 482 -62 890 -59 819 6 1634
210 2396 597 l184 93 571 -848 572 -847 114 -4 115 -3 30 -34 c28 -31 30 -39
25 -83 l-6 -48 34 0 c52 0 99 -46 99 -96 1 -22 -2 -48 -6 -59 -7 -18 -3 -20
37 -20 36 0 51 -6 73 -28 23 -24 27 -35 27 -87 l-1 -60 37 0 c46 0 76 -24 93
-74 24 -70 -6 -132 -83 -168 -28 -12 -49 -27 -47 -33 2 -5 130 -197 285 -427
264 -391 281 -419 281 -461 0 -24 7 -84 15 -133 71 -403 390 -847 875 -1214
47 -35 90 -71 97 -80 7 -8 371 -547 810 -1197 l798 -1181 90 -6 c49 -3 151 -8
225 -12 74 -3 153 -7 175 -9 80 -6 378 37 416 60 7 5 -331 515 -834 1259 -141
209 -256 381 -254 382 1 1 57 -13 124 -31 444 -122 790 -169 1253 -169 360 0
629 26 937 90 31 6 32 5 38 -32 33 -203 67 -321 245 -839 58 -169 140 -464
140 -503 0 -9 -18 -27 -42 -41 -54 -30 -122 -94 -150 -139 -21 -35 -22 -45
-20 -217 4 -241 -14 -348 -90 -533 -27 -66 -29 -76 -17 -104 18 -44 132 -162
201 -209 l56 -39 -10 -37 c-5 -21 -20 -74 -33 -118 -13 -44 -26 -105 -30 -135
-12 -114 27 -268 89 -340 l23 -29 -61 -205 c-33 -113 -63 -205 -66 -205 -3 0
-223 324 -490 721 -267 396 -490 722 -496 725 -6 2 -56 -14 -110 -36 -229 -91
-462 -155 -607 -166 -55 -5 -75 -10 -70 -18 14 -24 1456 -2162 1464 -2171 4
-5 22 2 39 14 17 12 33 20 35 18 2 -2 -1 -24 -6 -48 -6 -25 -31 -144 -55 -265
-408 -2015 -388 -4035 62 -6045 267 -1192 668 -2321 1268 -3570 68 -140 128
-269 133 -287 6 -17 54 -110 107 -206 l96 -175 82 -13 c128 -21 378 -17 520
10 156 28 327 85 467 156 137 68 251 141 251 161 0 7 -18 78 -39 156 -134 485
-222 846 -314 1283 -169 799 -287 1602 -337 2310 -6 83 -13 168 -15 190 -2 22
-7 114 -10 205 -4 91 -9 183 -11 205 -8 88 -4 972 6 1155 35 677 110 1260 236
1834 97 447 260 971 382 1226 l45 95 18 -150 c112 -895 224 -1528 388 -2191
493 -1982 1368 -3577 2732 -4978 269 -277 764 -736 931 -865 38 -29 246 65
407 185 214 160 525 527 723 852 l50 83 -39 47 c-496 592 -852 1131 -1178
1782 -433 864 -721 1779 -904 2865 -110 657 -163 1164 -251 2410 -48 685 -82
1083 -116 1385 -94 840 -244 1475 -468 1987 l-44 101 35 34 c141 134 215 343
198 558 -19 255 -108 493 -365 979 -187 356 -189 361 -245 706 l-48 290 17 80
c72 337 84 636 40 991 l-6 51 49 8 c26 4 107 22 178 40 1036 265 1806 961
2024 1831 55 221 66 315 66 584 -1 183 -5 274 -18 360 -49 319 -132 547 -276
762 -157 233 -366 410 -664 559 -328 165 -677 267 -1417 415 -459 91 -598 125
-748 180 -248 92 -455 216 -737 440 -205 163 -282 217 -377 265 -43 22 -78 43
-78 48 0 5 9 29 19 54 79 183 96 474 40 662 -46 154 -155 303 -273 374 -112
67 -177 85 -316 85 -111 1 -133 -2 -198 -26 -185 -67 -322 -193 -428 -392 -98
-184 -137 -343 -137 -552 l0 -131 -60 19 c-128 39 -299 41 -412 3 -285 -96
-494 -436 -600 -975 -27 -139 -59 -377 -70 -520 l-6 -85 86 90 c129 135 219
280 325 525 151 349 307 555 499 662 l48 27 6 -147 c6 -168 24 -270 74 -427
145 -455 484 -810 977 -1026 l111 -48 16 48 c26 76 48 113 97 164 178 183 471
62 489 -203 9 -127 -39 -262 -122 -346 -62 -62 -126 -87 -217 -83 l-62 3 -41
-100 c-91 -220 -189 -369 -338 -509 l-97 -92 11 -79 c6 -43 19 -128 29 -189
l18 -110 -76 -78 c-147 -151 -354 -287 -488 -322 -147 -38 -266 2 -329 110
-21 35 -31 78 -51 212 -13 92 -24 187 -24 209 0 48 -10 59 -65 69 -125 22
-346 114 -476 197 -88 56 -204 154 -274 231 -74 81 -72 89 -28 -88 67 -273
185 -562 324 -796 23 -38 40 -71 38 -73 -2 -2 -29 -11 -59 -21 -87 -28 -218
-98 -302 -162 -212 -160 -631 -372 -1016 -512 -233 -85 -477 -147 -672 -171
-419 -50 -1146 109 -1640 361 -158 80 -231 131 -430 299 -323 272 -418 331
-542 338 -94 6 -150 -16 -206 -79 -24 -27 -47 -49 -52 -49 -5 0 -125 172 -267
383 -249 370 -262 386 -393 518 -148 149 -251 227 -344 261 -42 16 -77 38
-113 73 -47 46 -53 56 -53 93 0 37 4 45 33 62 34 21 88 25 149 11 l37 -9 -61
92 c-34 50 -318 471 -631 935 -468 693 -567 845 -556 855 8 7 61 51 119 98
516 420 960 969 1251 1549 195 391 337 825 420 1289 79 444 98 615 106 945 23
990 -248 1925 -806 2775 -243 371 -592 771 -917 1049 -60 52 -127 110 -149
129 -70 61 -266 206 -395 292 -639 428 -1398 730 -2085 829 -336 49 -384 53
-745 56 -195 1 -375 1 -400 -1z m950 -828 c1566 -184 2798 -1115 3429 -2593
155 -365 280 -820 316 -1158 4 -33 8 -71 11 -85 8 -53 18 -271 19 -420 2 -844
-269 -1680 -777 -2398 -272 -384 -645 -765 -1018 -1039 -631 -463 -1335 -745
-2100 -840 -205 -25 -714 -25 -920 0 -683 85 -1309 324 -1925 736 -758 508
-1346 1289 -1652 2196 -86 255 -145 503 -182 765 -30 213 -30 216 -37 455 -27
897 223 1805 687 2498 180 268 328 446 565 677 316 308 639 537 1049 745 523
264 1087 421 1705 475 156 13 670 4 830 -14z"/>
<path d="M39064 28645 c-16 -40 0 -45 135 -45 142 0 161 4 161 30 0 26 -19 30
-161 30 -106 0 -131 -3 -135 -15z"/>
<path d="M39573 28604 c-3 -8 -2 -19 3 -24 13 -13 280 -120 299 -120 22 0 31
29 14 44 -18 17 -268 116 -292 116 -10 0 -20 -7 -24 -16z"/>
<path d="M39045 28395 c-29 -28 -31 -42 -9 -73 10 -15 25 -22 48 -22 59 0 87
59 46 100 -27 27 -56 25 -85 -5z"/>
<path d="M39582 28304 c-45 -31 -19 -104 37 -104 54 0 82 68 43 103 -23 21
-51 22 -80 1z"/>
<path d="M39293 28268 c-4 -7 -24 -47 -44 -88 -46 -96 -100 -167 -166 -219
-83 -65 -81 -110 4 -153 39 -19 64 -23 133 -23 78 0 85 2 85 20 0 17 -7 19
-75 20 -115 0 -194 47 -141 84 61 42 109 93 152 159 46 69 89 166 89 197 0 18
-26 20 -37 3z"/>
<path d="M41091 28020 c-43 -10 -69 -36 -54 -51 9 -9 23 -9 57 0 66 16 104 14
142 -10 39 -24 45 -49 11 -49 -66 0 -217 -150 -217 -215 0 -27 35 -16 55 18
34 58 105 126 151 143 25 9 47 14 50 11 3 -3 -1 -40 -10 -82 -29 -138 -17
-185 26 -102 16 31 23 65 25 127 4 74 1 91 -19 130 -13 24 -36 52 -53 61 -37
21 -118 30 -164 19z"/>
<path d="M39386 27696 c-39 -33 -95 -47 -150 -40 -44 6 -46 6 -46 -18 0 -29
20 -38 90 -38 79 0 189 65 174 104 -9 22 -34 20 -68 -8z"/>
<path d="M11467 25363 c-31 -35 -40 -108 -34 -267 7 -162 20 -259 68 -505 102
-521 350 -1366 544 -1856 96 -242 176 -411 364 -769 93 -177 179 -341 191
-366 l23 -44 -84 75 c-190 169 -418 341 -777 587 -893 612 -1717 1048 -1904
1007 -201 -45 294 -506 1187 -1104 824 -554 1567 -949 1743 -929 26 3 37 -1
47 -16 7 -12 57 -93 110 -181 54 -88 174 -274 266 -412 92 -139 166 -253 164
-253 -3 0 -26 15 -52 34 -320 227 -1464 724 -2233 970 -330 105 -559 156 -704
156 -99 0 -130 -13 -134 -58 -3 -28 5 -40 56 -91 240 -240 1319 -747 2310
-1085 456 -155 744 -224 893 -214 l70 5 67 -91 c102 -139 303 -405 429 -565
62 -80 111 -146 109 -148 -2 -2 -43 12 -92 30 -472 180 -1746 434 -2494 497
-179 15 -482 13 -552 -4 -114 -27 -136 -67 -73 -129 87 -85 324 -177 749 -293
853 -232 2211 -440 2571 -394 50 7 97 13 105 13 9 1 102 -101 216 -238 111
-132 267 -316 348 -409 81 -93 145 -170 143 -172 -1 -2 -30 5 -62 15 -373 116
-1734 219 -2515 191 -454 -16 -680 -50 -767 -116 -186 -141 453 -291 1547
-364 463 -30 1146 -40 1465 -20 206 13 375 36 445 61 30 11 60 21 66 22 6 1
107 -103 224 -232 118 -129 283 -308 368 -399 84 -90 152 -165 150 -167 -2 -2
-53 1 -113 7 -322 31 -1225 -31 -1950 -133 -875 -123 -1354 -283 -1195 -400
126 -93 763 -104 1590 -29 818 75 1629 217 1834 322 l41 21 103 -109 c176
-185 582 -657 582 -676 0 -3 -26 1 -57 8 -260 63 -1167 26 -2023 -82 -789 -99
-1319 -232 -1396 -348 -95 -146 465 -194 1406 -120 1043 81 2017 262 2155 401
20 19 4 37 157 -172 119 -163 316 -455 406 -604 62 -102 63 -103 35 -98 -122
27 -200 32 -503 31 -179 0 -404 -6 -500 -13 -1280 -86 -2314 -276 -2425 -445
-72 -109 217 -165 785 -152 1060 23 2553 248 2741 412 13 12 20 6 51 -49 166
-290 382 -758 504 -1094 l33 -92 -32 14 c-140 58 -535 93 -1152 102 -728 10
-1476 -32 -1910 -107 -505 -88 -567 -224 -139 -304 245 -46 604 -66 1173 -66
642 0 1166 28 1606 86 l120 16 -4 41 -3 40 31 -22 c16 -12 33 -26 36 -31 4 -6
15 -10 26 -10 38 0 194 42 244 66 27 13 53 20 57 16 9 -10 94 -301 139 -481
32 -127 45 -163 71 -196 18 -22 77 -98 132 -170 l98 -130 -7 45 c-33 217 -130
628 -208 880 -25 79 -44 147 -41 151 2 3 16 9 31 12 130 27 566 400 1098 938
768 777 1285 1435 1285 1634 0 135 -244 10 -629 -323 -651 -564 -1648 -1670
-1817 -2014 -16 -32 -31 -58 -35 -58 -3 0 -23 46 -44 103 -105 283 -316 738
-473 1020 -40 70 -72 130 -72 132 0 3 11 5 24 5 36 0 153 97 257 213 590 656
1535 2145 1669 2630 23 81 26 157 8 175 -21 21 -81 14 -123 -15 -219 -145
-638 -675 -1105 -1393 -417 -642 -723 -1207 -777 -1431 -9 -37 -20 -66 -24
-64 -3 3 -26 37 -49 77 -82 139 -287 444 -420 627 -74 101 -141 192 -149 202
-12 17 -8 23 38 65 161 145 513 674 843 1269 441 794 732 1456 754 1715 6 79
-8 113 -50 118 -170 20 -764 -874 -1306 -1963 -234 -470 -368 -792 -403 -962
l-13 -66 -121 144 c-156 187 -349 403 -491 551 l-114 117 40 48 c291 349 971
2150 1102 2919 25 141 30 303 12 347 -49 117 -199 -44 -387 -417 -349 -691
-828 -2071 -902 -2601 -9 -66 -18 -121 -19 -123 -5 -8 -478 504 -716 774 -19
21 -18 22 42 105 110 153 308 572 495 1050 360 915 612 1801 592 2081 -16 237
-172 109 -390 -320 -354 -695 -847 -2107 -909 -2605 -6 -53 -15 -96 -19 -95
-11 4 -373 428 -570 666 l-168 204 42 51 c159 196 477 913 745 1682 283 812
421 1418 357 1570 -17 43 -35 51 -72 32 -106 -57 -260 -309 -456 -752 -261
-589 -562 -1449 -692 -1975 -39 -160 -52 -225 -73 -364 l-7 -49 -151 194
c-166 214 -288 376 -413 547 l-82 113 31 25 c154 130 538 985 832 1854 230
682 349 1173 336 1387 -8 125 -54 146 -140 66 -199 -187 -571 -1021 -896
-2014 -148 -450 -237 -788 -271 -1023 l-16 -120 -116 170 c-138 201 -285 428
-399 616 l-83 137 36 40 c197 218 629 1745 767 2710 63 440 58 707 -15 735
-153 58 -472 -813 -739 -2021 -62 -279 -115 -560 -145 -768 -25 -166 -44 -387
-39 -427 8 -54 -20 -8 -117 186 -150 301 -200 473 -275 945 -74 466 -110 616
-280 1164 -171 554 -283 858 -415 1134 -105 219 -183 336 -247 369 -35 18 -42
18 -61 -3z"/>
<path d="M37873 21643 c-28 -5 -27 0 -3 -65 68 -184 73 -377 13 -526 -14 -35
-23 -65 -21 -66 16 -15 72 -35 110 -41 61 -9 76 6 112 116 53 158 46 368 -17
511 -22 50 -30 58 -64 67 -38 11 -87 12 -130 4z"/>
<path d="M36386 21465 c4 -8 16 -15 28 -16 11 0 30 -2 41 -4 11 -1 58 -6 105
-9 107 -7 87 6 -41 28 -122 20 -140 20 -133 1z"/>
<path d="M36562 21208 c3 -7 10 -13 16 -12 7 1 24 2 38 3 37 2 22 16 -21 19
-26 2 -36 -1 -33 -10z"/>
<path d="M36720 20971 c0 -19 22 -23 38 -7 15 15 14 16 -11 16 -15 0 -27 -4
-27 -9z"/>
<path d="M27073 18830 c-96 -102 -212 -384 -363 -880 -81 -268 -107 -382 -155
-674 -20 -121 -50 -262 -66 -315 -28 -87 -127 -302 -150 -325 -5 -6 -9 16 -9
60 0 232 -169 978 -325 1434 -54 158 -132 325 -169 359 -125 117 -92 -334 74
-1009 115 -467 260 -891 331 -966 19 -21 19 -21 -37 -115 -31 -52 -109 -173
-172 -269 l-116 -175 -9 55 c-17 108 -78 341 -138 527 -206 634 -460 1195
-572 1261 -27 16 -29 16 -43 -2 -26 -37 -13 -173 36 -366 135 -532 493 -1413
631 -1551 19 -19 20 -25 9 -43 -34 -57 -354 -475 -360 -471 -4 2 -10 30 -13
62 -24 220 -264 921 -463 1356 -106 230 -215 397 -260 397 -83 0 1 -414 193
-945 148 -410 335 -831 417 -938 34 -45 36 -50 23 -70 -15 -22 -313 -381 -375
-452 -18 -20 -35 -36 -36 -34 -2 2 -13 52 -25 111 -96 484 -482 1463 -650
1650 -111 124 -127 -10 -41 -347 122 -478 447 -1298 587 -1482 34 -44 34 -45
16 -66 -49 -58 -382 -424 -395 -435 -14 -11 -17 -6 -23 40 -39 293 -315 1087
-522 1503 -60 118 -145 249 -177 270 -84 55 -85 -88 -5 -397 130 -498 443
-1282 587 -1473 l38 -50 -140 -155 c-78 -86 -170 -193 -206 -237 -36 -45 -68
-82 -71 -82 -4 -1 -9 18 -13 42 -15 93 -166 429 -326 727 -239 444 -447 765
-580 897 -62 62 -88 73 -107 47 -18 -25 -16 -50 13 -150 106 -369 649 -1350
879 -1591 l62 -65 -94 -131 c-52 -72 -128 -185 -170 -251 -41 -67 -83 -132
-91 -146 l-16 -25 -8 45 c-11 62 -145 331 -268 535 -322 533 -703 1035 -841
1106 -31 16 -39 16 -55 4 -18 -13 -18 -15 -1 -82 54 -207 409 -803 747 -1251
186 -246 284 -353 375 -408 17 -9 16 -13 -10 -60 l-29 -49 80 75 c43 42 106
100 140 130 35 32 91 101 134 165 57 86 164 238 186 264 2 2 15 -6 30 -18 121
-95 924 -213 1544 -228 328 -7 475 9 504 56 39 62 -225 144 -659 205 -552 77
-1174 105 -1334 60 -15 -5 -22 -3 -20 4 7 19 215 265 306 360 l88 94 46 -21
c131 -59 582 -133 1079 -177 279 -25 721 -26 810 -1 76 21 100 39 84 65 -72
114 -960 254 -1630 256 l-272 1 31 35 c30 34 272 301 352 388 l41 44 46 -15
c75 -26 234 -37 529 -37 742 0 1467 99 1487 202 5 27 -67 57 -181 75 -141 23
-696 23 -997 -1 -337 -26 -618 -64 -760 -103 -22 -6 -20 -1 20 46 25 30 115
137 201 239 l156 186 129 -3 c387 -8 1416 193 1760 345 128 56 158 107 79 130
-90 27 -349 12 -692 -41 -407 -63 -938 -186 -1099 -255 -25 -11 -44 -16 -42
-12 1 5 82 113 178 240 170 227 175 232 205 226 72 -13 345 61 680 186 826
308 1431 660 1134 660 -116 0 -325 -58 -655 -181 -375 -139 -841 -351 -999
-453 -38 -24 -71 -43 -73 -41 -2 2 29 52 69 112 40 59 112 170 159 247 l86
138 41 4 c241 22 1417 786 1650 1072 45 56 55 98 26 109 -117 45 -1025 -491
-1485 -876 -60 -50 -108 -88 -108 -84 0 3 49 101 109 217 172 332 257 543 361
891 132 447 200 768 200 952 0 142 -21 172 -77 113z"/>
<path d="M21555 14260 c-186 -38 -598 -269 -1107 -622 l-187 -129 36 -97 c19
-53 52 -146 73 -207 21 -60 43 -123 49 -139 l11 -28 38 28 c469 350 959 777
1113 970 45 57 99 154 99 180 0 38 -57 58 -125 44z"/>
<path d="M22242 13001 c15 -102 27 -200 27 -217 1 -26 31 -59 209 -235 228
-225 357 -343 370 -337 5 1 37 36 71 76 l63 73 -58 71 c-150 186 -523 590
-643 696 l-67 60 28 -187z"/>
<path d="M19594 13002 c-238 -189 -410 -337 -546 -471 -71 -68 -128 -127 -128
-131 0 -6 134 -210 156 -239 7 -8 302 161 514 295 l86 54 13 137 c7 76 23 212
37 302 13 91 22 167 20 169 -2 2 -71 -50 -152 -116z"/>
<path d="M23870 12834 c-6 -49 -14 -97 -16 -106 -3 -10 -3 -18 0 -18 3 0 69
-11 148 -25 585 -102 1354 -141 1540 -79 56 18 68 36 43 64 -93 102 -850 227
-1496 247 l-206 6 -13 -89z"/>
<path d="M15766 12469 c-425 -27 -648 -102 -570 -191 30 -34 154 -86 281 -118
179 -45 544 -102 805 -125 l76 -7 -53 168 c-30 93 -61 195 -70 227 l-16 57
-162 -1 c-89 -1 -220 -6 -291 -10z"/>
<path d="M16326 12472 c5 -5 65 -46 134 -92 104 -69 363 -255 518 -372 l37
-28 305 -11 c274 -10 815 -8 826 4 4 4 -56 378 -63 386 -10 13 -500 63 -828
86 -465 31 -950 45 -929 27z"/>
<path d="M23750 12155 c0 -3 -12 -58 -26 -121 -14 -64 -24 -118 -21 -121 25
-24 912 -36 1146 -14 261 24 396 60 396 106 0 88 -525 155 -1222 155 -150 0
-273 -2 -273 -5z"/>
<path d="M22360 11664 c0 -43 4 -74 8 -68 34 40 62 86 57 94 -3 5 -19 19 -35
30 l-30 21 0 -77z"/>
<path d="M24275 11373 c-148 -3 -438 -20 -606 -35 l-126 -11 -40 -130 -41
-130 243 7 c134 4 258 11 277 15 18 5 110 64 203 132 94 68 182 132 195 141
14 9 23 16 20 15 -3 -1 -59 -2 -125 -4z"/>
<path d="M46521 9315 c-95 -160 -233 -337 -361 -466 -63 -64 -127 -125 -141
-136 -24 -17 -163 -203 -156 -209 1 -1 31 2 67 7 97 14 314 -13 413 -50 21 -8
27 -17 27 -40 0 -51 -21 -57 -113 -33 -126 32 -207 37 -336 18 -62 -10 -116
-14 -119 -11 -8 8 -42 -48 -103 -169 -31 -60 -45 -96 -36 -93 91 35 297 34
409 -2 72 -23 91 -42 77 -79 -12 -32 -32 -36 -90 -17 -114 38 -276 36 -404 -4
l-59 -18 -33 -99 c-18 -54 -33 -101 -33 -104 0 -4 33 2 73 12 92 24 254 21
305 -5 44 -24 62 -62 39 -84 -14 -15 -24 -15 -89 -3 -104 19 -184 16 -271 -10
-58 -17 -78 -28 -83 -44 -14 -43 -8 -259 9 -326 26 -97 85 -211 126 -237 47
-32 125 -31 172 0 30 20 308 357 1251 1516 l231 283 -26 54 c-55 113 -224 258
-402 347 -67 33 -255 107 -273 107 -5 0 -37 -47 -71 -105z"/>
<path d="M40860 7678 c-165 -27 -544 -30 -684 -4 -96 17 -170 17 -289 0 l-38
-6 45 -39 c89 -79 192 -229 230 -336 14 -39 13 -44 -4 -65 -15 -19 -22 -21
-45 -13 -20 7 -33 25 -50 68 -13 32 -45 89 -70 127 -54 81 -219 240 -249 240
-23 0 -257 -48 -263 -53 -2 -2 23 -25 54 -50 98 -78 185 -197 218 -298 20 -60
9 -89 -34 -89 -27 0 -33 8 -74 93 -53 107 -113 179 -202 242 -35 25 -65 51
-68 58 -4 13 -84 -9 -176 -49 l-53 -24 59 -43 c69 -51 133 -128 174 -209 41
-81 36 -118 -16 -118 -26 0 -42 18 -75 85 -31 62 -140 173 -202 205 l-47 24
-57 -39 c-132 -91 -237 -218 -284 -342 -35 -93 -7 -174 72 -214 l41 -21 1156
13 c816 8 1158 15 1163 23 23 33 49 127 58 205 17 155 -18 381 -90 569 -37 95
-20 90 -200 60z"/>
</g>
</svg>
