<svg width="24" height="24" viewBox="0 0 24 24" fill="none" xmlns="http://www.w3.org/2000/svg">
<path d="M20.2959 17.2959L15.7959 21.7959C15.5846 22.0073 15.2979 22.126 14.9991 22.126C14.7002 22.126 14.4135 22.0073 14.2022 21.7959C13.9908 21.5846 13.8721 21.2979 13.8721 20.9991C13.8721 20.7002 13.9908 20.4135 14.2022 20.2022L16.7812 17.625H6C5.70163 17.625 5.41548 17.5065 5.2045 17.2955C4.99353 17.0845 4.875 16.7984 4.875 16.5V3C4.875 2.70163 4.99353 2.41548 5.2045 2.2045C5.41548 1.99353 5.70163 1.875 6 1.875C6.29837 1.875 6.58452 1.99353 6.7955 2.2045C7.00647 2.41548 7.125 2.70163 7.125 3V15.375H16.7812L14.2013 12.7959C14.0966 12.6913 14.0136 12.5671 13.957 12.4303C13.9003 12.2936 13.8712 12.1471 13.8712 11.9991C13.8712 11.8511 13.9003 11.7045 13.957 11.5678C14.0136 11.4311 14.0966 11.3068 14.2013 11.2022C14.3059 11.0975 14.4301 11.0145 14.5669 10.9579C14.7036 10.9013 14.8501 10.8721 14.9981 10.8721C15.1461 10.8721 15.2927 10.9013 15.4294 10.9579C15.5661 11.0145 15.6904 11.0975 15.795 11.2022L20.295 15.7022C20.3999 15.8066 20.4832 15.9308 20.5401 16.0675C20.597 16.2042 20.6263 16.3508 20.6264 16.4989C20.6264 16.6469 20.5973 16.7936 20.5406 16.9303C20.4839 17.0671 20.4008 17.1914 20.2959 17.2959Z" fill="#181F25"/>
</svg>
