<svg width="1523" height="1496" viewBox="0 0 1523 1496" fill="none" xmlns="http://www.w3.org/2000/svg">
<path d="M255.648 849.44C600.618 670.15 749.558 1088.34 790.458 697.7C804.268 565.82 887.898 399.49 1063.54 304.7" stroke="white" stroke-width="5" stroke-miterlimit="10"/>
<path d="M1002.59 441.78C1002.59 441.78 979.368 355.03 1063.54 304.83C979.368 355.03 914.068 293.38 914.068 293.38" stroke="white" stroke-width="5" stroke-miterlimit="10"/>
<path d="M225.359 878.31C808.409 820.53 887.969 1216.6 887.969 1216.6" stroke="white" stroke-width="5" stroke-miterlimit="10"/>
<path d="M216.43 815.4C407.14 656.95 422.61 380.52 422.61 380.52" stroke="white" stroke-width="5" stroke-miterlimit="10"/>
<path d="M245.578 959.1C783.738 750.08 571.858 419.75 812.448 139.35" stroke="white" stroke-width="5" stroke-miterlimit="10"/>
<path d="M1175.71 1022.72C806.379 968.32 361.669 1247.01 543.409 1273.78C725.149 1300.55 901.229 982.29 185.559 876.87" stroke="white" stroke-width="5" stroke-miterlimit="10"/>
<path d="M225.209 744.48C410.879 782.61 699.609 803.08 1063.54 704.52" stroke="white" stroke-width="5" stroke-miterlimit="10"/>
<path d="M1453.89 459.31L1071.16 564.618L1136.76 803.026L1519.49 697.718L1453.89 459.31Z" fill="white" stroke="#171F25" stroke-width="5" stroke-miterlimit="10"/>
<path d="M1071.33 564.6L1306.44 670.95L1454.05 459.29" stroke="#171F25" stroke-width="5" stroke-miterlimit="10"/>
<path d="M1338.18 625.44L1519.65 697.7" stroke="#171F25" stroke-width="5" stroke-miterlimit="10"/>
<path d="M1136.93 803L1255.89 648.08" stroke="#171F25" stroke-width="5" stroke-miterlimit="10"/>
<path d="M364.494 113.773L354.047 347.769L499.811 354.276L510.258 120.28L364.494 113.773Z" fill="white" stroke="#171F25" stroke-width="5" stroke-miterlimit="10"/>
<path d="M353.889 347.8L456.329 235.14L364.339 113.8" stroke="#171F25" stroke-width="5" stroke-miterlimit="10"/>
<path d="M436.549 209.05L510.109 120.31" stroke="#171F25" stroke-width="5" stroke-miterlimit="10"/>
<path d="M499.659 354.31L434.309 259.37" stroke="#171F25" stroke-width="5" stroke-miterlimit="10"/>
<path d="M1028.6 1453.3L965.312 1227.78L824.83 1267.2L888.119 1492.72L1028.6 1453.3Z" fill="white" stroke="#171F25" stroke-width="5" stroke-miterlimit="10"/>
<path d="M965.149 1227.86L903.109 1366.92L1028.45 1453.38" stroke="#171F25" stroke-width="5" stroke-miterlimit="10"/>
<path d="M930.059 1385.51L887.969 1492.81" stroke="#171F25" stroke-width="5" stroke-miterlimit="10"/>
<path d="M824.67 1267.29L916.45 1337.02" stroke="#171F25" stroke-width="5" stroke-miterlimit="10"/>
<path d="M275.375 1065.34C350.465 1047.79 388.74 936.88 360.865 817.614C332.99 698.348 249.52 615.891 174.43 633.441C99.3406 650.992 61.0661 761.903 88.9413 881.169C116.817 1000.43 200.286 1082.89 275.375 1065.34Z" fill="white"/>
<mask id="mask0_29_16" style="mask-type:luminance" maskUnits="userSpaceOnUse" x="79" y="631" width="291" height="437">
<path d="M275.376 1065.34C350.465 1047.79 388.74 936.879 360.865 817.614C332.99 698.348 249.52 615.891 174.43 633.441C99.3406 650.992 61.0661 761.903 88.9413 881.169C116.817 1000.43 200.286 1082.89 275.376 1065.34Z" fill="white"/>
</mask>
<g mask="url(#mask0_29_16)">
<path d="M-8.29102 670.95C-8.29102 670.95 404.229 883.08 1063.55 704.52" stroke="#171F25" stroke-width="5" stroke-miterlimit="10"/>
</g>
<mask id="mask1_29_16" style="mask-type:luminance" maskUnits="userSpaceOnUse" x="79" y="631" width="291" height="437">
<path d="M275.376 1065.34C350.465 1047.79 388.74 936.879 360.865 817.614C332.99 698.348 249.52 615.891 174.43 633.441C99.3406 650.992 61.0661 761.903 88.9413 881.169C116.817 1000.43 200.286 1082.89 275.376 1065.34Z" fill="white"/>
</mask>
<g mask="url(#mask1_29_16)">
<path d="M29.8594 908.01C398.079 818.95 422.609 380.52 422.609 380.52" stroke="#171F25" stroke-width="5" stroke-miterlimit="10"/>
</g>
<mask id="mask2_29_16" style="mask-type:luminance" maskUnits="userSpaceOnUse" x="79" y="631" width="291" height="437">
<path d="M275.376 1065.34C350.465 1047.79 388.74 936.879 360.865 817.614C332.99 698.348 249.52 615.891 174.43 633.441C99.3406 650.992 61.0661 761.903 88.9413 881.169C116.817 1000.43 200.286 1082.89 275.376 1065.34Z" fill="white"/>
</mask>
<g mask="url(#mask2_29_16)">
<path d="M55.8398 1006.22C545.12 498.82 742.389 1156.77 790.459 697.7C804.269 565.82 887.9 399.49 1063.54 304.7" stroke="#171F25" stroke-width="5" stroke-miterlimit="10"/>
</g>
<mask id="mask3_29_16" style="mask-type:luminance" maskUnits="userSpaceOnUse" x="79" y="631" width="291" height="437">
<path d="M275.376 1065.34C350.465 1047.79 388.74 936.879 360.865 817.614C332.99 698.348 249.52 615.891 174.43 633.441C99.3406 650.992 61.0661 761.903 88.9413 881.169C116.817 1000.43 200.286 1082.89 275.376 1065.34Z" fill="white"/>
</mask>
<g mask="url(#mask3_29_16)">
<path d="M1175.71 1022.72C806.379 968.32 361.669 1247.01 543.409 1273.78C725.149 1300.55 901.689 979.12 185.559 876.87C-17.7209 847.85 -221.001 918.68 -221.001 918.68" stroke="#171F25" stroke-width="5" stroke-miterlimit="10"/>
</g>
<mask id="mask4_29_16" style="mask-type:luminance" maskUnits="userSpaceOnUse" x="79" y="631" width="291" height="437">
<path d="M275.376 1065.34C350.465 1047.79 388.74 936.879 360.865 817.614C332.99 698.348 249.52 615.891 174.43 633.441C99.3406 650.992 61.0661 761.903 88.9413 881.169C116.817 1000.43 200.286 1082.89 275.376 1065.34Z" fill="white"/>
</mask>
<g mask="url(#mask4_29_16)">
<path d="M40.5488 1023.1C835.489 822.93 545.549 450.42 812.449 139.36" stroke="#171F25" stroke-width="5" stroke-miterlimit="10"/>
</g>
<mask id="mask5_29_16" style="mask-type:luminance" maskUnits="userSpaceOnUse" x="79" y="631" width="291" height="437">
<path d="M275.376 1065.34C350.465 1047.79 388.74 936.879 360.865 817.614C332.99 698.348 249.52 615.891 174.43 633.441C99.3406 650.992 61.0661 761.903 88.9413 881.169C116.817 1000.43 200.286 1082.89 275.376 1065.34Z" fill="white"/>
</mask>
<g mask="url(#mask5_29_16)">
<path d="M6.82031 916.75C789.32 725.55 887.97 1216.6 887.97 1216.6" stroke="#171F25" stroke-width="5" stroke-miterlimit="10"/>
</g>
<path d="M364.389 1040.6L385.219 1072.16L422.599 1077.85L391.049 1098.69L385.349 1136.07L364.509 1104.53L327.139 1098.82L358.689 1077.98L364.389 1040.6Z" fill="white"/>
<path d="M940.359 863.64L961.189 895.19L998.569 900.89L967.019 921.72L961.319 959.1L940.479 927.56L903.109 921.85L934.659 901.02L940.359 863.64Z" fill="white"/>
<path d="M527.219 432.49L548.059 464.05L585.439 469.74L553.889 490.57L548.189 527.96L527.349 496.42L489.969 490.71L521.529 469.87L527.219 432.49Z" fill="white"/>
<path d="M951.328 492.35L972.158 523.91L1009.55 529.6L977.988 550.44L972.298 587.82L951.448 556.28L914.078 550.57L945.638 529.73L951.328 492.35Z" fill="white"/>
<path d="M37.6094 575.48L58.4492 607.04L95.8291 612.73L64.2793 633.57L58.5791 670.95L37.7393 639.41L0.359375 633.7L31.9194 612.86L37.6094 575.48Z" fill="white"/>
<path d="M1342.38 1047.5C1350.57 1053.63 1347.83 1066.54 1337.86 1068.81L1259.75 1086.62L1156.34 1110.19L1200.35 1028.51L1193.29 936L1278.23 999.52L1342.38 1047.5Z" stroke="white" stroke-width="5" stroke-miterlimit="10"/>
<path d="M909.208 4.32984C918.378 -0.210163 928.659 8.05984 926.189 17.9898L906.799 95.7198L881.129 198.63L828.119 122.48L742.389 86.9998L837.419 39.8998L909.208 4.32984Z" stroke="white" stroke-width="5" stroke-miterlimit="10"/>
</svg>
