<svg width="1401" height="138" viewBox="0 0 1401 138" fill="none" xmlns="http://www.w3.org/2000/svg">
<path d="M1343.24 137.8C1334.57 137.8 1326.77 136.934 1319.84 135.2C1313.04 133.6 1307.17 131.134 1302.24 127.8C1297.44 124.334 1293.64 120.067 1290.84 115C1288.17 109.8 1286.64 103.867 1286.24 97.2002L1311.44 89.0002C1311.71 95.0002 1313.17 100 1315.84 104C1318.64 108 1322.57 110.934 1327.64 112.8C1332.71 114.667 1338.37 115.6 1344.64 115.6C1350.64 115.6 1355.71 114.867 1359.84 113.4C1363.97 111.934 1367.11 110 1369.24 107.6C1371.37 105.067 1372.44 102.334 1372.44 99.4002C1372.44 95.9335 1371.11 93.1335 1368.44 91.0002C1365.77 88.8669 1362.11 87.0669 1357.44 85.6002C1352.91 84.1335 1347.71 82.7335 1341.84 81.4002C1335.31 79.9335 1328.84 78.2669 1322.44 76.4002C1316.17 74.5335 1310.44 72.1335 1305.24 69.2002C1300.17 66.2669 1296.11 62.4669 1293.04 57.8002C1290.11 53.1335 1288.64 47.2669 1288.64 40.2002C1288.64 32.0669 1290.64 25.0669 1294.64 19.2002C1298.77 13.2002 1304.77 8.53353 1312.64 5.20019C1320.51 1.86686 1329.97 0.200195 1341.04 0.200195C1352.24 0.200195 1361.77 1.86686 1369.64 5.20019C1377.64 8.4002 1383.84 13.0002 1388.24 19.0002C1392.64 24.8669 1395.04 31.8669 1395.44 40.0002L1369.44 47.2002C1369.44 43.0669 1368.77 39.4669 1367.44 36.4002C1366.11 33.3335 1364.24 30.8002 1361.84 28.8002C1359.44 26.6669 1356.44 25.0669 1352.84 24.0002C1349.37 22.9335 1345.37 22.4002 1340.84 22.4002C1335.64 22.4002 1331.11 23.0669 1327.24 24.4002C1323.51 25.7335 1320.64 27.5335 1318.64 29.8002C1316.77 32.0669 1315.84 34.7335 1315.84 37.8002C1315.84 41.4002 1317.31 44.4002 1320.24 46.8002C1323.31 49.0669 1327.31 50.9335 1332.24 52.4002C1337.31 53.8669 1342.84 55.2669 1348.84 56.6002C1354.57 57.8002 1360.37 59.3335 1366.24 61.2002C1372.24 62.9335 1377.77 65.2669 1382.84 68.2002C1388.04 71.0002 1392.17 74.8669 1395.24 79.8002C1398.44 84.6002 1400.04 90.6669 1400.04 98.0002C1400.04 106 1397.91 113 1393.64 119C1389.37 125 1382.97 129.667 1374.44 133C1366.04 136.2 1355.64 137.8 1343.24 137.8Z" fill="#0E1C36"/>
<path d="M1222.76 137.8C1212.49 137.8 1203.29 136.4 1195.16 133.6C1187.16 130.667 1180.29 126.4 1174.56 120.8C1168.96 115.067 1164.69 108 1161.76 99.6002C1158.82 91.2002 1157.36 81.4669 1157.36 70.4002C1157.36 59.2002 1158.82 49.2669 1161.76 40.6002C1164.82 31.9335 1169.16 24.6002 1174.76 18.6002C1180.49 12.4669 1187.22 7.86686 1194.96 4.8002C1202.69 1.73353 1211.29 0.200195 1220.76 0.200195C1228.09 0.200195 1234.89 1.2002 1241.16 3.20019C1247.42 5.06686 1252.82 7.80019 1257.36 11.4002C1261.89 15.0002 1265.42 19.4002 1267.96 24.6002C1270.62 29.8002 1272.02 35.6669 1272.16 42.2002L1245.56 49.2002C1245.56 43.6002 1244.29 38.9335 1241.76 35.2002C1239.36 31.4669 1236.16 28.6669 1232.16 26.8002C1228.29 24.8002 1224.16 23.8002 1219.76 23.8002C1215.89 23.8002 1212.02 24.6002 1208.16 26.2002C1204.42 27.6669 1200.96 30.2002 1197.76 33.8002C1194.69 37.2669 1192.16 41.8669 1190.16 47.6002C1188.29 53.3335 1187.36 60.3335 1187.36 68.6002C1187.36 79.4002 1188.89 88.1335 1191.96 94.8002C1195.16 101.467 1199.49 106.4 1204.96 109.6C1210.42 112.667 1216.56 114.2 1223.36 114.2C1230.69 114.2 1236.36 112.734 1240.36 109.8C1244.49 106.734 1247.42 102.867 1249.16 98.2002C1251.02 93.4002 1252.02 88.3335 1252.16 83.0002L1277.36 87.2002C1277.22 94.2669 1276.16 100.934 1274.16 107.2C1272.16 113.334 1269.02 118.734 1264.76 123.4C1260.49 127.934 1254.89 131.467 1247.96 134C1241.02 136.534 1232.62 137.8 1222.76 137.8Z" fill="#0E1C36"/>
<path d="M1111.56 135V3H1140.96V135H1111.56Z" fill="#0E1C36"/>
<path d="M983.818 135V3H1037.42C1044.62 3 1051.15 3.6 1057.02 4.8C1062.89 5.86667 1068.09 7.46667 1072.62 9.6C1077.15 11.7333 1080.95 14.4 1084.02 17.6C1087.22 20.6667 1089.62 24.2667 1091.22 28.4C1092.82 32.4 1093.62 36.8667 1093.62 41.8C1093.62 46.4667 1092.89 50.7333 1091.42 54.6C1089.95 58.3333 1087.75 61.6 1084.82 64.4C1081.89 67.2 1078.22 69.5333 1073.82 71.4C1069.42 73.1333 1064.29 74.3333 1058.42 75V78C1065.22 78.6667 1070.62 80.2667 1074.62 82.8C1078.75 85.2 1081.95 88.4667 1084.22 92.6C1086.62 96.7333 1088.69 101.867 1090.42 108L1098.42 135H1066.62L1060.42 110C1059.22 104.667 1057.49 100.533 1055.22 97.6C1052.95 94.5333 1050.09 92.4 1046.62 91.2C1043.15 89.8667 1038.95 89.2 1034.02 89.2H1012.62V135H983.818ZM1012.62 67.6H1035.42C1044.49 67.6 1051.49 65.8667 1056.42 62.4C1061.35 58.9333 1063.82 53.5333 1063.82 46.2C1063.82 39 1061.49 33.7333 1056.82 30.4C1052.29 26.9333 1045.42 25.2 1036.22 25.2H1012.62V67.6Z" fill="#0E1C36"/>
<path d="M905.561 135V3H934.361V135H905.561ZM866.561 27.2V3H973.361V27.2H866.561Z" fill="#0E1C36"/>
<path d="M759.389 135V3H788.389V135H759.389ZM779.389 135V111.6H861.189V135H779.389ZM779.389 79V57.6H851.189V79H779.389ZM779.389 26.2V3H860.789V26.2H779.389Z" fill="#0E1C36"/>
<path d="M579.498 135V3H622.898L659.698 102.4H660.698L696.698 3H738.098V135H710.698L712.498 32.2H710.298L670.298 135H646.298L606.898 32.2H604.698L606.498 135H579.498Z" fill="#0E1C36"/>
<path d="M423.165 135V111.6H461.565C469.032 111.6 475.232 110 480.165 106.8C485.099 103.467 488.832 98.6667 491.365 92.4C493.899 86.1333 495.165 78.4667 495.165 69.4C495.165 61.9333 494.365 55.5333 492.765 50.2C491.165 44.7333 488.765 40.2667 485.565 36.8C482.499 33.3333 478.565 30.7333 473.765 29C469.099 27.2667 463.565 26.4 457.165 26.4H423.165V3H456.165C472.165 3 485.232 5.6 495.365 10.8C505.499 16 512.965 23.4667 517.765 33.2C522.565 42.8 524.965 54.3333 524.965 67.8C524.965 77.9333 523.765 86.7333 521.365 94.2C518.965 101.667 515.699 108 511.565 113.2C507.565 118.4 502.899 122.6 497.565 125.8C492.232 129 486.565 131.333 480.565 132.8C474.565 134.267 468.499 135 462.365 135H423.165ZM409.365 135V3H438.165V135H409.365Z" fill="#0E1C36"/>
<path d="M358.771 135V3H388.171V135H358.771Z" fill="#0E1C36"/>
<path d="M265.209 135V3H294.009V135H265.209ZM271.209 135V110.8H349.809V135H271.209Z" fill="#0E1C36"/>
<path d="M186.074 137.8C176.474 137.8 167.874 136.334 160.274 133.4C152.674 130.334 146.141 125.934 140.674 120.2C135.341 114.334 131.208 107.2 128.274 98.8002C125.474 90.2669 124.074 80.5335 124.074 69.6002C124.074 54.0002 126.808 41.1335 132.274 31.0002C137.741 20.7335 145.208 13.0669 154.674 8.00019C164.274 2.80019 175.074 0.200195 187.074 0.200195C196.408 0.200195 204.874 1.73353 212.474 4.8002C220.074 7.73353 226.541 12.1335 231.874 18.0002C237.341 23.7335 241.541 30.9335 244.474 39.6002C247.408 48.1335 248.874 57.9335 248.874 69.0002C248.874 80.3335 247.408 90.2669 244.474 98.8002C241.541 107.334 237.274 114.534 231.674 120.4C226.208 126.134 219.608 130.467 211.874 133.4C204.141 136.334 195.541 137.8 186.074 137.8ZM186.874 114.8C193.941 114.8 199.874 113.067 204.674 109.6C209.474 106.134 213.141 101.134 215.674 94.6002C218.208 88.0669 219.474 80.0669 219.474 70.6002C219.474 60.7335 218.141 52.3335 215.474 45.4002C212.941 38.4669 209.208 33.2002 204.274 29.6002C199.341 25.8669 193.341 24.0002 186.274 24.0002C179.341 24.0002 173.408 25.8002 168.474 29.4002C163.674 32.8669 159.941 37.9335 157.274 44.6002C154.741 51.2669 153.474 59.5335 153.474 69.4002C153.474 76.6002 154.208 83.0669 155.674 88.8002C157.274 94.4002 159.474 99.1335 162.274 103C165.074 106.867 168.541 109.8 172.674 111.8C176.808 113.8 181.541 114.8 186.874 114.8Z" fill="#0E1C36"/>
<path d="M57.5996 137.8C48.9329 137.8 41.1329 136.934 34.1996 135.2C27.3996 133.6 21.5329 131.134 16.5996 127.8C11.7996 124.334 7.99961 120.067 5.19961 115C2.53294 109.8 0.99961 103.867 0.599609 97.2002L25.7996 89.0002C26.0663 95.0002 27.5329 100 30.1996 104C32.9996 108 36.9329 110.934 41.9996 112.8C47.0663 114.667 52.7329 115.6 58.9996 115.6C64.9996 115.6 70.0663 114.867 74.1996 113.4C78.333 111.934 81.4663 110 83.5996 107.6C85.733 105.067 86.7996 102.334 86.7996 99.4002C86.7996 95.9335 85.4663 93.1335 82.7996 91.0002C80.1329 88.8669 76.4663 87.0669 71.7996 85.6002C67.2663 84.1335 62.0663 82.7335 56.1996 81.4002C49.6663 79.9335 43.1996 78.2669 36.7996 76.4002C30.5329 74.5335 24.7996 72.1335 19.5996 69.2002C14.5329 66.2669 10.4663 62.4669 7.39961 57.8002C4.46628 53.1335 2.99961 47.2669 2.99961 40.2002C2.99961 32.0669 4.99961 25.0669 8.99961 19.2002C13.1329 13.2002 19.1329 8.53353 26.9996 5.20019C34.8663 1.86686 44.3329 0.200195 55.3996 0.200195C66.5996 0.200195 76.1329 1.86686 83.9996 5.20019C91.9996 8.4002 98.1996 13.0002 102.6 19.0002C107 24.8669 109.4 31.8669 109.8 40.0002L83.7996 47.2002C83.7996 43.0669 83.1329 39.4669 81.7996 36.4002C80.4663 33.3335 78.5996 30.8002 76.1996 28.8002C73.7996 26.6669 70.7996 25.0669 67.1996 24.0002C63.7329 22.9335 59.733 22.4002 55.1996 22.4002C49.9996 22.4002 45.4663 23.0669 41.5996 24.4002C37.8663 25.7335 34.9996 27.5335 32.9996 29.8002C31.1329 32.0669 30.1996 34.7335 30.1996 37.8002C30.1996 41.4002 31.6663 44.4002 34.5996 46.8002C37.6663 49.0669 41.6663 50.9335 46.5996 52.4002C51.6663 53.8669 57.1996 55.2669 63.1996 56.6002C68.933 57.8002 74.733 59.3335 80.5996 61.2002C86.5996 62.9335 92.133 65.2669 97.1996 68.2002C102.4 71.0002 106.533 74.8669 109.6 79.8002C112.8 84.6002 114.4 90.6669 114.4 98.0002C114.4 106 112.266 113 108 119C103.733 125 97.3329 129.667 88.7996 133C80.3996 136.2 69.9996 137.8 57.5996 137.8Z" fill="#0E1C36"/>
</svg>
