<svg width="183" height="92" viewBox="0 0 183 92" fill="none" xmlns="http://www.w3.org/2000/svg">
<g clip-path="url(#clip0_69_82)">
<path d="M124.534 56.1466C127.038 56.1466 129.068 54.1166 129.068 51.6124C129.068 49.1082 127.038 47.0781 124.534 47.0781C122.03 47.0781 120 49.1082 120 51.6124C120 54.1166 122.03 56.1466 124.534 56.1466Z" fill="white"/>
<path d="M58.5325 25.9414H64.5327V64.6359H58.5325V25.9414ZM86.3857 52.7037C86.3857 58.7039 81.4764 59.1812 79.9764 59.1812C76.2263 59.1812 75.6808 55.6697 75.6808 53.556V38.5896H69.6465V53.5219C69.6124 57.2379 70.6693 60.3062 72.7148 62.3517C74.5725 64.0077 76.9392 64.9811 79.4245 65.1112C81.9097 65.2414 84.3652 64.5206 86.3857 63.0677V64.6359H92.42V38.5896H86.3857V52.7037ZM105.443 29.8279H99.4089V38.5896H95.2155V44.2829H99.4089V64.6359H105.443V44.2829H110.387V38.5896H105.443V29.8279ZM129.921 57.2379C128.558 58.4652 126.751 59.1471 124.773 59.1471C123.769 59.1755 122.769 58.9981 121.836 58.6257C120.902 58.2532 120.055 57.6937 119.346 56.9815C118.637 56.2693 118.081 55.4195 117.713 54.4845C117.345 53.5495 117.172 52.5489 117.205 51.5446C117.205 47.1467 120.307 44.0784 124.773 44.0784C126.717 44.0784 128.558 44.7261 129.955 45.9535L130.91 46.7717L135.137 42.5442L134.081 41.5897C131.52 39.3063 128.204 38.0549 124.773 38.0782C116.932 38.0782 111.239 43.7375 111.239 51.5105C111.197 53.3024 111.518 55.0843 112.183 56.749C112.847 58.4137 113.842 59.9268 115.106 61.1975C116.37 62.4681 117.878 63.47 119.54 64.1429C121.201 64.8158 122.981 65.1459 124.773 65.1132C128.353 65.1132 131.694 63.8518 134.149 61.5676L135.171 60.613L130.876 56.3856L129.921 57.2379ZM157.775 40.8737C155.917 39.2177 153.55 38.2444 151.065 38.1142C148.58 37.9841 146.124 38.7049 144.104 40.1578V25.9414H138.069V64.6359H144.104V50.5559C144.104 44.5557 149.013 44.0784 150.513 44.0784C154.263 44.0784 154.808 47.5899 154.808 49.7036V64.67H160.843V49.7036C161.025 46.4708 159.922 43.297 157.775 40.8737ZM49.6344 55.3629C48.4605 56.5688 47.0553 57.5256 45.5029 58.1758C43.9506 58.826 42.283 59.1564 40.6 59.1471C33.6112 59.1471 28.5315 53.6583 28.5315 46.1239C28.5315 38.5555 33.6112 33.0666 40.6 33.0666C43.9752 33.0666 47.1798 34.3962 49.6004 36.8168L50.5549 37.7714L54.7483 33.578L53.8278 32.6235C52.0979 30.8641 50.0333 29.469 47.7556 28.5204C45.4779 27.5719 43.0333 27.0891 40.566 27.1005C30.3042 27.1005 22.5312 35.2826 22.5312 46.158C22.5312 56.9652 30.3042 65.1473 40.566 65.1473C45.6457 65.1473 50.3504 63.1699 53.8278 59.5903L54.7483 58.6357L50.589 54.3742L49.6344 55.3629Z" fill="white"/>
</g>
<defs>
<clipPath id="clip0_69_82">
<rect width="138.312" height="39.2059" fill="white" transform="translate(22.5312 25.9414)"/>
</clipPath>
</defs>
</svg>
