<svg width="1468" height="670" viewBox="0 0 1468 670" fill="none" xmlns="http://www.w3.org/2000/svg">
<g clip-path="url(#clip0_1_644)">
<path d="M772.39 280.1C772.25 279.97 772.08 279.84 771.91 279.71C765.59 317.33 734.07 340.5 734.07 340.5C706.42 309.04 680.39 290.73 668.37 280.64C663.836 276.842 660.674 271.66 659.37 265.89L639.47 274C639.47 274 702.42 306.66 711.01 435.5L748.3 436.07C752.78 436.14 756.08 440.84 755.06 445.67L723.92 612.08C722.938 616.048 720.776 619.625 717.72 622.34C717.72 649.34 717.44 667.09 717.44 667.09L763.99 666.58C763.99 666.58 751.69 402.33 772.18 356.49C792.67 310.65 782.61 289.69 772.39 280.1Z" fill="#8226f7"/>
<path d="M989.46 278.36L891.27 259.12H827.63C827.74 239.67 823.97 214.84 798.26 199.73" stroke="#0E1C36" stroke-width="6" stroke-linecap="round" stroke-linejoin="round"/>
<path d="M1236.78 343.46C1245.42 330.918 1249.8 315.931 1249.26 300.712C1248.73 285.492 1243.32 270.847 1233.83 258.937C1224.34 247.028 1211.27 238.485 1196.56 234.571C1181.84 230.657 1166.25 231.579 1152.1 237.2L1082.27 262.32" stroke="#0E1C36" stroke-width="6" stroke-linecap="round" stroke-linejoin="round"/>
<path d="M366.56 259.5L265.51 252.5C260.72 251.5 246.15 251.1 246.15 251.1C207.62 253.52 177.09 286.65 177.09 327.18C177.018 339.555 179.932 351.765 185.587 362.773C191.241 373.781 199.469 383.261 209.57 390.41" stroke="#0E1C36" stroke-width="6" stroke-linecap="round" stroke-linejoin="round"/>
<path d="M628.71 202.15C582 218.9 579.8 247.59 593.8 275.32L504.39 269.09" stroke="#0E1C36" stroke-width="6" stroke-linecap="round" stroke-linejoin="round"/>
<path d="M658.67 221.87V259.09C658.553 263.18 659.363 267.243 661.04 270.975C662.716 274.707 665.215 278.011 668.35 280.64C680.35 290.73 706.41 309.04 734.06 340.5C734.06 340.5 761.3 320.5 770.21 287.45" stroke="#0E1C36" stroke-width="6" stroke-linecap="round" stroke-linejoin="round"/>
<path d="M824.66 255.19V258.62C824.66 265.51 824.09 271.72 823.88 276.62C822.42 310.62 809.21 329.19 802.71 342.76C842.46 335.45 883.56 292.5 891.65 259.15C883.47 251.6 839.19 247.31 824.66 255.19Z" fill="#0E1C36"/>
<path d="M656.94 350.18C645.26 344.81 609.36 312.07 594.47 269.37C581.6 262.37 545.39 265.37 534.95 271.37C575.83 355.75 657 350.3 656.94 350.18Z" fill="#0E1C36"/>
<path d="M673.71 344.84C673.71 344.84 686.79 398.22 691.07 435.18" stroke="#0E1C36" stroke-width="8" stroke-linecap="round" stroke-linejoin="round"/>
<path d="M790.33 342.09C790.33 342.09 774.33 416.81 778.44 451.31" stroke="#0E1C36" stroke-width="8" stroke-linecap="round" stroke-linejoin="round"/>
<path d="M649.71 172.9C644.16 173.39 623.38 176.71 627.79 198.73C631.28 216.2 647.23 214.67 656.79 212.03" stroke="#0E1C36" stroke-width="6" stroke-linecap="round" stroke-linejoin="round"/>
<path d="M796 131.73C800 162.41 798 195.38 794.84 219.5" stroke="#0E1C36" stroke-width="6" stroke-linecap="round" stroke-linejoin="round"/>
<path d="M666 178.18C670.64 182.88 683.09 210 686.13 222.65C686.13 222.65 716.97 212.02 761.13 211.37C761.13 211.37 785.21 211.87 794.81 214.79C794.81 214.79 792.73 259.56 773.21 282.79C753.69 306.02 712.4 299.49 693.04 285.55C673.68 271.61 670.48 264.96 666.04 250.05C661.6 235.14 649.71 179.53 649.71 179.53L666 178.18Z" stroke="#0E1C36" stroke-width="6" stroke-linecap="round" stroke-linejoin="round"/>
<path d="M649.71 187.82C649.71 187.82 640.21 167.14 635.07 145.73C630.24 125.59 639.6 104.49 658.24 95.4699C673.84 87.9199 685.41 93.8399 685.41 93.8399C685.41 93.8399 668.85 65.6599 693.69 40.7599C698.039 36.4071 703.229 32.987 708.945 30.7088C714.66 28.4305 720.78 27.3421 726.93 27.5099C735.412 27.5912 743.686 30.1456 750.738 34.8598C757.79 39.5739 763.313 46.2432 766.63 54.0499C766.63 54.0499 799.11 -5.61009 865.63 29.6999C872.35 33.2599 879.91 43.1899 883.53 49.8699C905.53 90.3799 833.06 138.38 795.33 142.17C753.91 146.34 729.66 139.48 716.33 129.34C726.29 135.31 711.32 197.36 649.71 187.82Z" fill="#0E1C36"/>
<path d="M734.07 242.37C734.07 242.37 735.95 254.2 746.83 252.28" stroke="#0E1C36" stroke-width="6" stroke-linecap="round" stroke-linejoin="round"/>
<path d="M764.52 194.13L768.99 233.15L755.24 229.63" stroke="#0E1C36" stroke-width="6" stroke-linecap="round" stroke-linejoin="round"/>
<path d="M778.44 198.26C780.65 198.26 782.44 195.493 782.44 192.08C782.44 188.667 780.65 185.9 778.44 185.9C776.231 185.9 774.44 188.667 774.44 192.08C774.44 195.493 776.231 198.26 778.44 198.26Z" fill="#0E1C36"/>
<path d="M739.96 197.59C742.169 197.59 743.96 194.823 743.96 191.41C743.96 187.997 742.169 185.23 739.96 185.23C737.751 185.23 735.96 187.997 735.96 191.41C735.96 194.823 737.751 197.59 739.96 197.59Z" fill="#0E1C36"/>
<path d="M723.11 165.53C725.124 162.944 727.796 160.946 730.847 159.746C733.897 158.546 737.214 158.189 740.45 158.71" stroke="#0E1C36" stroke-width="6" stroke-linecap="round" stroke-linejoin="round"/>
<path d="M777.15 158.06C777.15 158.06 788.23 155.18 791 164.24" stroke="#0E1C36" stroke-width="6" stroke-linecap="round" stroke-linejoin="round"/>
<path d="M1353 332.21L1355.31 329.32C1355.31 329.32 1362.17 296.12 1367 284.52C1371.83 272.92 1389.33 263.67 1383.78 280.46C1378.23 297.25 1380.15 304.27 1380.15 304.27C1380.15 304.27 1405.15 277.68 1415.62 257.57C1426.34 236.99 1433.35 257.3 1433.35 257.3C1433.35 257.3 1447.11 251.56 1446.12 260.99C1446.12 260.99 1459.25 260.82 1452.82 272.2C1452.82 272.2 1467.58 265.47 1464.52 278.48C1465.71 293.72 1438.79 339.83 1413.07 352.54L1404.19 364.88" stroke="#0E1C36" stroke-width="6" stroke-linecap="round" stroke-linejoin="round"/>
<path d="M1402.9 299.05C1402.9 299.05 1429.01 273.44 1433.34 257.3" stroke="#0E1C36" stroke-width="6" stroke-linecap="round" stroke-linejoin="round"/>
<path d="M1413.09 307.16C1415.54 303.74 1437.31 284.84 1443.99 260.77" stroke="#0E1C36" stroke-width="6" stroke-linecap="round" stroke-linejoin="round"/>
<path d="M1423.45 315.729C1428.64 308.729 1444.39 300.579 1453.35 272.979" stroke="#0E1C36" stroke-width="6" stroke-linecap="round" stroke-linejoin="round"/>
<path d="M1220.82 326.24L1285.31 402.12L1345.31 327.32L1417.06 373.09L1314.06 514.35C1304.77 523.821 1292.23 529.418 1278.97 530.014C1265.72 530.609 1252.73 526.159 1242.62 517.56L1200.62 477.99L1216 666.47H954.78L955.51 633.47" stroke="#8226f7" stroke-width="6" stroke-linecap="round" stroke-linejoin="round"/>
<path d="M1091.14 285C1102.46 283.93 1113.65 283 1124.5 282.33" stroke="#8226f7" stroke-width="6" stroke-linecap="round" stroke-linejoin="round"/>
<path d="M836 487.74L896.6 361C905.6 338 918.75 314.37 942.73 308.46C960.34 304.13 981.23 299.98 1003.67 296.28" stroke="#8226f7" stroke-width="6" stroke-linecap="round" stroke-linejoin="round"/>
<path d="M1001.71 282.67L1006.79 317.99C1032.7 390.55 1097.54 301.34 1092.54 288.57L1076.1 246.57" stroke="#0E1C36" stroke-width="6" stroke-linecap="round" stroke-linejoin="round"/>
<path d="M1085.69 173.86C1085.69 173.86 1089.69 100.78 1015.69 95.65C1008.8 95.17 961.57 92.85 956.95 132.28C953.87 158.62 955.6 186.71 958.47 208.36C958.47 208.48 963.27 249.36 981.71 270.45C1000.15 291.54 1035.71 285.86 1053.59 272.76C1071.47 259.66 1074.3 253.49 1078.28 239.68C1082.26 225.87 1085.67 174.01 1085.67 174.01L1085.69 173.86Z" stroke="#0E1C36" stroke-width="6" stroke-linecap="round" stroke-linejoin="round"/>
<path d="M986.77 189.42L983.14 225.45L995.77 222.03" stroke="#0E1C36" stroke-width="6" stroke-linecap="round" stroke-linejoin="round"/>
<path d="M980.184 182.872C980.247 179.724 978.646 177.139 976.608 177.099C974.571 177.058 972.867 179.577 972.804 182.725C972.741 185.873 974.343 188.458 976.38 188.499C978.418 188.539 980.121 186.02 980.184 182.872Z" fill="#0E1C36"/>
<path d="M1012.37 189.969C1014.38 189.628 1015.58 186.835 1015.05 183.732C1014.52 180.628 1012.47 178.389 1010.46 178.73C1008.45 179.071 1007.25 181.864 1007.77 184.968C1008.3 188.071 1010.36 190.311 1012.37 189.969Z" fill="#0E1C36"/>
<path d="M1023.36 161.05C1021.34 158.802 1018.75 157.137 1015.87 156.23C1012.99 155.322 1009.91 155.205 1006.97 155.89" stroke="#0E1C36" stroke-width="6" stroke-linecap="round" stroke-linejoin="round"/>
<path d="M974.67 156.32C974.67 156.32 961.48 151.91 956.67 160.09" stroke="#0E1C36" stroke-width="6" stroke-linecap="round" stroke-linejoin="round"/>
<path d="M1023.22 125.93C1023.22 125.93 1005.35 225.1 1070.48 228.6C1070.48 228.6 1108.48 231.48 1115.71 217.42C1115.71 217.42 1087.2 205.75 1089.07 189.96C1089.07 189.96 1122.84 220.29 1146.93 193.68C1146.93 193.68 1101.99 190.74 1101.93 150.56C1101.89 121.74 1030.76 101.81 1023.22 125.93Z" fill="#0E1C36"/>
<path d="M1141.79 127.79L1102.16 125.79C1095.49 99.88 1076.4 63.79 1021.85 62.88C936.62 61.52 942.3 143.76 942.3 143.76L1140.5 153.35C1142.2 153.477 1143.91 153.263 1145.53 152.719C1147.15 152.175 1148.64 151.313 1149.92 150.184C1151.2 149.055 1152.24 147.681 1152.98 146.143C1153.73 144.606 1154.15 142.936 1154.24 141.231C1154.32 139.526 1154.07 137.821 1153.49 136.217C1152.9 134.612 1152.01 133.141 1150.85 131.888C1149.69 130.636 1148.29 129.628 1146.73 128.924C1145.18 128.22 1143.5 127.835 1141.79 127.79Z" fill="#8226f7"/>
<path d="M1022.5 227.9C1022.5 227.9 1018.42 240.9 1000.5 239.9" stroke="#0E1C36" stroke-width="6" stroke-linecap="round" stroke-linejoin="round"/>
<path d="M958.46 208.36C955.59 186.71 953.86 158.62 956.94 132.28C957.13 130.68 957.4 129.16 957.72 127.7C941.72 122.9 935.17 148.18 945.35 187.79C950.35 207.04 940.89 224.49 940.89 224.49C949.77 225.76 956.01 223.61 960.41 219.89C959 213 958.46 208.4 958.46 208.36Z" fill="#0E1C36"/>
<path d="M928.55 524.07L950.77 464.53" stroke="#8226f7" stroke-width="6" stroke-linecap="round" stroke-linejoin="round"/>
<path d="M1285.31 402.12C1285.31 402.12 1256.11 419.04 1260.53 443.39" stroke="#8226f7" stroke-width="6" stroke-linecap="round" stroke-linejoin="round"/>
<path d="M1281.19 401.2C1281.19 401.2 1252.39 392.3 1242.19 423.78" stroke="#8226f7" stroke-width="6" stroke-linecap="round" stroke-linejoin="round"/>
<path d="M802.39 563.59L758.72 503.94C757.611 502.421 756.943 500.625 756.792 498.75C756.64 496.876 757.011 494.996 757.862 493.319C758.713 491.642 760.011 490.233 761.613 489.248C763.216 488.263 765.059 487.741 766.94 487.74H896.79C898.39 487.741 899.967 488.119 901.393 488.843C902.82 489.568 904.055 490.618 905 491.91L995.27 615.2C996.379 616.718 997.046 618.515 997.198 620.389C997.349 622.264 996.979 624.144 996.128 625.821C995.277 627.498 993.979 628.907 992.376 629.891C990.774 630.876 988.93 631.398 987.05 631.4H857.21C855.608 631.4 854.03 631.022 852.601 630.297C851.173 629.573 849.936 628.522 848.99 627.23L847.99 625.85" stroke="#0E1C36" stroke-width="6" stroke-linecap="round" stroke-linejoin="round"/>
<path d="M872.8 563.48C877.8 561.67 893.47 551.98 897.97 553.72C907.29 557.32 893.58 566.72 883.7 575.32" stroke="#0E1C36" stroke-width="6" stroke-linecap="round" stroke-linejoin="round"/>
<path d="M899.06 588.21C902.7 587.77 906.12 588.82 908.06 593.11C910.3 598.11 891.06 613.45 872.85 618.91C855.45 624.13 798.85 643.54 798.69 590.39C798.69 581.67 800.69 570.05 806.92 550.07C814.92 524.73 828.92 535.45 827.77 544.63C826.62 553.81 827.31 571.28 827.31 571.28C827.31 571.28 855.82 548.41 873 548C894.11 547.43 877.42 562.94 843.38 583.63" stroke="#0E1C36" stroke-width="6" stroke-linecap="round" stroke-linejoin="round"/>
<path d="M859.12 593.11C859.12 593.11 873.83 583.88 883.7 575.32L886.35 572.74C886.35 572.74 901.35 561.95 909.35 567.74C917.35 573.53 899.05 588.96 878.21 601.2" stroke="#0E1C36" stroke-width="6" stroke-linecap="round" stroke-linejoin="round"/>
<path d="M299.16 293.93C300.88 293.05 302.62 292.18 304.4 291.31C316.01 285.67 338.81 285.37 365.49 287.96" stroke="#0E1C36" stroke-width="6" stroke-linecap="round" stroke-linejoin="round"/>
<path d="M294.52 483.38L296.52 448.49L213.13 372C213.13 372 220.85 356.29 240.25 336.67" stroke="#0E1C36" stroke-width="6" stroke-linecap="round" stroke-linejoin="round"/>
<path d="M284.15 665.38L285.37 643.88" stroke="#0E1C36" stroke-width="6" stroke-linecap="round" stroke-linejoin="round"/>
<path d="M522.43 627C523.28 649.68 523.82 666.48 523.82 666.48" stroke="#0E1C36" stroke-width="6" stroke-linecap="round" stroke-linejoin="round"/>
<path d="M483.74 310.11C500.63 314.5 513.74 318.53 519.97 321.16C544.13 331.35 575.09 416.51 580.66 432.32" stroke="#0E1C36" stroke-width="6" stroke-linecap="round" stroke-linejoin="round"/>
<path d="M512.32 367.92C512.32 367.92 534.56 394.17 536.44 432.83" stroke="#0E1C36" stroke-width="6" stroke-linecap="round" stroke-linejoin="round"/>
<path d="M348.37 413.66L308.54 458.92L293.97 446.16" stroke="#0E1C36" stroke-width="6" stroke-linecap="round" stroke-linejoin="round"/>
<path d="M314.71 621.56C314.71 621.56 297.49 640.88 272.27 647.56C257.27 651.56 237.34 656.23 233.73 652.93C229.1 648.71 237.73 643.01 244.73 639.29" stroke="#0E1C36" stroke-width="6" stroke-linecap="round" stroke-linejoin="round"/>
<path d="M230 625.53C224.2 628.31 222.17 632.53 226.45 636.16C229.57 638.84 276.07 641.93 288.96 637.47C298.96 634.02 301.64 630.79 317.53 617.56" stroke="#0E1C36" stroke-width="6" stroke-linecap="round" stroke-linejoin="round"/>
<path d="M315.06 620.68C321.06 613.4 324.83 606.93 326.8 601.22C326.8 601.22 330.7 589.51 329.19 583.91C321.85 556.74 312.28 503.91 277.79 457.66L290.09 442.6L219.14 377.48C210.35 390.48 201.98 402.82 194.92 413.15C189.082 421.696 186.186 431.912 186.672 442.25C187.157 452.589 190.997 462.488 197.61 470.45L279.18 568.7L274 585C266.27 588.64 246.6 598.76 246.6 598.76C225.3 606.34 236.82 612.66 246.78 612.08C256.74 611.5 271.9 604.44 273.93 602.85C273.93 602.85 252.56 613.72 239.53 611.75C231.07 611.95 225.53 620.32 225.91 622.93C226.29 625.54 235.71 625.26 249.28 626.15C262.85 627.04 276.09 619.22 276.09 619.22" stroke="#0E1C36" stroke-width="6" stroke-linecap="round" stroke-linejoin="round"/>
<path d="M560.85 627.71C505 626.71 454.94 625.71 451.27 625.71C418.69 625.21 424.27 593.19 424.27 593.19L463.05 594.24L496.23 438.24C496.5 436.633 497.321 435.171 498.553 434.105C499.786 433.038 501.351 432.436 502.98 432.4L748.3 436.13C752.78 436.2 756.08 440.9 755.06 445.73L723.92 612.08C721.75 622.37 708.75 630.37 699.46 630.21C687.56 630.02 670.95 629.73 651.91 629.39" stroke="#8226f7" stroke-width="6" stroke-linecap="round" stroke-linejoin="round"/>
<path d="M671.44 595.29C676.98 593.76 682.67 593.69 684.77 598.64C688.08 606.42 669.77 617.18 659.13 622.64" stroke="#0E1C36" stroke-width="6" stroke-linecap="round" stroke-linejoin="round"/>
<path d="M562 626.11C614.6 650.61 644.59 647.31 661.09 616.46C673.4 593.46 688.44 557.52 678.32 556.23C667.69 557.64 655.67 594.23 655.67 594.23C655.67 594.23 676.33 550.17 665.32 551.49C656.79 552.68 649.66 564.49 640.82 591.61C640.82 591.61 654.2 561.73 653.96 556.25C653.27 540.71 640.12 532.05 626.24 590.44L633.67 561.51C635.97 548.26 623.4 554.46 616.58 568.03C609.29 582.54 596.28 605.57 591.58 619.53L562 626.11Z" stroke="#0E1C36" stroke-width="6" stroke-linecap="round" stroke-linejoin="round"/>
<path d="M409.15 83.3362L425.413 78.3857L416.7 49.7624L400.437 54.7129L409.15 83.3362Z" fill="#8226f7"/>
<path d="M399.92 59.86C416.45 59.86 429.85 46.4599 429.85 29.93C429.85 13.4001 416.45 0 399.92 0C383.39 0 369.99 13.4001 369.99 29.93C369.99 46.4599 383.39 59.86 399.92 59.86Z" fill="#0E1C36"/>
<path d="M498.18 75.55C473.84 62.84 439.26 61.14 412.92 66.55C328.23 85.08 303.52 195.9 290.6 230.24C288.53 235.73 292.47 242.14 298.42 242.96L403.42 271.37L413.93 229.44C413.93 229.44 412.54 223.88 411.09 218.02L409.53 218.16C409.53 218.16 374.8 218.31 377.71 186.42C379.53 166.51 395.89 165.83 407.92 168.12C408.12 166.06 408.25 164.82 408.25 164.85C452.57 169.4 507.02 148.12 522.71 125.67C536.15 136.45 541.65 152.44 539.26 192.67C571.45 170.28 571.81 118.22 498.18 75.55Z" fill="#0E1C36"/>
<path d="M474.5 279.85L471.5 306.24L483.71 310.37C485.43 313.79 501.71 363.14 447.37 360.28C411.96 358.41 370.17 313.14 365.53 287.96L377.58 287.71C392.85 286.44 399.58 281.54 404.09 266.88L414.82 231.65" stroke="#0E1C36" stroke-width="6" stroke-linecap="round" stroke-linejoin="round"/>
<path d="M539.28 192.64C541.67 152.43 536.18 137.97 522.75 127.2C507.3 149.29 458.75 170.7 409.36 164.99C407.64 170.37 409.06 165.56 408.11 171.59C407.53 177.89 406.97 185.03 406.73 191.08C407.36 214.14 413.93 229.44 413.93 229.44C422.93 253.09 440.46 272.51 466.54 278.62C512.06 289.27 533.54 226.05 536.62 211.78C538.14 204.7 539.31 192.6 539.31 192.6L539.28 192.64Z" stroke="#0E1C36" stroke-width="6" stroke-linecap="round" stroke-linejoin="round"/>
<path d="M495.07 223.05L508.38 224.93L506.66 171.15" stroke="#0E1C36" stroke-width="6" stroke-linecap="round" stroke-linejoin="round"/>
<path d="M468.11 166.86C468.11 166.86 477.95 157.29 486.22 164.56" stroke="#0E1C36" stroke-width="6" stroke-linecap="round" stroke-linejoin="round"/>
<path d="M485.86 245.74C485.86 245.74 472.24 247.4 470.05 236.6" stroke="#0E1C36" stroke-width="6" stroke-linecap="round" stroke-linejoin="round"/>
<path d="M522.5 172.88C522.5 172.88 535.09 167.41 540.26 177.13" stroke="#0E1C36" stroke-width="6" stroke-linecap="round" stroke-linejoin="round"/>
<path d="M482.583 191.536C483.244 187.783 481.813 184.394 479.387 183.967C476.961 183.541 474.459 186.237 473.798 189.99C473.138 193.743 474.569 197.132 476.995 197.559C479.421 197.985 481.923 195.289 482.583 191.536Z" fill="#0E1C36"/>
<path d="M529.31 199.479C529.97 195.726 528.539 192.338 526.113 191.911C523.687 191.484 521.185 194.18 520.525 197.933C519.864 201.686 521.296 205.075 523.722 205.502C526.148 205.929 528.65 203.232 529.31 199.479Z" fill="#0E1C36"/>
<path d="M499.311 183.341C502.813 162.946 493.108 144.26 477.635 141.603C462.162 138.945 446.779 153.324 443.277 173.719C439.775 194.113 449.48 212.799 464.953 215.457C480.426 218.114 495.809 203.735 499.311 183.341Z" stroke="#8226f7" stroke-width="6.02694" stroke-linecap="round" stroke-linejoin="round"/>
<path d="M571.665 200.594C575.15 180.291 565.487 161.688 550.083 159.044C534.679 156.4 519.366 170.716 515.881 191.019C512.396 211.322 522.058 229.925 537.462 232.569C552.867 235.213 568.18 220.898 571.665 200.594Z" stroke="#8226f7" stroke-width="6" stroke-linecap="round" stroke-linejoin="round"/>
<path d="M515.78 185.47L498.18 183.05" stroke="#8226f7" stroke-width="6" stroke-linecap="round" stroke-linejoin="round"/>
<path d="M443.44 169.24L405.16 167.98" stroke="#8226f7" stroke-width="6" stroke-linecap="round" stroke-linejoin="round"/>
<path d="M313.38 321.63C313.38 321.63 331.18 347.12 336.78 355.25C345.47 367.85 343.42 382.25 329.92 378.07" stroke="#0E1C36" stroke-width="6" stroke-linecap="round" stroke-linejoin="round"/>
<path d="M300.08 340.24C300.08 340.24 332.08 377.46 334.38 388.17C336.53 398.22 325.01 404.67 314.49 391.63" stroke="#0E1C36" stroke-width="6" stroke-linecap="round" stroke-linejoin="round"/>
<path d="M287.4 350.21C287.4 350.21 317.75 386.09 314.14 398.21C310.09 411.8 290.8 384.33 283.88 376.41" stroke="#0E1C36" stroke-width="6" stroke-linecap="round" stroke-linejoin="round"/>
<path d="M313.38 321.63L329.73 329.55C330.183 329.765 330.647 329.955 331.12 330.12C341.3 333.46 345.12 329.99 346.47 325.95C347.111 323.868 347.142 321.647 346.559 319.548C345.976 317.45 344.803 315.562 343.18 314.11C323.98 296.32 275.43 291.11 275.43 291.11C263.58 289.74 232.58 302.72 238.23 328.8C243.88 354.88 262.23 388.14 279.58 397.8C296.93 407.46 301.01 396.07 283.88 376.43C283.66 376.17 271.2 360.49 271.2 360.49" stroke="#0E1C36" stroke-width="6" stroke-linecap="round" stroke-linejoin="round"/>
<path d="M1156.8 287C1156.8 287 1140.64 313.56 1135.56 322C1127.36 335.64 1130.88 350.46 1145.48 343.65" stroke="#0E1C36" stroke-width="6" stroke-linecap="round" stroke-linejoin="round"/>
<path d="M1171.25 304.7C1171.25 304.7 1141.63 343.85 1140.02 354.7C1138.41 365.55 1152.02 371.31 1162.02 353.9" stroke="#0E1C36" stroke-width="6" stroke-linecap="round" stroke-linejoin="round"/>
<path d="M1184.53 313.85C1184.53 313.85 1156.53 351.56 1160.85 363.41C1165.74 376.72 1183.28 348.09 1189.68 339.75" stroke="#0E1C36" stroke-width="6" stroke-linecap="round" stroke-linejoin="round"/>
<path d="M1156.8 287L1141 295.89C1140.56 296.131 1140.11 296.348 1139.65 296.54C1129.65 300.54 1125.65 297.3 1124.07 293.35C1123.3 291.316 1123.14 289.105 1123.59 286.979C1124.04 284.853 1125.09 282.899 1126.61 281.35C1144.66 262.35 1192.78 254.12 1192.78 254.12C1204.52 252.01 1236.27 263.02 1232.27 289.4C1228.27 315.78 1212.05 350.14 1195.33 360.84C1178.61 371.54 1173.84 360.46 1189.7 339.78C1189.91 339.51 1201.36 323.08 1201.36 323.08" stroke="#0E1C36" stroke-width="6" stroke-linecap="round" stroke-linejoin="round"/>
<path d="M3 666.47H1397.89" stroke="#0E1C36" stroke-width="6" stroke-linecap="round" stroke-linejoin="round"/>
</g>
<defs>
<clipPath id="clip0_1_644">
<rect width="1467.93" height="669.47" fill="white"/>
</clipPath>
</defs>
</svg>
