<svg width="1698" height="841" viewBox="0 0 1698 841" fill="none" xmlns="http://www.w3.org/2000/svg">
<g clip-path="url(#clip0_1_3216)">
<path d="M1034.54 532H1008.54C1006.64 532.008 1004.75 531.64 1002.99 530.918C1001.23 530.195 999.623 529.133 998.273 527.79C996.922 526.448 995.85 524.853 995.116 523.096C994.383 521.338 994.004 519.454 994 517.55V485.68L953.74 495.53L964.55 537.91C975.94 693.12 771.5 710.11 763.75 542L637.06 573V572.94L554.34 590.94L609.41 810.82L724.26 783.1C740.1 813.7 751.7 834.94 751.7 834.94H1106L1034.54 532Z" fill="#0E1C36"/>
<path d="M221.35 207.7C197.68 200.76 170.15 196.53 138.15 196.06C138.15 196.06 125.99 240.34 140.85 295.68" stroke="#8226f7" stroke-width="6" stroke-linecap="round" stroke-linejoin="round"/>
<path d="M221.769 302.7C215.686 271.24 215.479 238.925 221.159 207.39" stroke="#8226f7" stroke-width="6" stroke-linecap="round" stroke-linejoin="round"/>
<path d="M221.16 207.389C230.83 153.089 258.64 92.1494 316.48 26.8994C316.48 26.8994 378.27 59.4294 424.27 128.599" stroke="#8226f7" stroke-width="6" stroke-linecap="round" stroke-linejoin="round"/>
<path d="M478.57 387.14C478.57 387.14 529.18 203.42 705 257.08C705 257.08 700.5 306.4 675.62 355.67" stroke="#8226f7" stroke-width="6" stroke-linecap="round" stroke-linejoin="round"/>
<path d="M353.71 253.619C374.23 183.399 424.56 105.619 534.52 39.4189C534.52 39.4189 575.69 77.529 599.52 145.849" stroke="#8226f7" stroke-width="6" stroke-linecap="round" stroke-linejoin="round"/>
<path d="M539.8 287.449C533.18 251.899 514.62 210.939 476.64 165.109C476.64 165.109 219.39 281.829 348.38 439.339" stroke="#8226f7" stroke-width="6" stroke-linecap="round" stroke-linejoin="round"/>
<path d="M406.09 439.469C380.82 401.689 289.76 284.349 140.96 297.469" stroke="#8226f7" stroke-width="6" stroke-linecap="round" stroke-linejoin="round"/>
<path d="M141 297.439C119.887 299.371 99.046 303.582 78.8398 309.999C78.8398 309.999 115.74 395.229 200.74 447.469" stroke="#8226f7" stroke-width="6" stroke-linecap="round" stroke-linejoin="round"/>
<path d="M593.93 589.25L609.43 521.16H635.2C637.101 521.161 638.983 520.788 640.74 520.061C642.497 519.334 644.093 518.269 645.438 516.925C646.783 515.581 647.849 513.986 648.577 512.229C649.305 510.473 649.68 508.591 649.68 506.69V453.83C649.68 449.989 648.154 446.306 645.439 443.591C642.723 440.875 639.04 439.35 635.2 439.35H581.89" stroke="#0E1C36" stroke-width="6" stroke-linecap="round" stroke-linejoin="round"/>
<path d="M443.67 439.35H213.46C209.623 439.355 205.945 440.883 203.234 443.598C200.523 446.313 199 449.993 199 453.83V506.69C199 510.527 200.525 514.208 203.238 516.921C205.952 519.635 209.632 521.16 213.47 521.16H237.54L309.41 837" stroke="#0E1C36" stroke-width="6" stroke-linecap="round" stroke-linejoin="round"/>
<path d="M510.689 836.53C651.619 788.91 899.059 739.81 899.059 739.81L636.879 575.75C636.879 575.75 578.479 589 518.799 607.32" stroke="#0E1C36" stroke-width="6" stroke-linecap="round" stroke-linejoin="round"/>
<path d="M363.65 837C295.23 825.26 314.75 633.5 429.77 464.06C481.32 380.3 496.15 357.54 535.77 344.51C551.27 339.42 567.87 339.43 585.49 347.22C648.14 374.93 714.72 403.77 670.13 416.44C625.54 429.11 520.3 515.6 520.3 515.6C520.3 515.6 521.3 627.94 515.74 668.89C512.182 694.803 506.059 720.298 497.46 745" stroke="#0E1C36" stroke-width="6" stroke-linecap="round" stroke-linejoin="round"/>
<path d="M719.109 312.55C716.009 359.55 723.019 418.32 730.109 456.49" stroke="#0E1C36" stroke-width="6" stroke-linecap="round" stroke-linejoin="round"/>
<path d="M966.65 364.649C979.06 365.769 1005.65 371.949 1001.32 404.339C997.54 432.679 972.32 432.489 956.27 429.339" stroke="#0E1C36" stroke-width="6" stroke-linecap="round" stroke-linejoin="round"/>
<path d="M948.26 473.93L964.59 537.93C975.65 689 782.1 709.13 764.75 554.9" stroke="#0E1C36" stroke-width="6" stroke-linecap="round" stroke-linejoin="round"/>
<path d="M919.479 371.57C919.479 371.57 910.999 428.7 907.229 449.7C907.229 449.7 854.719 435.64 781.049 439.34C781.049 439.34 740.969 442.75 725.279 448.55C725.279 448.55 733.479 521.55 768.469 557.37C803.459 593.19 871.569 578.12 902.359 553.24C933.149 528.36 937.789 517.14 943.679 492.24C949.569 467.34 963.429 375.15 963.429 375.15L919.479 371.57Z" stroke="#0E1C36" stroke-width="6" stroke-linecap="round" stroke-linejoin="round"/>
<path d="M961 388.3C961 388.3 981.86 345.11 988 309.54C993.77 276.11 976.229 242.54 944.799 229.8C918.49 219.1 909.93 222.58 909.93 222.58C909.93 222.58 925.56 194.8 884.93 153.89C877.831 146.734 869.347 141.102 859.997 137.338C850.646 133.574 840.626 131.758 830.549 132C780.84 133.32 765.369 175.31 765.369 175.31C765.369 175.31 712.369 77.3999 603.159 134.97C592.159 140.78 579.709 157.02 573.739 167.97C537.529 234.27 656.08 313.24 717.89 319.63C785.75 326.63 828.38 318.19 849.12 300.21C833.52 311 861.26 410.41 961 388.3Z" fill="#0E1C36"/>
<path d="M777.219 411.28L774.02 475.56L796.14 468.35" stroke="#0E1C36" stroke-width="8" stroke-linecap="round" stroke-linejoin="round"/>
<path d="M845 368.09C841.431 364.075 836.85 361.092 831.734 359.453C826.619 357.813 821.158 357.578 815.92 358.77" stroke="#0E1C36" stroke-width="8" stroke-linecap="round" stroke-linejoin="round"/>
<path d="M762.11 344.61C762.11 344.61 744.35 338.55 738.71 353.01" stroke="#0E1C36" stroke-width="8" stroke-linecap="round" stroke-linejoin="round"/>
<path d="M849.88 487.87C846.38 483.07 812.29 506.99 825.61 509.14C838.93 511.29 857.39 498.18 849.88 487.87Z" fill="#0E1C36"/>
<path d="M706.919 483.47L836.459 439.69C836.459 439.69 853.789 433.09 853.179 410.61C852.569 388.13 824.299 379.72 824.299 379.72L686.239 360.23L706.919 483.47Z" fill="#8226f7"/>
<path d="M568.299 483.47L697.839 439.69C697.839 439.69 715.179 433.09 714.569 410.61C713.959 388.13 685.679 379.72 685.679 379.72L618.899 384.15L547.619 360.23L568.299 483.47Z" fill="#8226f7"/>
<path d="M684.79 487.47C720.059 487.47 748.65 458.879 748.65 423.61C748.65 388.341 720.059 359.75 684.79 359.75C649.521 359.75 620.93 388.341 620.93 423.61C620.93 458.879 649.521 487.47 684.79 487.47Z" fill="#0E1C36"/>
<path d="M545.21 488.38C580.479 488.38 609.07 459.789 609.07 424.52C609.07 389.251 580.479 360.66 545.21 360.66C509.941 360.66 481.35 389.251 481.35 424.52C481.35 459.789 509.941 488.38 545.21 488.38Z" fill="#0E1C36"/>
<path d="M585.27 338.379C610.97 320.229 660.37 314.119 671.07 315.709C681.34 317.239 675.379 334.209 644.669 343.569" stroke="#0E1C36" stroke-width="6" stroke-linecap="round" stroke-linejoin="round"/>
<path d="M601.34 339.859C632.34 332.259 687.13 361.099 695.95 369.529C705.4 378.529 679.77 392.729 631.66 364.799C631.66 364.799 617.56 355.279 606.17 356.359" stroke="#0E1C36" stroke-width="6" stroke-linecap="round" stroke-linejoin="round"/>
<path d="M571.109 339.65C602.249 332.82 656.109 361.19 664.809 369.53C674.259 378.53 648.629 392.73 600.519 364.8C600.519 364.8 586.409 355.28 575.029 356.36" stroke="#0E1C36" stroke-width="6" stroke-linecap="round" stroke-linejoin="round"/>
<path d="M538.229 343.759C567.439 329.759 629.58 362.229 639.03 371.249C648.48 380.269 622.85 394.439 574.74 366.519C574.74 366.519 560.64 356.999 549.26 358.079" stroke="#0E1C36" stroke-width="6" stroke-linecap="round" stroke-linejoin="round"/>
<path d="M1139.81 177.45L1120 85.63C1114.65 60.81 1088.64 44.71 1061.91 49.69C1035.19 54.69 1017.86 78.82 1023.22 103.69L1052.78 240.69" stroke="#0E1C36" stroke-width="6" stroke-linecap="round" stroke-linejoin="round"/>
<path d="M1271.1 184.05L1274.28 50.2095C1275.09 24.8995 1253.66 3.76954 1226.41 3.01954C1199.17 2.26954 1176.41 22.1795 1175.61 47.4895L1171.61 172.8" stroke="#0E1C36" stroke-width="6" stroke-linecap="round" stroke-linejoin="round"/>
<path d="M1391.57 233.7L1419.57 103.7C1424.92 78.8696 1407.57 54.6996 1380.87 49.6996C1354.14 44.6996 1328.14 60.8196 1322.78 85.6396L1299.33 180.43" stroke="#0E1C36" stroke-width="6" stroke-linecap="round" stroke-linejoin="round"/>
<path d="M1412.4 449.74L1535.59 220.35C1547.76 197.7 1537.85 170.17 1513.46 158.86C1489.07 147.56 1459.46 156.76 1447.26 179.42L1416 237.69" stroke="#0E1C36" stroke-width="6" stroke-linecap="round" stroke-linejoin="round"/>
<path d="M1003.29 399.21L1030.32 449.52" stroke="#0E1C36" stroke-width="6" stroke-linecap="round" stroke-linejoin="round"/>
<path d="M1032.58 248.34L995.58 179.42C983.41 156.76 953.78 147.56 929.38 158.86C904.99 170.17 895.09 197.7 907.25 220.35L987 368.89" stroke="#0E1C36" stroke-width="6" stroke-linecap="round" stroke-linejoin="round"/>
<path d="M1378.4 449.999L1439.84 314.999C1451.75 288.839 1443.06 255.689 1420.42 240.949C1397.79 226.219 1369.79 235.479 1357.88 261.639L1310.73 365.219L1335.94 248.999C1342.2 220.119 1327.18 190.059 1302.39 181.879C1277.59 173.689 1252.39 190.469 1246.15 219.359L1221.15 334.429L1208 219.809C1204.56 189.959 1181.22 168.339 1155.88 171.519C1130.54 174.709 1112.79 201.519 1116.23 231.349L1129.87 349.689L1100.08 272.769C1089.38 245.149 1061.87 232.299 1038.64 244.079C1015.42 255.849 1005.26 287.779 1015.96 315.399L1068.12 450.049" stroke="#8226f7" stroke-width="6" stroke-linecap="round" stroke-linejoin="round"/>
<path d="M1365.74 707.729L1407.16 531.999H1431.47C1433.37 532.006 1435.26 531.637 1437.02 530.914C1438.78 530.191 1440.38 529.128 1441.73 527.786C1443.08 526.444 1444.15 524.849 1444.88 523.093C1445.62 521.336 1446 519.452 1446 517.549V464.479C1446 462.573 1445.62 460.686 1444.89 458.926C1444.16 457.166 1443.09 455.568 1441.74 454.222C1440.39 452.877 1438.79 451.812 1437.03 451.087C1435.26 450.362 1433.38 449.993 1431.47 449.999H1008.52C1006.62 449.994 1004.73 450.365 1002.97 451.09C1001.21 451.815 999.604 452.881 998.255 454.226C996.906 455.571 995.836 457.169 995.106 458.929C994.376 460.688 994 462.574 994 464.479V517.549C994.004 519.451 994.383 521.334 995.115 523.09C995.847 524.846 996.917 526.441 998.266 527.783C999.614 529.125 1001.21 530.188 1002.97 530.911C1004.73 531.635 1006.62 532.004 1008.52 531.999H1034.52L1106.52 837.149" stroke="#0E1C36" stroke-width="6" stroke-linecap="round" stroke-linejoin="round"/>
<path d="M1300.38 701.859C1288.84 685.339 1280.01 667.719 1291.07 662.999C1306.28 656.509 1306.07 672.889 1329 688.529C1351.93 704.169 1373.41 707.099 1396.15 735.529" stroke="#0E1C36" stroke-width="6" stroke-linecap="round" stroke-linejoin="round"/>
<path d="M1301.15 704.299C1262 683.039 1205.15 681.809 1191.51 682.419C1183.19 682.789 1180.33 689.839 1186.63 698.729" stroke="#0E1C36" stroke-width="6" stroke-linecap="round" stroke-linejoin="round"/>
<path d="M1282.73 726.389C1243.05 705.559 1186.52 697.759 1172.1 698.889C1160.16 699.829 1160.02 715.119 1179.1 730.419" stroke="#0E1C36" stroke-width="6" stroke-linecap="round" stroke-linejoin="round"/>
<path d="M1273.3 753C1237.06 736.79 1194.93 729.16 1182.66 729.83C1169.53 730.55 1169.04 750.76 1193.03 769.33" stroke="#0E1C36" stroke-width="6" stroke-linecap="round" stroke-linejoin="round"/>
<path d="M1271.58 779.869C1240.92 767.139 1210.4 760.149 1200.58 761.329C1181.24 763.649 1197.38 798.199 1289.17 825.759" stroke="#0E1C36" stroke-width="6" stroke-linecap="round" stroke-linejoin="round"/>
<path d="M1289.2 825.76C1478.04 877.27 1465.73 713.76 1302.37 703.56" stroke="#0E1C36" stroke-width="6" stroke-linecap="round" stroke-linejoin="round"/>
<path d="M1694.57 837.879H3" stroke="#0E1C36" stroke-width="6" stroke-linecap="round" stroke-linejoin="round"/>
</g>
<defs>
<clipPath id="clip0_1_3216">
<rect width="1697.57" height="840.88" fill="white"/>
</clipPath>
</defs>
</svg>
