<svg width="1226" height="710" viewBox="0 0 1226 710" fill="none" xmlns="http://www.w3.org/2000/svg">
<g clip-path="url(#clip0_1_3362)">
<path d="M460.999 469.75C460.412 469.304 459.79 468.906 459.139 468.56C449.519 463.41 441.359 465.89 432.299 475.43C436.439 452.26 436.299 424.16 417.929 419.43C399.009 414.54 388.289 426.32 377.199 454.79C377.619 430.36 372.789 398.85 352.559 397.57C329.809 396.13 322.289 414.84 316.639 456.34C309.569 433.13 290.039 392.48 267.089 400.54C244.589 408.43 246.039 430.12 258.539 474.34C246.209 455.25 221.539 426.87 205.029 437.66C189.319 447.9 193.619 464.59 211.029 495.6C199.539 490.6 187.589 490.11 178.029 499.55C167.299 510.15 164.519 520.47 168.139 532.8" stroke="#0E1C36" stroke-width="6" stroke-linecap="round" stroke-linejoin="round"/>
<path d="M394.529 531.54L173.009 532.24C157.679 535.24 147.279 550.42 149.779 566.51L171.309 705.29" stroke="#0E1C36" stroke-width="6" stroke-linecap="round" stroke-linejoin="round"/>
<path d="M639.63 384C614.072 389.77 588.934 397.267 564.39 406.44C498.32 430.89 414.57 509.61 360.87 565.44C290.87 570.7 237.06 618.35 240.29 672.86C241.002 684.569 244.279 695.979 249.89 706.28" stroke="#0E1C36" stroke-width="6" stroke-linecap="round" stroke-linejoin="round"/>
<path d="M964.93 486.65C949.921 482.187 934.161 480.826 918.61 482.65C894.73 449.65 867.32 421.65 838.52 403.87C806.25 383.99 768.79 375.12 728.92 374.29" stroke="#0E1C36" stroke-width="6" stroke-linecap="round" stroke-linejoin="round"/>
<path d="M1028.55 705.93C1046.41 682.26 1057.14 651.93 1057.14 618.81C1057.19 598.757 1053.14 578.905 1045.25 560.47" stroke="#0E1C36" stroke-width="6" stroke-linecap="round" stroke-linejoin="round"/>
<path d="M845.381 408.29C756.721 463.24 677.001 464.45 625.471 455.61C577.651 447.41 543.211 428.96 531.941 421.79C530.028 422.87 528.111 423.977 526.191 425.11C535.381 431.44 571.381 452.22 623.381 461.33C640.313 464.304 657.471 465.799 674.661 465.8C692.233 465.79 709.77 464.241 727.071 461.17C769.071 453.71 810.701 437.17 850.701 412.02C848.901 410.74 847.128 409.497 845.381 408.29Z" fill="#0E1C36"/>
<path d="M836.191 502.88C850.291 483.08 867.731 471.95 888.041 469.79C895.399 469.002 902.838 469.465 910.041 471.16C908.168 468.74 906.275 466.357 904.361 464.01C898.848 463.297 893.271 463.223 887.741 463.79C872.471 465.35 850.291 472.79 831.341 499.4C830.882 500.049 830.698 500.854 830.831 501.637C830.965 502.421 831.403 503.12 832.051 503.58C832.559 503.943 833.167 504.139 833.791 504.14C834.262 504.133 834.725 504.016 835.142 503.797C835.559 503.578 835.918 503.264 836.191 502.88Z" fill="#0E1C36"/>
<path d="M838.27 576.16H838.33C839.117 576.16 839.873 575.851 840.434 575.299C840.995 574.747 841.317 573.997 841.33 573.21C841.5 564.39 845.06 544.44 857.33 525.63C871.57 503.78 892.52 490.31 919.57 485.54C918.26 483.74 916.94 481.94 915.57 480.16C888.57 485.66 866.72 500.16 852.27 522.35C840.12 541 835.54 561.35 835.27 573.1C835.262 573.499 835.334 573.896 835.481 574.267C835.628 574.638 835.848 574.975 836.127 575.26C836.407 575.545 836.74 575.772 837.108 575.926C837.476 576.081 837.871 576.16 838.27 576.16Z" fill="#0E1C36"/>
<path d="M413.58 543.59C402.227 543.117 390.858 543.99 379.71 546.19C376.69 549.217 373.733 552.217 370.84 555.19C381.93 549.1 445.13 541.51 471.23 571.19C471.513 571.506 471.86 571.759 472.248 571.931C472.635 572.104 473.055 572.192 473.48 572.19C474.216 572.194 474.928 571.927 475.48 571.44C476.076 570.914 476.439 570.174 476.49 569.381C476.54 568.588 476.274 567.807 475.75 567.21C458.94 548.08 429.58 544.21 413.58 543.59Z" fill="#0E1C36"/>
<path d="M464.001 589.54C428.661 562.88 384.711 561.29 366.071 562L359.871 568.41C370.551 567.54 421.721 565.15 460.381 594.33C461.016 594.81 461.816 595.018 462.605 594.909C463.393 594.799 464.106 594.38 464.586 593.745C465.066 593.11 465.274 592.31 465.164 591.522C465.055 590.733 464.636 590.02 464.001 589.54Z" fill="#0E1C36"/>
<path d="M312.541 705.29C312.541 705.29 345.311 608.29 437.611 625.9C456.541 629.51 476.891 633.97 497.301 638.78" stroke="#0E1C36" stroke-width="6" stroke-linecap="round" stroke-linejoin="round"/>
<path d="M1045.77 288.24C1061.57 232.93 1074.51 220.58 1081.96 225.96C1088.71 230.84 1074.96 266.08 1070.96 284.37" stroke="#0E1C36" stroke-width="6" stroke-linecap="round" stroke-linejoin="round"/>
<path d="M1115.5 276.19C1123.42 263.33 1136.5 263.97 1129.67 285.89C1123.01 307.26 1118.07 335.13 1105.57 347.72C1093.07 360.31 1088.57 365.95 1088.57 365.95C1088.57 365.95 1063.57 459.25 1049.38 536.82C1028.84 649 990.11 670.58 953.9 657.73C917.69 644.88 911 594.17 960.45 495.6C1009.9 397.03 1035.97 339.6 1035.97 339.6" stroke="#0E1C36" stroke-width="6" stroke-linecap="round" stroke-linejoin="round"/>
<path d="M1036.8 341.37C1029.63 336.52 1030.49 308.31 1022.44 296.02C1012.44 280.7 1002.66 264.82 1021.17 267.2C1037.04 269.25 1042.09 283.2 1045.77 288.2" stroke="#0E1C36" stroke-width="6" stroke-linecap="round" stroke-linejoin="round"/>
<path d="M1106.25 299.65C1106.25 299.65 1120.31 265.4 1125.03 249.56C1130.2 232.22 1112.03 229.78 1103.27 254.61" stroke="#0E1C36" stroke-width="6" stroke-linecap="round" stroke-linejoin="round"/>
<path d="M1089.74 290.66C1089.74 290.66 1117.42 227.94 1105.04 222.36C1093.75 217.27 1085.14 240.15 1070.93 284.36" stroke="#0E1C36" stroke-width="6" stroke-linecap="round" stroke-linejoin="round"/>
<path d="M638.002 354.43L640.882 406.92C640.882 406.92 634.312 445.08 687.322 438.01C740.122 430.96 733.642 399.7 733.642 399.7L720.812 330.7" stroke="#0E1C36" stroke-width="6" stroke-linecap="round" stroke-linejoin="round"/>
<path d="M737.602 222.76C737.602 222.76 778.602 207.38 780.202 250.08C781.512 285.32 751.662 283.94 741.202 282.38" stroke="#0E1C36" stroke-width="6" stroke-linecap="round" stroke-linejoin="round"/>
<path d="M631.801 155.61H702.181C712.524 155.61 722.444 159.719 729.758 167.033C737.072 174.347 741.181 184.267 741.181 194.61V277.25C741.181 298.584 732.706 319.045 717.62 334.13C702.535 349.215 682.075 357.69 660.741 357.69C650.177 357.69 639.717 355.61 629.958 351.567C620.198 347.525 611.331 341.6 603.861 334.13C596.392 326.66 590.466 317.793 586.424 308.033C582.381 298.274 580.301 287.814 580.301 277.25V207.1C580.301 200.338 581.633 193.641 584.221 187.394C586.809 181.146 590.603 175.469 595.385 170.688C600.168 165.906 605.845 162.114 612.093 159.527C618.342 156.94 625.038 155.609 631.801 155.61Z" stroke="#0E1C36" stroke-width="6" stroke-linecap="round" stroke-linejoin="round"/>
<path d="M759.901 315.38C759.925 297.87 758.285 280.398 755.001 263.2C755.001 262.87 755.001 262.52 755.001 262.2C754.988 259.18 753.782 256.288 751.647 254.153C749.512 252.018 746.62 250.813 743.601 250.8L743.901 273.6C746.213 273.529 748.45 272.755 750.311 271.38C754.001 294.38 761.311 362.96 730.541 421.26C724.891 431.95 719.591 441.83 714.471 451.38C685.471 505.5 666.271 541.25 666.721 573.18C666.721 573.975 667.037 574.739 667.599 575.301C668.162 575.864 668.925 576.18 669.721 576.18C670.516 576.18 671.279 575.864 671.842 575.301C672.405 574.739 672.721 573.975 672.721 573.18C672.291 542.81 691.181 507.6 719.721 454.3C724.851 444.75 730.151 434.86 735.801 424.15C756.001 385.9 760.051 343.9 759.901 315.38Z" fill="#8226f7"/>
<path d="M572.481 274.8C573.886 275.592 575.444 276.073 577.051 276.21V253.53C574.507 253.762 572.116 254.841 570.259 256.595C568.402 258.348 567.188 260.674 566.811 263.2C566.479 263.694 566.301 264.275 566.301 264.87C566.301 269.43 566.301 377.17 598.301 425.78C631.021 475.58 641.141 503.94 643.391 552.23C643.427 553.001 643.759 553.729 644.318 554.262C644.876 554.794 645.619 555.091 646.391 555.09H646.531C647.325 555.054 648.072 554.704 648.608 554.117C649.145 553.53 649.426 552.754 649.391 551.96C647.081 502.4 636.751 473.36 603.331 422.5C577.841 383.76 573.291 302.94 572.481 274.8Z" fill="#8226f7"/>
<path d="M636.141 229L637.201 293.85C637.201 293.85 641.981 300.75 649.671 286.69" stroke="#0E1C36" stroke-width="6" stroke-linecap="round" stroke-linejoin="round"/>
<path d="M636.141 307.64C641.981 314.47 655.701 313.35 669.301 304.46C669.301 304.46 674.601 321.83 648.211 324.46" stroke="#0E1C36" stroke-width="6" stroke-linecap="round" stroke-linejoin="round"/>
<path d="M661.672 208.11C662.472 207.91 671.022 195.58 684.152 206.11" stroke="#0E1C36" stroke-width="6" stroke-linecap="round" stroke-linejoin="round"/>
<path d="M684.152 255.79C686.897 255.79 689.122 252.347 689.122 248.1C689.122 243.853 686.897 240.41 684.152 240.41C681.407 240.41 679.182 243.853 679.182 248.1C679.182 252.347 681.407 255.79 684.152 255.79Z" fill="#0E1C36"/>
<path d="M611.451 257.771C614.195 257.771 616.42 254.328 616.42 250.081C616.42 245.834 614.195 242.391 611.451 242.391C608.706 242.391 606.48 245.834 606.48 250.081C606.48 254.328 608.706 257.771 611.451 257.771Z" fill="#0E1C36"/>
<path d="M595.561 207.54C596.361 207.37 607.191 192.54 618.101 206.54" stroke="#0E1C36" stroke-width="6" stroke-linecap="round" stroke-linejoin="round"/>
<path d="M680.791 138.131C661.321 138.381 646.541 139.361 637.681 140.981C566.111 157.261 577.681 210.301 577.681 210.301C577.681 210.301 612.681 216.971 641.171 174.791C641.171 174.791 680.301 206.721 738.171 219.581C739.101 219.361 740.171 219.071 741.171 218.751V221.681C745.939 220.414 750.874 219.898 755.801 220.151C755.161 199.241 751.421 172.891 734.191 155.881C722.001 143.801 704.001 137.821 680.791 138.131Z" fill="#0E1C36"/>
<path d="M868.671 94.5901C844.001 24.0001 773.941 -15.7099 712.221 5.88014C661.491 23.6201 632.221 77.2601 637.061 134.99C646.351 133.35 661.001 132.38 680.711 132.13C705.581 131.81 724.991 138.36 738.421 151.61C757.421 170.4 761.281 198.96 761.841 221.14C771.031 223.63 779.491 231.14 780.201 250.08C780.271 252 778.591 266.68 779.001 266.63C778.937 272.425 780.511 278.12 783.541 283.06C790.421 294.16 804.451 301.06 825.261 303.48H825.611C826.406 303.527 827.188 303.255 827.783 302.725C828.379 302.195 828.739 301.451 828.786 300.655C828.832 299.86 828.561 299.078 828.031 298.483C827.501 297.887 826.756 297.527 825.961 297.48C807.111 295.26 794.571 289.36 788.691 279.93C786.612 276.561 785.381 272.739 785.101 268.79C790.231 274.79 799.101 281.26 813.221 281.26C816.943 281.24 820.652 280.834 824.291 280.05C824.689 279.983 825.07 279.837 825.41 279.62C825.75 279.402 826.043 279.119 826.271 278.785C826.499 278.452 826.658 278.076 826.737 277.68C826.816 277.284 826.815 276.876 826.732 276.481C826.65 276.086 826.489 275.711 826.259 275.379C826.028 275.048 825.733 274.766 825.391 274.551C825.049 274.336 824.668 274.193 824.269 274.129C823.87 274.065 823.463 274.083 823.071 274.18C804.881 277.96 794.721 271.03 789.481 264.85C793.583 263.953 797.627 262.808 801.591 261.42C863.311 239.88 893.341 165.17 868.671 94.5901Z" fill="#0E1C36"/>
<path d="M688.532 286.68C708.745 286.68 725.132 270.294 725.132 250.08C725.132 229.867 708.745 213.48 688.532 213.48C668.318 213.48 651.932 229.867 651.932 250.08C651.932 270.294 668.318 286.68 688.532 286.68Z" stroke="#0E1C36" stroke-width="6" stroke-linecap="round" stroke-linejoin="round"/>
<path d="M627.252 249.091H651.132" stroke="#0E1C36" stroke-width="6" stroke-linecap="round" stroke-linejoin="round"/>
<path d="M720.531 232.311L741.181 220.641" stroke="#0E1C36" stroke-width="6" stroke-linecap="round" stroke-linejoin="round"/>
<path d="M589.461 286.68C609.675 286.68 626.061 270.294 626.061 250.08C626.061 229.867 609.675 213.48 589.461 213.48C569.248 213.48 552.861 229.867 552.861 250.08C552.861 270.294 569.248 286.68 589.461 286.68Z" stroke="#0E1C36" stroke-width="6" stroke-linecap="round" stroke-linejoin="round"/>
<path d="M841.159 667.88H820.369L810.149 516.61C809.734 511.422 807.399 506.575 803.601 503.017C799.802 499.459 794.813 497.445 789.609 497.37H499.819C497.341 497.335 494.884 497.819 492.604 498.791C490.325 499.762 488.274 501.201 486.584 503.013C484.894 504.826 483.603 506.972 482.792 509.314C481.982 511.655 481.671 514.141 481.879 516.61L493.189 684.08C493.602 689.269 495.936 694.117 499.735 697.675C503.534 701.234 508.524 703.247 513.729 703.32L841.159 702.9C842.583 702.9 843.992 702.62 845.307 702.075C846.623 701.53 847.818 700.732 848.824 699.725C849.831 698.718 850.629 697.523 851.174 696.208C851.719 694.893 851.999 693.483 851.999 692.06V678.72C851.999 677.296 851.719 675.887 851.174 674.572C850.629 673.257 849.831 672.062 848.824 671.055C847.818 670.048 846.623 669.25 845.307 668.705C843.992 668.16 842.583 667.88 841.159 667.88ZM660.829 559C655.659 572.72 643.829 568.49 643.829 568.49C645.869 556 660.829 559 660.829 559ZM662.359 626.14C651.939 632.61 636.359 630.23 627.479 620.81C618.599 611.39 619.919 598.52 630.339 592.05C631.93 591.079 633.633 590.304 635.409 589.74C634.398 588.67 633.623 587.4 633.134 586.011C632.645 584.623 632.452 583.147 632.569 581.68C632.682 580.113 633.19 578.6 634.047 577.283C634.904 575.965 636.082 574.888 637.469 574.15C636.259 569.64 634.319 563.72 632.729 561.82C632.501 561.605 632.326 561.339 632.219 561.044C632.112 560.749 632.076 560.433 632.114 560.121C632.152 559.81 632.263 559.512 632.438 559.251C632.612 558.99 632.846 558.774 633.119 558.62C633.747 558.315 634.459 558.23 635.141 558.379C635.823 558.527 636.435 558.901 636.879 559.44C639.299 562.33 641.409 569.09 642.529 573.22C642.639 573.22 642.759 573.22 642.869 573.22C645.444 573.657 647.76 575.049 649.356 577.117C650.952 579.185 651.71 581.778 651.479 584.38C651.331 586.04 650.752 587.633 649.799 589C655.678 590.125 661.064 593.042 665.219 597.35C674.069 606.81 672.789 619.69 662.359 626.16V626.14Z" fill="#8226f7"/>
<path d="M3 706.26H1222.07" stroke="#0E1C36" stroke-width="6" stroke-linecap="round" stroke-linejoin="round"/>
</g>
<defs>
<clipPath id="clip0_1_3362">
<rect width="1225.07" height="709.26" fill="white"/>
</clipPath>
</defs>
</svg>
