<svg width="900" height="900" viewBox="0 0 900 900" fill="none" xmlns="http://www.w3.org/2000/svg">
<rect x="839.107" y="637.184" width="300" height="100" rx="20" transform="rotate(137.5 839.107 637.184)" fill="#0ABAB5"/>
<rect x="827.41" y="769.439" width="94.9429" height="92.0981" rx="20" transform="rotate(137.5 827.41 769.439)" fill="black"/>
<rect x="212.41" y="131.439" width="94.9429" height="92.0981" rx="20" transform="rotate(137.5 212.41 131.439)" fill="black"/>
<rect x="795.46" y="484.656" width="450" height="100" rx="20" transform="rotate(137.5 795.46 484.656)" fill="#0ABAB5"/>
<rect width="300" height="100" rx="20" transform="matrix(-0.737277 0.67559 0.67559 0.737277 282.183 60)" fill="#0ABAB5"/>
<rect width="450" height="100" rx="20" transform="matrix(-0.737277 0.67559 0.67559 0.737277 436.417 111.188)" fill="#0ABAB5"/>
<rect x="425.187" y="634.762" width="200" height="100" rx="20" transform="rotate(137.5 425.187 634.762)" fill="#0ABAB5"/>
<rect x="779.824" y="306.449" width="200" height="100" rx="20" transform="rotate(137.5 779.824 306.449)" fill="#0ABAB5"/>
<rect x="319.865" y="532.439" width="200" height="100" rx="20" transform="rotate(137.5 319.865 532.439)" fill="#0ABAB5"/>
<rect x="681.501" y="205.439" width="200" height="100" rx="20" transform="rotate(137.5 681.501 205.439)" fill="#0ABAB5"/>
<path d="M481.413 402.317C477.714 397.645 472.653 394.238 466.229 392.097C460 389.761 454.062 388.593 448.417 388.593C445.108 388.593 441.701 388.982 438.197 389.761C434.693 390.54 431.384 391.805 428.269 393.557C425.154 395.114 422.624 397.256 420.677 399.981C418.73 402.706 417.757 406.016 417.757 409.909C417.757 416.138 420.093 420.908 424.765 424.217C429.437 427.526 435.277 430.349 442.285 432.685C449.488 435.021 457.177 437.357 465.353 439.693C473.529 442.029 481.121 445.338 488.129 449.621C495.332 453.904 501.269 459.646 505.941 466.849C510.613 474.052 512.949 483.688 512.949 495.757C512.949 507.242 510.808 517.268 506.525 525.833C502.242 534.398 496.402 541.504 489.005 547.149C481.802 552.794 473.334 556.98 463.601 559.705C454.062 562.43 443.94 563.793 433.233 563.793C419.801 563.793 407.342 561.749 395.857 557.661C384.372 553.573 373.665 546.954 363.737 537.805L396.149 502.181C400.821 508.41 406.661 513.277 413.669 516.781C420.872 520.09 428.269 521.745 435.861 521.745C439.56 521.745 443.258 521.356 446.957 520.577C450.85 519.604 454.257 518.241 457.177 516.489C460.292 514.737 462.725 512.498 464.477 509.773C466.424 507.048 467.397 503.836 467.397 500.137C467.397 493.908 464.964 489.041 460.097 485.537C455.425 481.838 449.488 478.724 442.285 476.193C435.082 473.662 427.296 471.132 418.925 468.601C410.554 466.07 402.768 462.664 395.565 458.381C388.362 454.098 382.328 448.453 377.461 441.445C372.789 434.437 370.453 425.19 370.453 413.705C370.453 402.609 372.594 392.876 376.877 384.505C381.354 376.134 387.194 369.126 394.397 363.481C401.794 357.836 410.262 353.65 419.801 350.925C429.34 348.005 439.17 346.545 449.293 346.545C460.973 346.545 472.264 348.2 483.165 351.509C494.066 354.818 503.897 360.366 512.657 368.153L481.413 402.317Z" fill="black"/>
</svg>
