<svg width="1367" height="949" viewBox="0 0 1367 949" fill="none" xmlns="http://www.w3.org/2000/svg">
<g clip-path="url(#clip0_1_3159)">
<path d="M296.75 478.33H132.13C122.376 478.33 114.47 486.237 114.47 495.99V554.53C114.47 564.283 122.376 572.19 132.13 572.19H296.75C306.503 572.19 314.41 564.283 314.41 554.53V495.99C314.41 486.237 306.503 478.33 296.75 478.33Z" stroke="#0E1C36" stroke-width="6" stroke-linecap="round" stroke-linejoin="round"/>
<path d="M149.069 501.24H285.079" stroke="#0E1C36" stroke-width="6" stroke-linecap="round" stroke-linejoin="round"/>
<path d="M149.069 516.36H255.829" stroke="#0E1C36" stroke-width="6" stroke-linecap="round" stroke-linejoin="round"/>
<path d="M149.069 533.15H285.079" stroke="#0E1C36" stroke-width="6" stroke-linecap="round" stroke-linejoin="round"/>
<path d="M149.069 548.27H255.829" stroke="#0E1C36" stroke-width="6" stroke-linecap="round" stroke-linejoin="round"/>
<path d="M120.4 511.89C132.279 511.89 141.91 502.26 141.91 490.38C141.91 478.5 132.279 468.87 120.4 468.87C108.52 468.87 98.8896 478.5 98.8896 490.38C98.8896 502.26 108.52 511.89 120.4 511.89Z" fill="#8226f7"/>
<path d="M593.6 622.6H572.08V604.68H593.6C595.218 604.68 596.769 605.322 597.913 606.466C599.057 607.61 599.7 609.162 599.7 610.78V616.5C599.7 618.118 599.057 619.669 597.913 620.813C596.769 621.957 595.218 622.6 593.6 622.6Z" fill="#8226f7"/>
<path d="M866.96 604.68H816.16C812.791 604.68 810.06 607.411 810.06 610.78V616.5C810.06 619.869 812.791 622.6 816.16 622.6H866.96C870.329 622.6 873.06 619.869 873.06 616.5V610.78C873.06 607.411 870.329 604.68 866.96 604.68Z" fill="#8226f7"/>
<path d="M787.4 604.68H620.81C617.441 604.68 614.71 607.411 614.71 610.78V616.5C614.71 619.869 617.441 622.6 620.81 622.6H787.4C790.769 622.6 793.5 619.869 793.5 616.5V610.78C793.5 607.411 790.769 604.68 787.4 604.68Z" fill="#8226f7"/>
<path d="M872.43 588.66H573.14C572.7 597.81 572.54 606.46 572.8 614.66C572.94 618.82 573.8 627.37 575.12 639.11H872.43C876.408 639.11 880.224 637.529 883.037 634.716C885.85 631.903 887.43 628.088 887.43 624.11V603.64C887.425 599.665 885.842 595.855 883.03 593.046C880.217 590.237 876.405 588.66 872.43 588.66Z" stroke="#0E1C36" stroke-width="6" stroke-linecap="round" stroke-linejoin="round"/>
<path d="M247.699 667.83V572.63" stroke="#0E1C36" stroke-width="6" stroke-linecap="round" stroke-linejoin="round"/>
<path d="M420.349 798.94H269.569C257.489 798.94 247.699 789.8 247.699 778.52V766.52" stroke="#0E1C36" stroke-width="6" stroke-linecap="round" stroke-linejoin="round"/>
<path d="M719.119 798.94H597.529" stroke="#0E1C36" stroke-width="6" stroke-linecap="round" stroke-linejoin="round"/>
<path d="M1127.56 641V778.52C1127.56 789.8 1117.77 798.94 1105.69 798.94H994.39" stroke="#0E1C36" stroke-width="6" stroke-linecap="round" stroke-linejoin="round"/>
<path d="M247.699 477.42V361.72H1127.56V425.3" stroke="#0E1C36" stroke-width="6" stroke-linecap="round" stroke-linejoin="round"/>
<path d="M699.27 263.109H638.71C640.857 264.773 642.767 266.721 644.39 268.899C644.442 268.958 644.489 269.022 644.53 269.089L671.33 311.499H707.72C707.427 311.221 707.194 310.885 707.034 310.514C706.875 310.143 706.791 309.744 706.79 309.339V269.999C706.79 266.199 703.42 263.109 699.27 263.109ZM686.88 289.389H682.52V293.749C682.52 294.545 682.204 295.308 681.641 295.871C681.079 296.433 680.316 296.749 679.52 296.749C678.724 296.749 677.961 296.433 677.399 295.871C676.836 295.308 676.52 294.545 676.52 293.749V289.439H672.21C671.414 289.439 670.651 289.123 670.089 288.561C669.526 287.998 669.21 287.235 669.21 286.439C669.21 285.644 669.526 284.881 670.089 284.318C670.651 283.755 671.414 283.439 672.21 283.439H676.57V279.079C676.57 278.284 676.886 277.521 677.449 276.958C678.011 276.395 678.774 276.079 679.57 276.079C680.366 276.079 681.129 276.395 681.691 276.958C682.254 277.521 682.57 278.284 682.57 279.079V283.389H686.88C687.676 283.389 688.439 283.705 689.001 284.268C689.564 284.831 689.88 285.594 689.88 286.389C689.88 287.185 689.564 287.948 689.001 288.511C688.439 289.073 687.676 289.389 686.88 289.389Z" fill="#0E1C36"/>
<path d="M1108.89 241.18L266.14 242.25C253.97 242.25 244.14 252.7 244.14 265.59L244.6 312.19L392.82 311.51L419.63 269.09C419.667 269.023 419.711 268.959 419.76 268.9C425.23 261.59 433.56 257.23 442.03 257.23H621.08C621.336 257.153 621.602 257.113 621.87 257.11H699.27C706.72 257.11 712.79 262.89 712.79 269.99V309.34C712.788 309.744 712.705 310.143 712.545 310.515C712.385 310.886 712.152 311.221 711.86 311.5H1130.86V317.5H669.68C669.173 317.501 668.675 317.374 668.231 317.131C667.787 316.888 667.411 316.537 667.14 316.11L639.52 272.4C635.18 266.66 628.68 263.23 622.13 263.23H442C435.44 263.23 428.95 266.66 424.6 272.4L397 316.11C396.73 316.534 396.358 316.884 395.917 317.127C395.477 317.369 394.983 317.498 394.48 317.5L244.64 318.19L245.14 368.99H1130.94V264.52C1130.92 251.63 1121.05 241.18 1108.89 241.18ZM280.78 291.93C278.123 291.932 275.525 291.145 273.315 289.671C271.105 288.196 269.382 286.098 268.364 283.644C267.346 281.189 267.079 278.488 267.597 275.882C268.115 273.276 269.394 270.882 271.273 269.003C273.152 267.124 275.546 265.845 278.152 265.327C280.758 264.809 283.459 265.076 285.914 266.094C288.368 267.112 290.465 268.835 291.94 271.045C293.415 273.255 294.202 275.853 294.2 278.51C294.2 282.069 292.786 285.482 290.269 287.999C287.752 290.516 284.339 291.93 280.78 291.93ZM324.93 291.93C322.273 291.93 319.676 291.142 317.467 289.666C315.259 288.189 313.537 286.091 312.521 283.637C311.505 281.182 311.239 278.481 311.758 275.876C312.277 273.271 313.558 270.878 315.437 269C317.316 267.122 319.71 265.844 322.316 265.327C324.922 264.809 327.622 265.077 330.076 266.095C332.53 267.113 334.627 268.836 336.101 271.046C337.576 273.256 338.362 275.853 338.36 278.51C338.36 280.273 338.012 282.019 337.337 283.648C336.662 285.276 335.673 286.756 334.425 288.003C333.178 289.249 331.698 290.237 330.068 290.911C328.439 291.585 326.693 291.931 324.93 291.93ZM369.09 291.93C366.433 291.932 363.835 291.145 361.625 289.671C359.415 288.196 357.692 286.098 356.674 283.644C355.656 281.189 355.389 278.488 355.907 275.882C356.425 273.276 357.704 270.882 359.583 269.003C361.462 267.124 363.856 265.845 366.462 265.327C369.068 264.809 371.769 265.076 374.224 266.094C376.678 267.112 378.775 268.835 380.25 271.045C381.725 273.255 382.512 275.853 382.51 278.51C382.51 282.069 381.096 285.482 378.579 287.999C376.062 290.516 372.649 291.93 369.09 291.93ZM1084.14 283.03L1078.45 287.19H1078.81C1079.61 287.232 1080.35 287.589 1080.88 288.182C1081.42 288.774 1081.69 289.554 1081.65 290.35C1081.61 291.145 1081.25 291.892 1080.66 292.424C1080.07 292.957 1079.29 293.232 1078.49 293.19H1078.17L1070.67 292.39H1070.32C1069.85 292.391 1069.38 292.28 1068.96 292.066C1068.53 291.853 1068.17 291.542 1067.89 291.16C1067.64 290.826 1067.47 290.445 1067.38 290.04C1067.29 289.636 1067.28 289.217 1067.36 288.81L1068.9 280.91C1069.05 280.129 1069.51 279.441 1070.17 278.997C1070.83 278.554 1071.64 278.391 1072.42 278.545C1073.21 278.699 1073.89 279.156 1074.34 279.817C1074.78 280.478 1074.94 281.289 1074.79 282.07L1074.69 282.6L1080.69 278.24C1081.01 277.991 1081.37 277.808 1081.76 277.703C1082.15 277.598 1082.55 277.572 1082.95 277.627C1083.35 277.681 1083.73 277.816 1084.08 278.022C1084.43 278.229 1084.73 278.503 1084.96 278.828C1085.2 279.153 1085.37 279.522 1085.46 279.914C1085.56 280.306 1085.57 280.713 1085.5 281.11C1085.43 281.506 1085.28 281.885 1085.06 282.224C1084.85 282.562 1084.56 282.853 1084.23 283.08L1084.14 283.03ZM1105.25 267.54L1103.74 274.95C1103.6 275.627 1103.23 276.236 1102.7 276.674C1102.16 277.111 1101.49 277.35 1100.8 277.35C1100.59 277.349 1100.39 277.329 1100.19 277.29C1099.41 277.128 1098.73 276.665 1098.29 276.001C1097.86 275.338 1097.7 274.528 1097.86 273.75L1097.93 273.4L1092.24 277.56C1091.6 278.029 1090.79 278.224 1090.01 278.101C1089.22 277.978 1088.51 277.548 1088.04 276.905C1087.58 276.262 1087.38 275.458 1087.5 274.672C1087.63 273.885 1088.06 273.179 1088.7 272.71L1094.7 268.35L1094.16 268.29C1093.77 268.244 1093.38 268.122 1093.04 267.929C1092.69 267.737 1092.39 267.478 1092.14 267.167C1091.64 266.54 1091.41 265.74 1091.5 264.945C1091.6 264.149 1092 263.422 1092.63 262.924C1093.25 262.426 1094.05 262.198 1094.85 262.29L1102.85 263.21C1103.26 263.257 1103.66 263.39 1104.02 263.6C1104.38 263.81 1104.7 264.092 1104.94 264.43C1105.27 264.87 1105.48 265.392 1105.53 265.941C1105.59 266.49 1105.49 267.043 1105.25 267.54ZM605.76 287.34C605.463 287.077 605.221 286.759 605.047 286.402C604.873 286.046 604.772 285.659 604.747 285.264C604.699 284.465 604.969 283.679 605.5 283.08C606.03 282.48 606.777 282.116 607.576 282.067C608.375 282.019 609.16 282.289 609.76 282.82L613.93 286.46L618.17 282.91C618.782 282.42 619.562 282.189 620.342 282.267C621.122 282.345 621.841 282.725 622.344 283.327C622.848 283.928 623.096 284.703 623.035 285.484C622.974 286.266 622.61 286.993 622.02 287.51L618.5 290.45L621.96 293.45C622.563 293.975 622.933 294.718 622.988 295.516C623.044 296.314 622.78 297.101 622.255 297.705C621.73 298.308 620.986 298.678 620.188 298.733C619.39 298.789 618.603 298.525 618 298L613.84 294.36L609.59 297.91C608.977 298.4 608.197 298.63 607.417 298.552C606.637 298.474 605.918 298.094 605.415 297.493C604.911 296.891 604.664 296.117 604.724 295.335C604.785 294.553 605.15 293.826 605.74 293.31L609.26 290.37L605.76 287.34ZM312.5 346.19H295.41L299.75 350.13C300.259 350.679 300.545 351.399 300.551 352.148C300.556 352.898 300.281 353.622 299.78 354.179C299.278 354.735 298.586 355.084 297.841 355.157C297.095 355.229 296.349 355.02 295.75 354.57L286.21 345.89C285.697 345.648 285.264 345.266 284.959 344.788C284.655 344.31 284.492 343.756 284.49 343.19C284.49 343.19 284.49 343.13 284.49 343.1C284.49 343.07 284.49 343.04 284.49 343.02C284.492 342.6 284.582 342.186 284.754 341.804C284.927 341.421 285.177 341.079 285.49 340.8L295.4 331.64C295.984 331.1 296.76 330.815 297.555 330.847C298.35 330.878 299.1 331.225 299.64 331.81C300.179 332.394 300.465 333.17 300.433 333.965C300.401 334.76 300.054 335.51 299.47 336.05L294.99 340.19H312.5C313.295 340.19 314.058 340.506 314.621 341.068C315.184 341.631 315.5 342.394 315.5 343.19C315.5 343.985 315.184 344.748 314.621 345.311C314.058 345.874 313.295 346.19 312.5 346.19ZM359.72 343.19C359.717 343.756 359.554 344.31 359.25 344.788C358.946 345.266 358.512 345.648 358 345.89L348.46 354.57C347.912 355.067 347.2 355.345 346.46 355.35C345.856 355.346 345.267 355.16 344.77 354.817C344.273 354.473 343.892 353.987 343.676 353.423C343.46 352.859 343.419 352.243 343.559 351.655C343.699 351.068 344.013 350.536 344.46 350.13L348.8 346.19H331.67C330.874 346.19 330.111 345.874 329.548 345.311C328.986 344.748 328.67 343.985 328.67 343.19C328.67 342.394 328.986 341.631 329.548 341.068C330.111 340.506 330.874 340.19 331.67 340.19H349.26L344.78 336.05C344.195 335.51 343.848 334.76 343.817 333.965C343.785 333.17 344.07 332.394 344.61 331.81C345.149 331.225 345.899 330.878 346.694 330.847C347.49 330.815 348.265 331.1 348.85 331.64L358.76 340.8C359.072 341.079 359.323 341.421 359.495 341.804C359.667 342.186 359.757 342.6 359.76 343.02C359.76 343.02 359.76 343.07 359.76 343.1C359.76 343.13 359.72 343.16 359.72 343.19ZM995.52 349C995.52 350.326 994.993 351.598 994.055 352.535C993.117 353.473 991.846 354 990.52 354H398.94C397.614 354 396.342 353.473 395.404 352.535C394.466 351.598 393.94 350.326 393.94 349V339.62C393.94 338.294 394.466 337.022 395.404 336.084C396.342 335.146 397.614 334.62 398.94 334.62H990.53C991.856 334.62 993.128 335.146 994.065 336.084C995.003 337.022 995.53 338.294 995.53 339.62L995.52 349ZM1047.45 340.24L1042.24 343.24L1044.24 349.53C1044.43 350.107 1044.44 350.727 1044.27 351.309C1044.09 351.891 1043.75 352.408 1043.28 352.79C1042.81 353.172 1042.23 353.403 1041.63 353.451C1041.02 353.499 1040.42 353.363 1039.89 353.06L1034.26 349.81L1028.52 353.98C1028.01 354.353 1027.39 354.554 1026.76 354.555C1026.12 354.555 1025.51 354.355 1024.99 353.983C1024.48 353.611 1024.1 353.087 1023.9 352.484C1023.7 351.882 1023.7 351.232 1023.9 350.63L1026.02 344.1L1020.47 340.1C1019.96 339.727 1019.58 339.202 1019.39 338.601C1019.19 338 1019.19 337.354 1019.39 336.753C1019.58 336.153 1019.96 335.629 1020.47 335.257C1020.98 334.884 1021.6 334.682 1022.23 334.68H1029.1L1031.22 328.15C1031.42 327.549 1031.8 327.027 1032.31 326.656C1032.82 326.286 1033.44 326.086 1034.07 326.086C1034.7 326.086 1035.32 326.286 1035.83 326.656C1036.34 327.027 1036.72 327.549 1036.92 328.15L1039.05 334.68H1046C1046.66 334.679 1047.3 334.897 1047.83 335.299C1048.35 335.701 1048.73 336.265 1048.9 336.903C1049.07 337.542 1049.03 338.219 1048.77 338.83C1048.52 339.44 1048.07 339.95 1047.5 340.28L1047.45 340.24ZM1095.21 354.56H1078.38C1077.58 354.56 1076.82 354.244 1076.26 353.681C1075.7 353.118 1075.38 352.355 1075.38 351.56C1075.38 350.764 1075.7 350.001 1076.26 349.438C1076.82 348.876 1077.58 348.56 1078.38 348.56H1095.21C1096.01 348.56 1096.77 348.876 1097.33 349.438C1097.89 350.001 1098.21 350.764 1098.21 351.56C1098.21 352.355 1097.89 353.118 1097.33 353.681C1096.77 354.244 1096.01 354.56 1095.21 354.56ZM1095.21 345.24H1078.38C1077.58 345.24 1076.82 344.924 1076.26 344.361C1075.7 343.798 1075.38 343.035 1075.38 342.24C1075.38 341.444 1075.7 340.681 1076.26 340.118C1076.82 339.556 1077.58 339.24 1078.38 339.24H1095.21C1096.01 339.24 1096.77 339.556 1097.33 340.118C1097.89 340.681 1098.21 341.444 1098.21 342.24C1098.21 343.035 1097.89 343.798 1097.33 344.361C1096.77 344.924 1096.01 345.24 1095.21 345.24ZM1095.21 335.93H1078.38C1077.58 335.93 1076.82 335.614 1076.26 335.051C1075.7 334.488 1075.38 333.725 1075.38 332.93C1075.38 332.134 1075.7 331.371 1076.26 330.808C1076.82 330.246 1077.58 329.93 1078.38 329.93H1095.21C1096.01 329.93 1096.77 330.246 1097.33 330.808C1097.89 331.371 1098.21 332.134 1098.21 332.93C1098.21 333.725 1097.89 334.488 1097.33 335.051C1096.77 335.614 1096.01 335.93 1095.21 335.93Z" fill="#0E1C36"/>
<path d="M870.32 479.77H581.27C580.88 484.1 580.54 488.43 580.27 492.71C578.66 519.82 576.37 543.36 574.72 564.3H870.32C874.913 564.3 879.318 562.479 882.57 559.236C885.823 555.993 887.657 551.592 887.67 547V497.13C887.671 494.85 887.223 492.593 886.352 490.487C885.481 488.381 884.203 486.467 882.592 484.855C880.98 483.243 879.067 481.964 876.962 481.091C874.856 480.219 872.599 479.77 870.32 479.77Z" fill="#0E1C36"/>
<path d="M974.62 723.22H739.26C728.214 723.22 719.26 732.174 719.26 743.22V845.4C719.26 856.445 728.214 865.4 739.26 865.4H974.62C985.665 865.4 994.62 856.445 994.62 845.4V743.22C994.62 732.174 985.665 723.22 974.62 723.22Z" stroke="#0E1C36" stroke-width="6" stroke-linecap="round" stroke-linejoin="round"/>
<path d="M786.54 811.3C802.264 811.3 815.01 798.553 815.01 782.83C815.01 767.106 802.264 754.36 786.54 754.36C770.817 754.36 758.07 767.106 758.07 782.83C758.07 798.553 770.817 811.3 786.54 811.3Z" stroke="#0E1C36" stroke-width="6" stroke-linecap="round" stroke-linejoin="round"/>
<path d="M946.07 811.93H910.45C906.882 811.93 903.99 814.822 903.99 818.39V821.99C903.99 825.557 906.882 828.45 910.45 828.45H946.07C949.638 828.45 952.53 825.557 952.53 821.99V818.39C952.53 814.822 949.638 811.93 946.07 811.93Z" stroke="#0E1C36" stroke-width="6" stroke-linecap="round" stroke-linejoin="round"/>
<path d="M725.31 751.74C737.189 751.74 746.82 742.109 746.82 730.23C746.82 718.35 737.189 708.72 725.31 708.72C713.43 708.72 703.8 718.35 703.8 730.23C703.8 742.109 713.43 751.74 725.31 751.74Z" fill="#8226f7"/>
<path d="M833.62 778.37L949.68 778.7" stroke="#0E1C36" stroke-width="6" stroke-linecap="round" stroke-linejoin="round"/>
<path d="M834.899 793.02L950.959 793.349" stroke="#0E1C36" stroke-width="6" stroke-linecap="round" stroke-linejoin="round"/>
<path d="M1213.22 425.784L1006.02 425.241C994.044 425.21 984.308 434.895 984.276 446.874L983.827 618.614C983.795 630.593 993.481 640.329 1005.46 640.361L1212.66 640.903C1224.64 640.934 1234.37 631.249 1234.41 619.27L1234.86 447.531C1234.89 435.551 1225.2 425.815 1213.22 425.784Z" stroke="#0E1C36" stroke-width="6" stroke-linecap="round" stroke-linejoin="round"/>
<path d="M1192.5 528.37H1148.05C1144.97 528.37 1142.48 530.864 1142.48 533.94V579.19C1142.48 582.266 1144.97 584.76 1148.05 584.76H1192.5C1195.58 584.76 1198.07 582.266 1198.07 579.19V533.94C1198.07 530.864 1195.58 528.37 1192.5 528.37Z" stroke="#0E1C36" stroke-width="6" stroke-linecap="round" stroke-linejoin="round"/>
<path d="M1182.52 472.344L1037.8 471.965C1033.13 471.953 1029.34 475.727 1029.33 480.393L1029.27 503.173C1029.26 507.84 1033.03 511.633 1037.7 511.645L1182.42 512.024C1187.08 512.036 1190.88 508.263 1190.89 503.596L1190.95 480.816C1190.96 476.15 1187.19 472.357 1182.52 472.344Z" stroke="#0E1C36" stroke-width="6" stroke-linecap="round" stroke-linejoin="round"/>
<path d="M1031.29 582.89L1122.81 583.15" stroke="#0E1C36" stroke-width="6" stroke-linecap="round" stroke-linejoin="round"/>
<path d="M1031.35 559.01L1122.87 559.27" stroke="#0E1C36" stroke-width="6" stroke-linecap="round" stroke-linejoin="round"/>
<path d="M1031.42 535.13L1122.94 535.4" stroke="#0E1C36" stroke-width="6" stroke-linecap="round" stroke-linejoin="round"/>
<path d="M994.25 453.19C1006.13 453.19 1015.76 443.56 1015.76 431.68C1015.76 419.8 1006.13 410.17 994.25 410.17C982.371 410.17 972.74 419.8 972.74 431.68C972.74 443.56 982.371 453.19 994.25 453.19Z" fill="#8226f7"/>
<path d="M281.63 667.57H29.8501C21.5769 667.57 14.8701 674.277 14.8701 682.55V750.86C14.8701 759.133 21.5769 765.84 29.8501 765.84H281.63C289.903 765.84 296.61 759.133 296.61 750.86V682.55C296.61 674.277 289.903 667.57 281.63 667.57Z" stroke="#0E1C36" stroke-width="6" stroke-linecap="round" stroke-linejoin="round"/>
<path d="M52.5703 705.37H254.44" stroke="#0E1C36" stroke-width="6" stroke-linecap="round" stroke-linejoin="round"/>
<path d="M52.5703 727.06H230.8" stroke="#0E1C36" stroke-width="6" stroke-linecap="round" stroke-linejoin="round"/>
<path d="M21.51 692.75C33.3896 692.75 43.02 683.12 43.02 671.24C43.02 659.36 33.3896 649.73 21.51 649.73C9.63035 649.73 0 659.36 0 671.24C0 683.12 9.63035 692.75 21.51 692.75Z" fill="#8226f7"/>
<path d="M823 184.43C813.63 73.63 716.23 -8.62 605.43 0.719998C494.63 10.06 412.43 107.46 421.73 218.26C424.367 249.851 434.439 280.371 451.123 307.327C467.808 334.282 490.631 356.909 517.73 373.36L498.57 404.66C513.72 416.72 526.33 431.01 533.28 439.52L539.1 445.23C539.1 435.79 540.72 391.4 568.03 387.86C577.24 386.66 582.28 391.05 584.76 399.16C602.718 402.567 621.057 403.509 639.27 401.96C750.07 392.62 832.31 295.23 823 184.43ZM635.46 356.79C604.715 359.383 573.892 352.8 546.888 337.875C519.884 322.949 497.912 300.351 483.752 272.939C469.591 245.526 463.877 214.53 467.333 183.87C470.788 153.21 483.258 124.263 503.166 100.69C523.073 77.117 549.523 59.9767 579.172 51.4366C608.821 42.8965 640.336 43.3401 669.733 52.7114C699.129 62.0827 725.087 79.9607 744.323 104.085C763.559 128.209 775.209 157.495 777.8 188.24C781.275 229.466 768.231 270.385 741.537 301.994C714.843 333.603 676.686 353.313 635.46 356.79Z" fill="#8226f7"/>
<path d="M539.12 447C539.12 447 537.45 391.83 568.03 387.87C598.61 383.91 583.32 441.51 580.29 492.72C577.26 543.93 571.78 582.41 572.8 614.72C573.82 647.03 617.26 944.14 617.26 944.14L418.77 944.79L421 661.11C421 661.11 332.11 597.4 335.22 505C341.32 430.43 393.97 395.93 439.65 384.4C485.33 372.87 539.12 447 539.12 447Z" stroke="#0E1C36" stroke-width="6" stroke-linecap="round" stroke-linejoin="round"/>
<path d="M325.16 658.72C320.96 665.52 327.09 676.93 338.86 684.2L345 688C356.77 695.27 369.71 695.66 373.91 688.86L424.91 604.73L379.58 570.47L325.16 658.72Z" fill="#8226f7"/>
<path d="M370.33 564.06C370.33 564.06 433.24 614.28 457.33 619.42C481.42 624.56 498.81 618.91 502.12 602.84C505.43 586.77 452.47 539.36 403.89 519.92" stroke="#0E1C36" stroke-width="6" stroke-linecap="round" stroke-linejoin="round"/>
<path d="M417.74 467.881C417.74 467.881 479.91 496.811 512.74 535.541C544.24 570.211 528.2 611.171 500.6 594.961" stroke="#0E1C36" stroke-width="6" stroke-linecap="round" stroke-linejoin="round"/>
<path d="M425.3 423.4C425.3 423.4 502.84 448.08 534.2 503C565.56 557.92 529 566 529 566" stroke="#0E1C36" stroke-width="6" stroke-linecap="round" stroke-linejoin="round"/>
<path d="M538.83 445.11C574.54 509.45 542.83 521.88 542.83 521.88" stroke="#0E1C36" stroke-width="6" stroke-linecap="round" stroke-linejoin="round"/>
<path d="M4.7998 945.52H1363.75" stroke="#0E1C36" stroke-width="6" stroke-linecap="round" stroke-linejoin="round"/>
</g>
<defs>
<clipPath id="clip0_1_3159">
<rect width="1366.75" height="948.52" fill="white"/>
</clipPath>
</defs>
</svg>
