<svg width="145" height="108" viewBox="0 0 145 108" fill="none" xmlns="http://www.w3.org/2000/svg">
<path d="M74.6528 107.28C104.218 107.28 128.187 83.3113 128.187 53.6402C128.187 23.9692 104.113 0 74.6528 0C45.0873 0 21.1182 23.9692 21.1182 53.6402C21.1182 83.3113 45.0873 107.28 74.6528 107.28Z" fill="#EAEEF9"/>
<path d="M134.984 36.645C137.374 36.645 139.313 34.7068 139.313 32.3158C139.313 29.9248 137.374 27.9866 134.984 27.9866C132.593 27.9866 130.654 29.9248 130.654 32.3158C130.654 34.7068 132.593 36.645 134.984 36.645Z" fill="#F1F3F9"/>
<path d="M141.319 19.7505C142.952 19.7505 144.275 18.4268 144.275 16.7939C144.275 15.1611 142.952 13.8374 141.319 13.8374C139.686 13.8374 138.362 15.1611 138.362 16.7939C138.362 18.4268 139.686 19.7505 141.319 19.7505Z" fill="#F1F3F9"/>
<path d="M23.5469 18.4783C25.1797 18.4783 26.5034 17.1546 26.5034 15.5217C26.5034 13.8889 25.1797 12.5652 23.5469 12.5652C21.914 12.5652 20.5903 13.8889 20.5903 15.5217C20.5903 17.1546 21.914 18.4783 23.5469 18.4783Z" fill="#EAEEF9"/>
<path d="M5.49073 75.4977C8.52318 75.4977 10.9815 73.0394 10.9815 70.007C10.9815 66.9745 8.52318 64.5162 5.49073 64.5162C2.45828 64.5162 0 66.9745 0 70.007C0 73.0394 2.45828 75.4977 5.49073 75.4977Z" fill="#EAEEF9"/>
<path d="M85.5262 68.1928V88.5045C85.5262 90.2707 84.4985 92.037 83.0304 92.9201L67.4679 101.898C66.587 102.487 65.4125 102.782 64.3848 102.782V77.4656L84.7921 65.6907C85.2326 66.4266 85.5262 67.3097 85.5262 68.1928Z" fill="#F2F5FE"/>
<path d="M64.3846 77.4656V102.782C63.3569 102.782 62.3292 102.487 61.3015 101.898L45.739 92.9201C44.1241 92.037 43.2432 90.4179 43.2432 88.5045V68.1928C43.2432 67.3097 43.5368 66.4266 43.9772 65.6907L64.3846 77.4656Z" fill="#D5DDEA"/>
<path d="M84.7921 65.6908L64.3848 77.4657L43.8306 65.5437C44.271 64.8077 44.8583 64.0718 45.7392 63.6302L61.7421 54.3575C63.2102 53.4744 65.1188 53.4744 66.7338 54.2103L83.1772 63.7774C83.1772 63.7774 83.1772 63.7774 83.324 63.7774C83.9112 64.3662 84.4985 64.9549 84.7921 65.6908Z" fill="white"/>
<path d="M127.809 68.1928V88.5045C127.809 90.2707 126.782 92.037 125.314 92.9201L109.751 101.898C108.87 102.487 107.696 102.782 106.668 102.782V77.4656L127.075 65.6907C127.516 66.4266 127.809 67.3097 127.809 68.1928Z" fill="#F2F5FE"/>
<path d="M106.668 77.4656V102.782C105.64 102.782 104.612 102.487 103.585 101.898L88.0222 92.9201C86.4073 92.037 85.5264 90.4179 85.5264 88.5045V68.1928C85.5264 67.3097 85.82 66.4266 86.2604 65.6907L106.668 77.4656Z" fill="#D5DDEA"/>
<path d="M127.075 65.6908L106.668 77.4657L86.1138 65.5437C86.5542 64.8077 87.1415 64.0718 88.0224 63.6302L104.025 54.3575C105.493 53.4744 107.402 53.4744 109.017 54.2103L125.46 63.7774C125.46 63.7774 125.46 63.7774 125.607 63.7774C126.194 64.3662 126.782 64.9549 127.075 65.6908Z" fill="white"/>
<path d="M64.2381 29.7773V50.089C64.2381 51.8552 63.2104 53.6214 61.7423 54.5045L46.1798 63.4829C45.2989 64.0716 44.1244 64.366 43.0967 64.366V39.05L63.5041 27.2751C64.0913 28.0111 64.2381 28.8942 64.2381 29.7773Z" fill="#F2F5FE"/>
<path d="M43.0965 39.05V64.366C42.0688 64.366 41.0411 64.0716 40.0134 63.4829L24.4509 54.5045C22.836 53.6214 21.9551 52.0024 21.9551 50.089V29.7773C21.9551 28.8942 22.2487 28.0111 22.6892 27.2751L43.0965 39.05Z" fill="#D5DDEA"/>
<path d="M63.6505 27.275L43.2432 39.0498L22.689 27.1278C23.1294 26.3918 23.7167 25.6559 24.5976 25.2143L40.6005 15.9416C42.0686 15.0585 43.9772 15.0585 45.5922 15.7944L61.8887 25.5087C61.8887 25.5087 61.8887 25.5087 62.0356 25.5087C62.6228 25.9503 63.2101 26.539 63.6505 27.275Z" fill="white"/>
<path d="M109.311 29.3358V52.0024C109.311 54.063 108.283 55.9765 106.374 57.0068L88.9031 67.1626C87.8754 67.7513 86.7009 68.0457 85.5264 68.0457V39.6388L108.576 26.3921C109.017 27.2752 109.311 28.3055 109.311 29.3358Z" fill="#F2F5FE"/>
<path d="M85.5262 39.6388V57.5955V68.0457C84.3516 68.0457 83.1771 67.7513 82.1494 67.1626L74.515 62.747L64.5315 57.0067C62.7697 55.9764 61.742 54.063 61.5952 52.1496V29.1886C61.5952 28.1583 61.8888 27.128 62.3293 26.2449L85.5262 39.6388Z" fill="#D5DDEA"/>
<path d="M108.429 26.3921L85.3792 39.6388L62.3291 26.2449C62.7695 25.3618 63.5036 24.6258 64.3845 24.1843L82.296 13.7341C84.0578 12.7038 86.1132 12.7038 87.875 13.5869L106.374 24.3315C106.374 24.3315 106.521 24.3315 106.521 24.4787C107.402 25.0674 107.989 25.6561 108.429 26.3921Z" fill="white"/>
<path fill-rule="evenodd" clip-rule="evenodd" d="M108.206 11.7656C108.856 11.7656 109.383 12.2922 109.383 12.9418V19.9987C109.383 20.6483 108.856 21.1749 108.206 21.1749C107.557 21.1749 107.03 20.6483 107.03 19.9987V12.9418C107.03 12.2922 107.557 11.7656 108.206 11.7656Z" fill="#989FB0"/>
<path fill-rule="evenodd" clip-rule="evenodd" d="M123.936 12.1101C124.396 12.5694 124.396 13.3141 123.936 13.7735L115.311 22.3986C114.852 22.8579 114.107 22.8579 113.648 22.3986C113.188 21.9393 113.188 21.1946 113.648 20.7353L122.273 12.1101C122.732 11.6508 123.477 11.6508 123.936 12.1101Z" fill="#989FB0"/>
<path fill-rule="evenodd" clip-rule="evenodd" d="M114.087 28.624C114.087 27.9745 114.614 27.4479 115.264 27.4479H123.105C123.754 27.4479 124.281 27.9745 124.281 28.624C124.281 29.2736 123.754 29.8002 123.105 29.8002H115.264C114.614 29.8002 114.087 29.2736 114.087 28.624Z" fill="#989FB0"/>
<path d="M96.9656 42.7842C96.7253 43.8023 96.3648 44.8804 95.9443 45.7788C94.8027 47.9948 93.0003 49.7317 90.7772 50.8696C88.4942 52.0076 85.7905 52.4867 83.0868 51.8878C76.7182 50.5702 72.6326 44.3414 73.9544 37.9928C75.2762 31.6442 81.4646 27.5116 87.8333 28.8891C90.1164 29.3683 92.099 30.5062 93.7813 32.0634C96.6052 34.8784 97.8068 38.9511 96.9656 42.7842Z" fill="url(#paint0_linear)"/>
<path d="M89.1596 39.3733H86.4797V36.6934C86.4797 36.1575 86.0628 35.681 85.4673 35.681C84.9314 35.681 84.4549 36.0979 84.4549 36.6934V39.3733H81.7751C81.2391 39.3733 80.7627 39.7901 80.7627 40.3857C80.7627 40.9812 81.1796 41.398 81.7751 41.398H84.4549V44.0779C84.4549 44.6139 84.8718 45.0903 85.4673 45.0903C86.0033 45.0903 86.4797 44.6734 86.4797 44.0779V41.398H89.1596C89.6955 41.398 90.172 40.9812 90.172 40.3857C90.172 39.7901 89.6955 39.3733 89.1596 39.3733Z" fill="white"/>
<defs>
<linearGradient id="paint0_linear" x1="73.6953" y1="40.3882" x2="97.2335" y2="40.3882" gradientUnits="userSpaceOnUse">
<stop stop-color="#B0BACC"/>
<stop offset="1" stop-color="#969EAE"/>
</linearGradient>
</defs>
</svg>
