<svg width="1379" height="494" viewBox="0 0 1379 494" fill="none" xmlns="http://www.w3.org/2000/svg">
<g clip-path="url(#clip0_1_2110)">
<path d="M138.06 133.679C120.811 128.084 103.03 124.283 85 122.339" stroke="#0E1C36" stroke-width="6" stroke-linecap="round" stroke-linejoin="round"/>
<path d="M243.65 188.75C243.65 188.75 235.04 183.23 225.13 176.6" stroke="#0E1C36" stroke-width="6" stroke-linecap="round" stroke-linejoin="round"/>
<path d="M76.15 80.6795C62.23 84.1895 65.15 94.6295 71.64 104.34C62.83 97.3395 52.82 94.0995 46.98 107.82C41.27 121.23 51.72 125.16 63.63 125.75C52.58 128.47 43.78 134.48 51.21 147.53C65.65 172.92 89.21 123.63 89.21 123.63H89.1C90.77 118.28 104.43 73.5495 76.15 80.6795ZM89 123.62H88.59L88.91 123.55L89 123.62Z" fill="#F49E4C"/>
<path d="M113.17 127.069L96.0601 136.569" stroke="#0E1C36" stroke-width="6" stroke-linecap="round" stroke-linejoin="round"/>
<path d="M124.26 129.35L119.41 106.6" stroke="#0E1C36" stroke-width="6" stroke-linecap="round" stroke-linejoin="round"/>
<path d="M217.75 142.16L174.31 143.8C173.46 150.69 169.76 166.9 153.58 167.4C137.82 167.88 131.29 155.08 132.34 145.4H132.22L96.8301 146.74C95.6401 146.784 94.4704 147.062 93.3878 147.558C92.3053 148.054 91.3313 148.759 90.5214 149.632C89.7115 150.505 89.0817 151.529 88.6679 152.646C88.2542 153.763 88.0646 154.95 88.1101 156.14L90.4901 219.14C90.5339 220.33 90.812 221.5 91.3082 222.582C91.8045 223.665 92.5093 224.639 93.3824 225.449C94.2554 226.259 95.2795 226.888 96.3962 227.302C97.5129 227.716 98.7001 227.905 99.8901 227.86L220.81 223.3C223.212 223.206 225.478 222.164 227.113 220.402C228.747 218.64 229.617 216.302 229.53 213.9L227.15 150.9C227.109 149.708 226.833 148.536 226.338 147.451C225.843 146.367 225.138 145.39 224.265 144.578C223.391 143.766 222.366 143.135 221.249 142.72C220.131 142.305 218.942 142.114 217.75 142.16Z" fill="#F49E4C"/>
<path d="M222 146.12L171.12 191.57C168.324 194.056 164.763 195.51 161.026 195.692C157.29 195.874 153.604 194.772 150.58 192.57L92 150.1" stroke="#0E1C36" stroke-width="6" stroke-linecap="round" stroke-linejoin="round"/>
<path d="M894.6 476.48L882 359.12C881.58 355.367 880.19 351.788 877.966 348.735C875.743 345.683 872.763 343.261 869.32 341.71C854.91 335.31 829.98 315.42 816.65 253.71C814.72 244.79 812.87 236.92 811.11 229.98C809.28 241.7 806.25 252.92 799.63 263.03C796.63 272.98 792.88 285.41 787.97 300.76C783.06 316.11 781.78 329.42 782.49 340.68L845.06 371.24C847.721 372.542 850.035 374.457 851.81 376.829C853.585 379.2 854.771 381.96 855.27 384.88L870.89 480.52C871.421 483.665 873.179 486.471 875.778 488.32C878.377 490.17 881.605 490.91 884.75 490.38C887.896 489.85 890.702 488.091 892.551 485.492C894.4 482.893 895.141 479.665 894.61 476.52L894.6 476.48Z" stroke="#0E1C36" stroke-width="6" stroke-linecap="round" stroke-linejoin="round"/>
<path d="M368.38 376.88C368.076 373.241 368.811 369.59 370.5 366.352C372.189 363.115 374.762 360.423 377.92 358.59C396.97 347.53 435.52 325.12 438.92 322.91C434.636 312.743 431.171 302.249 428.56 291.53C427.758 290.665 427.016 289.746 426.34 288.78L425.56 287.61L425.49 287.82L407.41 271.32C365 331.4 278.68 451 278.68 451C276.253 453.567 274.901 456.967 274.901 460.5C274.901 464.033 276.253 467.432 278.68 470C281.103 472.54 284.401 474.063 287.906 474.26C291.41 474.457 294.858 473.313 297.55 471.06L370.36 396C369.53 388.73 368.82 382.05 368.38 376.88Z" stroke="#0E1C36" stroke-width="6" stroke-linecap="round" stroke-linejoin="round"/>
<path d="M878.51 480.95L876.82 464.12" stroke="#0E1C36" stroke-width="5" stroke-linecap="round" stroke-linejoin="round"/>
<path d="M886.46 480.149L884.77 463.319" stroke="#0E1C36" stroke-width="5" stroke-linecap="round" stroke-linejoin="round"/>
<path d="M281.35 458.18L291.38 444.56" stroke="#0E1C36" stroke-width="5" stroke-linecap="round" stroke-linejoin="round"/>
<path d="M287.78 462.91L297.81 449.29" stroke="#0E1C36" stroke-width="5" stroke-linecap="round" stroke-linejoin="round"/>
<path d="M223.86 68.1798L232.34 70.5498C232.34 70.5498 251.71 45.6998 262.11 53.0498C268.79 57.7498 263.22 69.6497 258.37 77.5898L475.25 126C483.91 119.43 492.11 110.64 500.83 100.91C528.01 70.5598 599.91 132.09 636.53 77.0598C673.15 22.0298 598.22 -10.2402 563.68 2.93976C499.29 27.4998 517.52 49.9398 469.68 30.1398C423.41 10.9198 388.48 28.0598 365.52 42.2898C342.4 56.6198 327.9 30.3998 281.7 29.5598C252.89 28.9998 233.65 48.9398 223.27 63.9998C223.551 65.3799 223.748 66.7758 223.86 68.1798Z" fill="#0E1C36"/>
<path d="M1156.52 162.69C1154.52 142.69 1131.94 131.76 1115.22 142.84C1072 171.5 1000.81 159.54 981 145C898.75 89.8199 847.51 102.67 809.66 124.58C796.5 132.2 787.66 140.38 781.66 147.97C791.921 156.069 800.141 166.46 805.66 178.31C816.76 177.31 836.31 179.86 865.71 197.87C915.65 228.48 967.61 347.03 1084.21 294.25C1152 263.52 1160.92 205.71 1156.52 162.69Z" fill="#0E1C36"/>
<path d="M751 130.91C706.19 114.34 646.27 151.12 476.28 127.7L258.37 77.59C263.22 69.65 268.79 57.75 262.11 53.05C251.71 45.7 232.34 70.55 232.34 70.55L223.86 68.18C223.86 68.18 222.61 46.46 207.21 45.18C201.54 44.79 196.21 45.63 201.68 70.45C194.62 71.69 142.53 129.59 135.34 137.82C128.15 146.05 133 168 153.58 167.4C174.16 166.8 174.58 140.74 174.58 140.74C174.58 140.74 221.71 141.54 242.52 120.74L425.52 287.8L425.59 287.59L426.37 288.76C427.046 289.727 427.788 290.645 428.59 291.51C431.216 302.238 434.698 312.738 439 322.91C435.57 325.12 397 347.53 378 358.59C374.842 360.423 372.269 363.115 370.58 366.353C368.891 369.59 368.156 373.241 368.46 376.88C369.87 393.55 374.11 425.96 376.24 441.83C376.608 444.573 377.76 447.152 379.556 449.257C381.353 451.363 383.719 452.905 386.37 453.7L427.86 464.76C430.768 465.586 433.881 465.27 436.563 463.876C439.245 462.483 441.293 460.117 442.288 457.263C443.284 454.409 443.151 451.282 441.917 448.523C440.683 445.764 438.441 443.581 435.65 442.42C428.21 439.37 414.94 435.29 410.01 433.42C408.161 432.734 406.549 431.528 405.369 429.947C404.189 428.366 403.492 426.478 403.36 424.51L400.96 388.02C400.77 385.605 401.483 383.205 402.961 381.286C404.439 379.366 406.577 378.063 408.96 377.63L482.48 364.37C490.279 362.961 497.445 359.157 502.982 353.487C508.518 347.816 512.149 340.561 513.37 332.73L516.2 314.53C576.62 317.88 653.43 311.63 705.31 304.7C704.148 311.941 705.609 319.36 709.43 325.62L742.52 378.46C744.766 382.078 745.956 386.252 745.956 390.51C745.956 394.768 744.766 398.942 742.52 402.56L700.31 470.51C699.329 472.185 698.762 474.07 698.658 476.008C698.553 477.946 698.914 479.881 699.71 481.652C700.505 483.422 701.713 484.977 703.232 486.185C704.75 487.394 706.536 488.222 708.44 488.6C710.664 489.038 712.966 488.846 715.086 488.046C717.206 487.245 719.061 485.868 720.44 484.07L787.44 403.07C791.013 398.718 793.235 393.416 793.832 387.817C794.429 382.219 793.375 376.567 790.8 371.56C783.64 357.7 777.33 334 788 300.71C792.91 285.36 796.71 272.93 799.66 262.98C807.91 250.37 810.59 236.05 812.32 221.17C816.59 184 796.33 147.67 751 130.91ZM735.29 176.17C734.06 191.87 711.44 193.27 711.44 193.27C711.44 193.27 692.16 182.12 698.04 167.51C703.92 152.9 717.12 160.2 717.39 167.35L718.08 167.43C721.43 161.14 736.5 160.47 735.27 176.17H735.29Z" stroke="#0E1C36" stroke-width="6" stroke-linecap="round" stroke-linejoin="round"/>
<path d="M430.73 457.88L413.54 452.98" stroke="#0E1C36" stroke-width="5" stroke-linecap="round" stroke-linejoin="round"/>
<path d="M433.04 449.76L415.85 444.86" stroke="#0E1C36" stroke-width="5" stroke-linecap="round" stroke-linejoin="round"/>
<path d="M705.3 478.33L714.51 465.93" stroke="#0E1C36" stroke-width="5" stroke-linecap="round" stroke-linejoin="round"/>
<path d="M711.15 482.67L720.36 470.28" stroke="#0E1C36" stroke-width="5" stroke-linecap="round" stroke-linejoin="round"/>
<path d="M200.11 94.1298C200.11 94.1298 199.11 104.35 208.4 103.61C217.69 102.87 216.14 93.2598 216.14 93.2598" stroke="#0E1C36" stroke-width="6" stroke-linecap="round" stroke-linejoin="round"/>
<path d="M177.15 95.8999C177.15 95.8999 182.98 100.46 187.63 91.1499L177.15 95.8999Z" fill="white"/>
<path d="M177.15 95.8999C177.15 95.8999 182.98 100.46 187.63 91.1499" stroke="#0E1C36" stroke-width="6" stroke-linecap="round" stroke-linejoin="round"/>
<path d="M204.25 48.1597C207.12 51.5897 214.7 59.9997 215 67.9997L204.25 48.1597Z" fill="white"/>
<path d="M204.25 48.1597C207.12 51.5897 214.7 59.9997 215 67.9997" stroke="#0E1C36" stroke-width="6" stroke-linecap="round" stroke-linejoin="round"/>
<path d="M262 55.6499C249.76 58.8299 240.22 75.4899 240.22 75.4899L262 55.6499Z" fill="white"/>
<path d="M262 55.6499C249.76 58.8299 240.22 75.4899 240.22 75.4899" stroke="#0E1C36" stroke-width="6" stroke-linecap="round" stroke-linejoin="round"/>
<path d="M160.733 139.191C160.954 137.415 160.046 135.84 158.703 135.672C157.36 135.504 156.092 136.808 155.87 138.583C155.649 140.359 156.557 141.934 157.9 142.102C159.243 142.27 160.511 140.966 160.733 139.191Z" stroke="#0E1C36" stroke-width="6" stroke-linecap="round" stroke-linejoin="round"/>
<path d="M149.174 142.524C149.396 140.749 148.487 139.173 147.144 139.005C145.802 138.838 144.534 140.141 144.312 141.917C144.09 143.692 144.999 145.268 146.341 145.436C147.684 145.603 148.952 144.3 149.174 142.524Z" stroke="#0E1C36" stroke-width="6" stroke-linecap="round" stroke-linejoin="round"/>
<path d="M953.79 490.75C953.79 490.75 964.86 395.26 1072.79 409.1C1072.79 409.1 1107.39 296.91 1213.97 339.86C1213.97 339.86 1258.26 228.63 1375.91 279.86V489.31" stroke="#0E1C36" stroke-width="6" stroke-linecap="round" stroke-linejoin="round"/>
<path d="M513 315C514.16 304.88 511 273.84 511.63 274.71C512.26 275.58 555.49 314.58 606.63 313.98C606.6 313.93 516.45 319.43 513 315Z" fill="#0E1C36"/>
<path d="M716.77 272.1C703.89 285.02 680.24 303.5 649.36 310.87C649.36 310.87 685.79 308.45 708.16 305.4C708.26 304.8 713.56 282.51 716.77 272.1Z" fill="#0E1C36"/>
<path d="M252.6 93.2598C252.332 98.2701 251.049 103.174 248.83 107.674C246.611 112.174 243.502 116.177 239.69 119.44C251.46 130.2 272.25 148.03 272.28 147.94C283.77 118.07 262.63 101.43 252.6 93.2598Z" fill="#0E1C36"/>
<path d="M3 490.75H1375.94" stroke="#0E1C36" stroke-width="6" stroke-linecap="round" stroke-linejoin="round"/>
</g>
<defs>
<clipPath id="clip0_1_2110">
<rect width="1378.94" height="493.75" fill="white"/>
</clipPath>
</defs>
</svg>
