<svg width="1139" height="761" viewBox="0 0 1139 761" fill="none" xmlns="http://www.w3.org/2000/svg">
<g clip-path="url(#clip0_1_3082)">
<path d="M691.83 77.1803C691.92 78.1203 692 79.0603 692.03 79.9903C675.88 81.6603 659.73 91.1403 657.24 95.8303C656.985 96.3127 656.604 96.7166 656.137 96.9985C655.67 97.2804 655.135 97.4297 654.59 97.4303C654.102 97.4258 653.622 97.3058 653.19 97.0803C652.838 96.8962 652.527 96.6442 652.273 96.3388C652.02 96.0334 651.829 95.6808 651.713 95.3013C651.597 94.9218 651.557 94.5231 651.596 94.1281C651.635 93.7331 651.752 93.3498 651.94 93.0003C655.37 86.5203 673.13 75.7503 691.42 73.9303C691.57 74.9303 691.69 75.8303 691.79 76.7603C691.02 69.4403 688.66 61.3703 684.25 52.4403C684.5 52.9703 684.76 53.4403 685 54.0103C673.41 57.4103 659.13 63.8803 650.78 76.0103C650.504 76.4109 650.136 76.7386 649.705 76.9651C649.275 77.1915 648.796 77.31 648.31 77.3103C647.763 77.31 647.227 77.1604 646.76 76.8776C646.292 76.5948 645.91 76.1897 645.656 75.7059C645.402 75.2221 645.285 74.6781 645.317 74.1325C645.35 73.587 645.53 73.0606 645.84 72.6103C654.96 59.3603 669.84 52.2903 682.18 48.5403C682.52 49.1403 682.86 49.7303 683.18 50.3503C652.24 -8.92969 546.92 41.3503 528.1 102.72C509.28 164.09 601.62 176.72 634.04 149.93C652.44 134.77 695.69 116.92 691.83 77.1803Z" fill="#0E1C36"/>
<path d="M691.79 76.7803C691.79 76.9103 691.79 77.0503 691.79 77.1803C691.81 77.0503 691.8 76.9103 691.79 76.7803Z" fill="#0E1C36"/>
<path d="M802.18 32.34C802.18 33.1356 802.496 33.8987 803.058 34.4613C803.621 35.0239 804.384 35.34 805.18 35.34C805.975 35.34 806.738 35.0239 807.301 34.4613C807.864 33.8987 808.18 33.1356 808.18 32.34V20.67H819.85C820.645 20.67 821.408 20.3539 821.971 19.7913C822.534 19.2287 822.85 18.4656 822.85 17.67C822.85 16.8744 822.534 16.1113 821.971 15.5487C821.408 14.9861 820.645 14.67 819.85 14.67H808.18V3C808.18 2.20435 807.864 1.44129 807.301 0.87868C806.738 0.31607 805.975 0 805.18 0C804.384 0 803.621 0.31607 803.058 0.87868C802.496 1.44129 802.18 2.20435 802.18 3V14.67H790.51C789.714 14.67 788.951 14.9861 788.388 15.5487C787.826 16.1113 787.51 16.8744 787.51 17.67C787.51 18.4656 787.826 19.2287 788.388 19.7913C788.951 20.3539 789.714 20.67 790.51 20.67H802.18V32.34Z" fill="#0E1C36"/>
<path d="M313.4 110.51H301.73V98.8398C301.73 98.0442 301.414 97.2811 300.851 96.7185C300.288 96.1559 299.525 95.8398 298.73 95.8398C297.934 95.8398 297.171 96.1559 296.608 96.7185C296.046 97.2811 295.73 98.0442 295.73 98.8398V110.51H284.06C283.264 110.51 282.501 110.826 281.938 111.389C281.376 111.951 281.06 112.714 281.06 113.51C281.06 114.305 281.376 115.069 281.938 115.631C282.501 116.194 283.264 116.51 284.06 116.51H295.73V128.18C295.73 128.975 296.046 129.739 296.608 130.301C297.171 130.864 297.934 131.18 298.73 131.18C299.525 131.18 300.288 130.864 300.851 130.301C301.414 129.739 301.73 128.975 301.73 128.18V116.51H313.4C314.195 116.51 314.958 116.194 315.521 115.631C316.084 115.069 316.4 114.305 316.4 113.51C316.4 112.714 316.084 111.951 315.521 111.389C314.958 110.826 314.195 110.51 313.4 110.51Z" fill="#0E1C36"/>
<path d="M258.49 248.45H246.82V236.78C246.82 235.985 246.504 235.222 245.942 234.659C245.379 234.096 244.616 233.78 243.82 233.78C243.025 233.78 242.262 234.096 241.699 234.659C241.136 235.222 240.82 235.985 240.82 236.78V248.45H229.15C228.355 248.45 227.592 248.766 227.029 249.329C226.466 249.892 226.15 250.655 226.15 251.45C226.15 252.246 226.466 253.009 227.029 253.572C227.592 254.134 228.355 254.45 229.15 254.45H240.82V266.12C240.82 266.916 241.136 267.679 241.699 268.242C242.262 268.804 243.025 269.12 243.82 269.12C244.616 269.12 245.379 268.804 245.942 268.242C246.504 267.679 246.82 266.916 246.82 266.12V254.45H258.49C259.286 254.45 260.049 254.134 260.612 253.572C261.174 253.009 261.49 252.246 261.49 251.45C261.49 250.655 261.174 249.892 260.612 249.329C260.049 248.766 259.286 248.45 258.49 248.45Z" fill="#0E1C36"/>
<path d="M100.22 186.59H88.5499V174.92C88.5499 174.124 88.2338 173.361 87.6712 172.799C87.1086 172.236 86.3455 171.92 85.5499 171.92C84.7542 171.92 83.9912 172.236 83.4286 172.799C82.866 173.361 82.5499 174.124 82.5499 174.92V186.59H70.8799C70.0842 186.59 69.3212 186.906 68.7586 187.469C68.196 188.031 67.8799 188.794 67.8799 189.59C67.8799 190.386 68.196 191.149 68.7586 191.711C69.3212 192.274 70.0842 192.59 70.8799 192.59H82.5499V204.27C82.5499 205.066 82.866 205.829 83.4286 206.391C83.9912 206.954 84.7542 207.27 85.5499 207.27C86.3455 207.27 87.1086 206.954 87.6712 206.391C88.2338 205.829 88.5499 205.066 88.5499 204.27V192.59H100.22C101.016 192.59 101.779 192.274 102.341 191.711C102.904 191.149 103.22 190.386 103.22 189.59C103.22 188.794 102.904 188.031 102.341 187.469C101.779 186.906 101.016 186.59 100.22 186.59Z" fill="#0E1C36"/>
<path d="M180.06 367.53H168.39V355.86C168.39 355.065 168.074 354.302 167.511 353.739C166.948 353.176 166.185 352.86 165.39 352.86C164.594 352.86 163.831 353.176 163.268 353.739C162.706 354.302 162.39 355.065 162.39 355.86V367.53H150.72C149.924 367.53 149.161 367.846 148.598 368.409C148.036 368.972 147.72 369.735 147.72 370.53C147.72 371.326 148.036 372.089 148.598 372.652C149.161 373.214 149.924 373.53 150.72 373.53H162.39V385.2C162.39 385.996 162.706 386.759 163.268 387.322C163.831 387.884 164.594 388.2 165.39 388.2C166.185 388.2 166.948 387.884 167.511 387.322C168.074 386.759 168.39 385.996 168.39 385.2V373.53H180.06C180.855 373.53 181.618 373.214 182.181 372.652C182.744 372.089 183.06 371.326 183.06 370.53C183.06 369.735 182.744 368.972 182.181 368.409C181.618 367.846 180.855 367.53 180.06 367.53Z" fill="#0E1C36"/>
<path d="M32.34 297.46H20.67V285.79C20.67 284.994 20.3539 284.231 19.7913 283.669C19.2287 283.106 18.4656 282.79 17.67 282.79C16.8744 282.79 16.1113 283.106 15.5487 283.669C14.9861 284.231 14.67 284.994 14.67 285.79V297.46H3C2.20435 297.46 1.44129 297.776 0.87868 298.339C0.31607 298.901 0 299.664 0 300.46C0 301.256 0.31607 302.019 0.87868 302.581C1.44129 303.144 2.20435 303.46 3 303.46H14.67V315.13C14.67 315.926 14.9861 316.689 15.5487 317.251C16.1113 317.814 16.8744 318.13 17.67 318.13C18.4656 318.13 19.2287 317.814 19.7913 317.251C20.3539 316.689 20.67 315.926 20.67 315.13V303.46H32.34C33.1356 303.46 33.8987 303.144 34.4613 302.581C35.0239 302.019 35.34 301.256 35.34 300.46C35.34 299.664 35.0239 298.901 34.4613 298.339C33.8987 297.776 33.1356 297.46 32.34 297.46Z" fill="#0E1C36"/>
<path d="M957.22 290.36H945.55V278.69C945.55 277.895 945.234 277.132 944.671 276.569C944.109 276.006 943.346 275.69 942.55 275.69C941.754 275.69 940.991 276.006 940.429 276.569C939.866 277.132 939.55 277.895 939.55 278.69V290.36H927.87C927.074 290.36 926.311 290.676 925.749 291.239C925.186 291.802 924.87 292.565 924.87 293.36C924.87 294.156 925.186 294.919 925.749 295.482C926.311 296.044 927.074 296.36 927.87 296.36H939.55V308C939.55 308.796 939.866 309.559 940.429 310.122C940.991 310.684 941.754 311 942.55 311C943.346 311 944.109 310.684 944.671 310.122C945.234 309.559 945.55 308.796 945.55 308V296.36H957.22C958.016 296.36 958.779 296.044 959.341 295.482C959.904 294.919 960.22 294.156 960.22 293.36C960.22 292.565 959.904 291.802 959.341 291.239C958.779 290.676 958.016 290.36 957.22 290.36Z" fill="#0E1C36"/>
<path d="M997.54 422.88H985.87V411.21C985.87 410.414 985.554 409.651 984.992 409.089C984.429 408.526 983.666 408.21 982.87 408.21C982.075 408.21 981.311 408.526 980.749 409.089C980.186 409.651 979.87 410.414 979.87 411.21V422.88H968.2C967.405 422.88 966.641 423.196 966.079 423.759C965.516 424.321 965.2 425.084 965.2 425.88C965.2 426.676 965.516 427.439 966.079 428.001C966.641 428.564 967.405 428.88 968.2 428.88H979.87V440.56C979.87 441.356 980.186 442.119 980.749 442.681C981.311 443.244 982.075 443.56 982.87 443.56C983.666 443.56 984.429 443.244 984.992 442.681C985.554 442.119 985.87 441.356 985.87 440.56V428.88H997.54C998.336 428.88 999.099 428.564 999.661 428.001C1000.22 427.439 1000.54 426.676 1000.54 425.88C1000.54 425.084 1000.22 424.321 999.661 423.759C999.099 423.196 998.336 422.88 997.54 422.88Z" fill="#0E1C36"/>
<path d="M1111.37 288.43C1111.37 289.225 1111.69 289.989 1112.25 290.551C1112.81 291.114 1113.57 291.43 1114.37 291.43C1115.17 291.43 1115.93 291.114 1116.49 290.551C1117.05 289.989 1117.37 289.225 1117.37 288.43V276.76H1129C1129.8 276.76 1130.56 276.444 1131.12 275.881C1131.68 275.319 1132 274.556 1132 273.76C1132 272.964 1131.68 272.201 1131.12 271.639C1130.56 271.076 1129.8 270.76 1129 270.76H1117.33V259.09C1117.33 258.294 1117.01 257.531 1116.45 256.969C1115.89 256.406 1115.13 256.09 1114.33 256.09C1113.53 256.09 1112.77 256.406 1112.21 256.969C1111.65 257.531 1111.33 258.294 1111.33 259.09V270.76H1099.7C1098.9 270.76 1098.14 271.076 1097.58 271.639C1097.02 272.201 1096.7 272.964 1096.7 273.76C1096.7 274.556 1097.02 275.319 1097.58 275.881C1098.14 276.444 1098.9 276.76 1099.7 276.76H1111.37V288.43Z" fill="#0E1C36"/>
<path d="M829.76 486.05H818.09V474.38C818.09 473.584 817.774 472.821 817.211 472.259C816.649 471.696 815.886 471.38 815.09 471.38C814.294 471.38 813.531 471.696 812.969 472.259C812.406 472.821 812.09 473.584 812.09 474.38V486.05H800.42C799.624 486.05 798.861 486.366 798.299 486.929C797.736 487.491 797.42 488.254 797.42 489.05C797.42 489.846 797.736 490.609 798.299 491.171C798.861 491.734 799.624 492.05 800.42 492.05H812.09V503.73C812.09 504.526 812.406 505.289 812.969 505.851C813.531 506.414 814.294 506.73 815.09 506.73C815.886 506.73 816.649 506.414 817.211 505.851C817.774 505.289 818.09 504.526 818.09 503.73V492.05H829.76C830.556 492.05 831.319 491.734 831.881 491.171C832.444 490.609 832.76 489.846 832.76 489.05C832.76 488.254 832.444 487.491 831.881 486.929C831.319 486.366 830.556 486.05 829.76 486.05Z" fill="#0E1C36"/>
<path d="M1135.76 486.05H1124.09V474.38C1124.09 473.584 1123.77 472.821 1123.21 472.259C1122.65 471.696 1121.89 471.38 1121.09 471.38C1120.29 471.38 1119.53 471.696 1118.97 472.259C1118.41 472.821 1118.09 473.584 1118.09 474.38V486.05H1106.42C1105.62 486.05 1104.86 486.366 1104.3 486.929C1103.74 487.491 1103.42 488.254 1103.42 489.05C1103.42 489.846 1103.74 490.609 1104.3 491.171C1104.86 491.734 1105.62 492.05 1106.42 492.05H1118.09V503.73C1118.09 504.526 1118.41 505.289 1118.97 505.851C1119.53 506.414 1120.29 506.73 1121.09 506.73C1121.89 506.73 1122.65 506.414 1123.21 505.851C1123.77 505.289 1124.09 504.526 1124.09 503.73V492.05H1135.76C1136.56 492.05 1137.32 491.734 1137.88 491.171C1138.44 490.609 1138.76 489.846 1138.76 489.05C1138.76 488.254 1138.44 487.491 1137.88 486.929C1137.32 486.366 1136.56 486.05 1135.76 486.05Z" fill="#0E1C36"/>
<path d="M346 398C315.07 409.07 295.33 431.36 295.33 431.36L230.33 504.16C229.643 504.989 229.249 506.022 229.21 507.098C229.171 508.174 229.489 509.232 230.115 510.109C230.74 510.985 231.638 511.63 232.668 511.943C233.698 512.256 234.803 512.22 235.81 511.84L286.11 504.12C286.11 504.12 218.11 583.75 238.02 618.61C257.93 653.47 369.6 626.2 369.6 626.2L338.85 668.69C338.193 669.541 337.834 670.584 337.83 671.659C337.825 672.734 338.175 673.78 338.825 674.637C339.475 675.493 340.389 676.111 341.426 676.395C342.463 676.68 343.564 676.615 344.56 676.21L435.68 645C435.68 645 481.68 622.54 503.87 580.69L346 398Z" fill="#8226f7"/>
<path d="M131.06 538.53C139.985 538.53 147.22 531.294 147.22 522.369C147.22 513.445 139.985 506.209 131.06 506.209C122.135 506.209 114.9 513.445 114.9 522.369C114.9 531.294 122.135 538.53 131.06 538.53Z" fill="#0E1C36"/>
<path d="M378.5 435.59L146.9 519.18" stroke="#0E1C36" stroke-width="6" stroke-linecap="round" stroke-linejoin="round"/>
<path d="M150.501 692.89C159.426 692.89 166.661 685.655 166.661 676.73C166.661 667.805 159.426 660.57 150.501 660.57C141.576 660.57 134.341 667.805 134.341 676.73C134.341 685.655 141.576 692.89 150.501 692.89Z" fill="#0E1C36"/>
<path d="M416.761 479.83L165.391 667.26" stroke="#0E1C36" stroke-width="6" stroke-linecap="round" stroke-linejoin="round"/>
<path d="M313.27 761.009C322.195 761.009 329.43 753.774 329.43 744.849C329.43 735.925 322.195 728.689 313.27 728.689C304.345 728.689 297.11 735.925 297.11 744.849C297.11 753.774 304.345 761.009 313.27 761.009Z" fill="#0E1C36"/>
<path d="M456.22 527.459L320.2 730.249" stroke="#0E1C36" stroke-width="6" stroke-linecap="round" stroke-linejoin="round"/>
<path d="M927.521 78.4593L965.5 52.2393" stroke="#0E1C36" stroke-width="6" stroke-linecap="round" stroke-linejoin="round"/>
<path d="M973.57 61.2096C982.495 61.2096 989.73 53.9746 989.73 45.0496C989.73 36.1247 982.495 28.8896 973.57 28.8896C964.645 28.8896 957.41 36.1247 957.41 45.0496C957.41 53.9746 964.645 61.2096 973.57 61.2096Z" fill="#0E1C36"/>
<path d="M515.641 248.8L402.331 337.1C399.993 338.92 398.057 341.203 396.643 343.807C395.23 346.411 394.369 349.278 394.116 352.23C393.862 355.182 394.221 358.154 395.17 360.961C396.119 363.767 397.638 366.347 399.631 368.54L408.101 377.86L340.601 391.74L510.451 588.27L539.301 522.37L551.461 535.77C555.27 539.963 560.58 542.486 566.238 542.789C571.895 543.092 577.444 541.152 581.681 537.39L767.451 372.39C804.834 339.187 834.358 298.08 853.881 252.05L927.881 77.5996L758.471 117.1" stroke="#0E1C36" stroke-width="6" stroke-linecap="round" stroke-linejoin="round"/>
<path d="M699.15 272.07C698.712 272.07 698.279 271.975 697.882 271.79C697.484 271.605 697.132 271.335 696.85 271L673.17 242.73C672.907 242.429 672.707 242.079 672.581 241.7C672.455 241.321 672.406 240.92 672.437 240.522C672.468 240.123 672.578 239.735 672.761 239.38C672.944 239.025 673.196 238.71 673.502 238.453C673.809 238.197 674.163 238.004 674.545 237.887C674.927 237.769 675.328 237.729 675.726 237.769C676.123 237.809 676.509 237.927 676.86 238.118C677.211 238.309 677.521 238.568 677.77 238.88L699.52 264.88L718.41 249L686.54 211C686.273 210.7 686.068 210.35 685.938 209.97C685.809 209.59 685.756 209.188 685.785 208.788C685.814 208.387 685.922 207.996 686.105 207.639C686.287 207.281 686.539 206.963 686.847 206.705C687.154 206.447 687.51 206.252 687.894 206.134C688.277 206.016 688.681 205.976 689.08 206.016C689.48 206.057 689.867 206.177 690.219 206.37C690.571 206.563 690.881 206.825 691.13 207.14L724.93 247.5C725.44 248.109 725.687 248.895 725.617 249.686C725.548 250.477 725.168 251.209 724.56 251.72L701.08 271.39C700.536 271.836 699.853 272.076 699.15 272.07Z" fill="#0E1C36"/>
<path d="M541.09 333.66C540.654 333.66 540.224 333.565 539.828 333.382C539.433 333.199 539.082 332.932 538.8 332.6L497.7 284.27C497.283 283.781 497.034 283.172 496.989 282.531C496.944 281.891 497.106 281.252 497.45 280.711C497.795 280.169 498.305 279.752 498.904 279.521C499.504 279.291 500.161 279.259 500.78 279.43L506.47 281C507.236 281.21 507.887 281.716 508.281 282.405C508.675 283.095 508.779 283.913 508.57 284.68C508.387 285.372 507.956 285.973 507.36 286.37L541.44 326.45L560.35 310.61L547.18 294.89C546.69 294.277 546.46 293.497 546.537 292.717C546.615 291.937 546.996 291.218 547.597 290.715C548.199 290.211 548.973 289.964 549.755 290.024C550.537 290.085 551.264 290.449 551.78 291.04L566.87 309.04C567.124 309.341 567.316 309.69 567.434 310.067C567.553 310.443 567.597 310.838 567.562 311.231C567.528 311.624 567.416 312.006 567.234 312.356C567.052 312.706 566.803 313.016 566.5 313.27L543 333C542.459 333.434 541.784 333.667 541.09 333.66Z" fill="#0E1C36"/>
<path d="M524.39 390H524.12C523.341 389.922 522.623 389.541 522.12 388.94L484.49 344.02C484.237 343.718 484.046 343.368 483.928 342.992C483.81 342.615 483.768 342.219 483.803 341.826C483.838 341.434 483.951 341.051 484.134 340.702C484.317 340.353 484.567 340.043 484.87 339.79L508.35 320.12C508.653 319.867 509.002 319.676 509.379 319.558C509.755 319.44 510.151 319.398 510.544 319.433C510.937 319.468 511.319 319.581 511.669 319.764C512.018 319.947 512.328 320.197 512.58 320.5L550.2 365.41C550.454 365.712 550.646 366.061 550.765 366.437C550.883 366.813 550.927 367.209 550.892 367.602C550.858 367.995 550.747 368.377 550.564 368.727C550.382 369.077 550.133 369.387 549.83 369.64L526.34 389.31C525.793 389.764 525.102 390.009 524.39 390ZM491 342.5L524.77 382.81L543.64 367L509.87 326.68L491 342.5Z" fill="#0E1C36"/>
<path d="M754.54 272H754.32C753.532 271.949 752.795 271.59 752.27 271L714 226.6C713.741 226.301 713.544 225.955 713.42 225.58C713.295 225.205 713.246 224.809 713.275 224.415C713.303 224.021 713.41 223.637 713.587 223.284C713.765 222.931 714.011 222.617 714.31 222.36L737.48 202.36C737.779 202.101 738.125 201.903 738.5 201.779C738.875 201.654 739.271 201.605 739.665 201.634C740.059 201.663 740.443 201.769 740.796 201.947C741.148 202.125 741.463 202.37 741.72 202.67L780 247C780.518 247.604 780.779 248.386 780.73 249.18C780.682 249.972 780.323 250.712 779.73 251.24L756.56 271.24C756.005 271.735 755.285 272.006 754.54 272ZM720.45 225L754.84 264.79L773.48 248.68L739.09 208.89L720.45 225Z" fill="#0E1C36"/>
<path d="M488 319.189C487.336 319.189 486.691 318.969 486.165 318.562C485.64 318.156 485.265 317.587 485.098 316.944C484.931 316.301 484.982 315.621 485.243 315.01C485.504 314.4 485.96 313.893 486.54 313.57C491.16 311 496.59 306.97 496.22 302.42C495.66 295.56 482.95 288.78 479.59 287.57C478.838 287.328 478.212 286.8 477.847 286.1C477.482 285.4 477.407 284.584 477.64 283.829C477.754 283.448 477.943 283.093 478.195 282.786C478.448 282.478 478.759 282.224 479.111 282.038C479.463 281.852 479.848 281.737 480.245 281.702C480.641 281.666 481.04 281.709 481.42 281.829C481.61 281.889 500.9 289.47 502.17 301.63C502.83 307.95 498.56 313.73 489.46 318.79C489.015 319.045 488.513 319.183 488 319.189Z" fill="#0E1C36"/>
<path d="M687 203.24C684.45 210.57 681.445 217.734 678 224.69C644.41 287.69 560 301.16 497.84 277.78C497.094 277.498 496.268 277.525 495.542 277.853C494.816 278.181 494.251 278.784 493.97 279.53C493.689 280.275 493.715 281.101 494.043 281.827C494.371 282.553 494.974 283.118 495.72 283.4C515.663 290.781 536.764 294.54 558.03 294.5C608.25 294.5 658.69 273.67 683.3 227.5C687.334 219.344 690.786 210.913 693.63 202.27L687 203.24Z" fill="#0E1C36"/>
<path d="M695.55 161.749L701.55 160.749C701.609 157.104 701.415 153.458 700.97 149.839C700.9 149.299 695.06 150.839 695.1 151.139C695.493 154.568 695.65 158.019 695.57 161.469C695.56 161.579 695.55 161.659 695.55 161.749Z" fill="#0E1C36"/>
<path d="M465.69 424.69C465.174 424.692 464.659 424.656 464.15 424.58C461.415 424.184 458.941 422.743 457.247 420.56C455.554 418.377 454.773 415.622 455.069 412.875C455.366 410.128 456.716 407.603 458.837 405.831C460.957 404.06 463.682 403.18 466.438 403.377C469.194 403.574 471.766 404.832 473.613 406.887C475.46 408.942 476.438 411.633 476.341 414.394C476.244 417.155 475.08 419.771 473.093 421.692C471.107 423.612 468.453 424.687 465.69 424.69ZM465.69 409.29C464.469 409.375 463.33 409.931 462.512 410.84C461.693 411.749 461.26 412.941 461.303 414.163C461.345 415.386 461.861 416.544 462.741 417.393C463.621 418.243 464.796 418.718 466.02 418.718C467.243 418.718 468.418 418.243 469.298 417.393C470.178 416.544 470.694 415.386 470.737 414.163C470.78 412.941 470.346 411.749 469.528 410.84C468.709 409.931 467.57 409.375 466.35 409.29C466.123 409.269 465.896 409.269 465.67 409.29H465.69Z" fill="#0E1C36"/>
<path d="M429.31 381.23C428.795 381.233 428.28 381.196 427.77 381.12C425.675 380.819 423.716 379.904 422.141 378.491C420.566 377.077 419.446 375.228 418.922 373.178C418.398 371.127 418.494 368.967 419.197 366.971C419.901 364.975 421.181 363.233 422.875 361.964C424.568 360.695 426.601 359.957 428.714 359.844C430.827 359.73 432.927 360.245 434.747 361.325C436.567 362.405 438.027 364 438.94 365.909C439.854 367.818 440.181 369.955 439.88 372.05C439.515 374.594 438.246 376.923 436.305 378.608C434.364 380.294 431.881 381.225 429.31 381.23ZM429.31 365.83C428.185 365.831 427.098 366.235 426.245 366.969C425.392 367.703 424.83 368.718 424.66 369.83C424.484 371.064 424.805 372.318 425.553 373.316C426.302 374.314 427.416 374.973 428.65 375.15C429.885 375.326 431.139 375.005 432.136 374.257C433.134 373.508 433.794 372.394 433.97 371.16C434.058 370.548 434.024 369.924 433.87 369.325C433.716 368.727 433.446 368.164 433.074 367.67C432.703 367.176 432.237 366.76 431.704 366.446C431.172 366.131 430.582 365.926 429.97 365.84C429.741 365.821 429.51 365.817 429.28 365.83H429.31Z" fill="#0E1C36"/>
<path d="M509.621 471C509.112 471.001 508.604 470.968 508.101 470.9C506.003 470.602 504.041 469.688 502.463 468.274C500.885 466.86 499.761 465.01 499.235 462.957C498.709 460.905 498.803 458.742 499.506 456.743C500.209 454.745 501.489 452.999 503.185 451.728C504.88 450.457 506.914 449.717 509.03 449.603C511.145 449.488 513.248 450.003 515.07 451.084C516.893 452.164 518.354 453.761 519.269 455.672C520.184 457.583 520.512 459.723 520.211 461.82C519.843 464.367 518.57 466.697 516.626 468.383C514.681 470.069 512.194 470.998 509.621 471ZM509.621 455.6C508.496 455.604 507.41 456.009 506.557 456.742C505.705 457.475 505.142 458.489 504.971 459.6C504.796 460.836 505.12 462.09 505.87 463.088C506.62 464.085 507.735 464.744 508.971 464.92C510.206 465.091 511.459 464.767 512.456 464.017C513.452 463.268 514.112 462.154 514.291 460.92C514.379 460.308 514.346 459.684 514.193 459.085C514.04 458.485 513.77 457.922 513.398 457.428C513.026 456.933 512.56 456.517 512.027 456.203C511.493 455.89 510.903 455.685 510.291 455.6C510.064 455.588 509.837 455.591 509.611 455.61L509.621 455.6Z" fill="#0E1C36"/>
<path d="M554.051 517.149C553.538 517.153 553.027 517.116 552.521 517.039C550.425 516.741 548.465 515.828 546.889 514.416C545.312 513.004 544.19 511.156 543.664 509.106C543.138 507.056 543.232 504.896 543.933 502.899C544.635 500.902 545.913 499.158 547.606 497.888C549.299 496.617 551.33 495.878 553.444 495.762C555.557 495.646 557.657 496.16 559.479 497.238C561.3 498.316 562.761 499.91 563.676 501.819C564.591 503.727 564.92 505.864 564.621 507.959C564.26 510.507 562.992 512.838 561.05 514.527C559.109 516.215 556.623 517.146 554.051 517.149ZM554.051 501.749C553.306 501.749 552.572 501.926 551.909 502.266C551.246 502.605 550.673 503.097 550.238 503.701C549.802 504.305 549.517 505.004 549.404 505.741C549.292 506.477 549.356 507.229 549.592 507.936C549.827 508.642 550.227 509.283 550.759 509.804C551.29 510.326 551.938 510.714 552.649 510.936C553.36 511.158 554.113 511.208 554.847 511.081C555.581 510.955 556.275 510.656 556.871 510.209C557.368 509.841 557.787 509.377 558.103 508.845C558.419 508.313 558.626 507.723 558.711 507.109C558.882 505.874 558.557 504.621 557.808 503.624C557.058 502.627 555.945 501.968 554.711 501.789C554.475 501.76 554.238 501.746 554.001 501.749H554.051Z" fill="#0E1C36"/>
<path d="M652.91 428.88C652.487 428.881 652.069 428.792 651.683 428.62C651.297 428.447 650.952 428.195 650.67 427.88L623.6 397.65C623.224 397.234 622.973 396.72 622.875 396.168C622.776 395.616 622.834 395.048 623.043 394.527C623.251 394.007 623.601 393.555 624.053 393.223C624.505 392.891 625.041 392.693 625.6 392.65L649.79 390.51C654.95 361.22 679.64 356.51 694.15 356.31C696.141 356.279 698.111 356.731 699.889 357.628C701.668 358.525 703.202 359.84 704.36 361.46C705.551 363.105 706.33 365.011 706.631 367.019C706.932 369.028 706.747 371.079 706.09 373C695 405.82 670.09 406.54 661.71 405.78L655.8 426.78C655.654 427.298 655.372 427.766 654.984 428.138C654.595 428.509 654.114 428.769 653.59 428.89C653.364 428.911 653.136 428.908 652.91 428.88ZM632.07 398.11L651.5 419.82L656.65 401.6C656.859 400.859 657.345 400.226 658.008 399.833C658.671 399.44 659.459 399.317 660.21 399.49C661.36 399.75 688.79 405.44 700.41 371.04C700.75 370.039 700.843 368.971 700.681 367.926C700.519 366.881 700.107 365.891 699.48 365.04C698.887 364.192 698.094 363.504 697.171 363.036C696.248 362.569 695.224 362.337 694.19 362.36C678.36 362.55 658.77 368.15 655.34 393.74C655.249 394.415 654.932 395.04 654.439 395.511C653.947 395.981 653.309 396.27 652.63 396.33L632.07 398.11Z" fill="#0E1C36"/>
<path d="M749.39 357.32C748.998 357.286 748.602 357.329 748.226 357.447C747.851 357.566 747.502 357.757 747.2 358.01L723.72 377.68C723.418 377.933 723.168 378.244 722.986 378.593C722.804 378.943 722.692 379.325 722.658 379.718C722.624 380.111 722.667 380.507 722.786 380.883C722.905 381.259 723.096 381.608 723.35 381.91L737.59 398.91L742.08 394.91L729.87 380.33L748.76 364.51L760.51 378.51L765 374.51L751.43 358.31C750.906 357.726 750.173 357.37 749.39 357.32Z" fill="#0E1C36"/>
<path d="M770.86 320.15L747.38 339.82C747.077 340.072 746.827 340.382 746.644 340.731C746.461 341.081 746.348 341.463 746.313 341.856C746.278 342.249 746.32 342.645 746.438 343.021C746.556 343.398 746.747 343.747 747 344.05L769.33 370.71C770.82 369.36 772.33 368.01 773.76 366.65L753.53 342.5L772.42 326.68L791.2 349.1C792.57 347.62 793.92 346.1 795.26 344.62L775.09 320.53C774.838 320.227 774.528 319.976 774.178 319.793C773.829 319.61 773.447 319.498 773.054 319.462C772.661 319.427 772.265 319.469 771.889 319.587C771.512 319.705 771.163 319.896 770.86 320.15Z" fill="#0E1C36"/>
<path d="M635.94 450.889C635.547 450.855 635.152 450.898 634.776 451.017C634.4 451.135 634.052 451.326 633.75 451.579L610.27 471.249C609.968 471.503 609.718 471.813 609.536 472.163C609.354 472.513 609.242 472.895 609.208 473.288C609.173 473.681 609.217 474.076 609.336 474.452C609.454 474.829 609.646 475.177 609.9 475.479L627.6 496.609L632.09 492.609L616.42 473.909L635.31 458.089L650.51 476.249L655 472.249L638 451.999C637.748 451.686 637.436 451.426 637.083 451.235C636.729 451.045 636.34 450.927 635.94 450.889Z" fill="#0E1C36"/>
<path d="M590 464.53C589.748 464.227 589.438 463.976 589.088 463.793C588.739 463.61 588.357 463.498 587.964 463.462C587.571 463.427 587.175 463.469 586.799 463.587C586.422 463.705 586.073 463.896 585.77 464.15L562.29 483.82L567.71 487.11L587.32 470.68L616.97 506.07L621.46 502.07L590 464.53Z" fill="#0E1C36"/>
<path d="M742.37 133.39L736.75 135.73C762.59 176.52 801.5 230 847.15 266.9C848.037 265.053 848.913 263.193 849.78 261.32C805.57 225.2 767.75 173.34 742.37 133.39Z" fill="#0E1C36"/>
<path d="M759.71 121.09L756.61 127.28C781 164 816.35 210.38 857 243.45C857.142 243.561 857.293 243.662 857.45 243.75L859.87 238.03C819.11 204.61 783.77 157.59 759.71 121.09Z" fill="#0E1C36"/>
<path d="M540.9 519.739L409.66 375.229L402.83 376.639L538.26 525.759L540.9 519.739Z" fill="#0E1C36"/>
<path d="M412.88 328.88L595.13 525.44L599.62 521.46L417.63 325.18L412.88 328.88Z" fill="#0E1C36"/>
<path d="M462.12 329.48C472.61 329.48 484.92 325.48 497.7 312.98C498.008 312.711 498.259 312.383 498.436 312.014C498.613 311.646 498.713 311.245 498.729 310.836C498.745 310.428 498.678 310.02 498.531 309.639C498.384 309.257 498.161 308.909 497.875 308.617C497.589 308.325 497.246 308.094 496.868 307.939C496.49 307.785 496.083 307.709 495.675 307.716C495.266 307.724 494.863 307.815 494.491 307.984C494.118 308.154 493.785 308.397 493.51 308.7C462.74 338.81 436.24 314.02 435.13 312.95L434.34 312.15L429.59 315.86C431.42 317.54 445.05 329.48 462.12 329.48Z" fill="#0E1C36"/>
<path d="M648.769 141.001C648.769 141.001 726.369 111.161 748.989 113.621C771.609 116.081 752.619 129.921 749.709 131.101L630.809 173.301C630.809 173.301 627.219 156.381 648.769 141.001Z" stroke="#0E1C36" stroke-width="6" stroke-linecap="round" stroke-linejoin="round"/>
<path d="M689.739 126.16C692.519 121.75 695.229 117.46 697.369 114.16C704.589 103.05 713.77 76.6805 701.84 52.5905C692 32.6705 664.52 -2.46954 609.53 8.93046C549.93 21.2905 457.659 47.0005 464.209 127.61C470.759 208.22 531.749 186.37 531.749 186.37L513.749 261.45C532.649 279.72 627.06 270.94 655.02 219.05" stroke="#0E1C36" stroke-width="6" stroke-linecap="round" stroke-linejoin="round"/>
<path d="M670.39 168.13L672.83 159.69" stroke="#0E1C36" stroke-width="6" stroke-linecap="round" stroke-linejoin="round"/>
<path d="M488.25 314.86C491.109 312.613 493.486 309.814 495.24 306.628C496.994 303.443 498.089 299.937 498.46 296.32C500.85 273.42 491.05 233.01 455.91 214.49C414.09 192.44 380.31 207.44 363.81 246.21C347.31 284.98 378.35 298.38 412.03 250.85C412.03 250.85 426.96 228 441.42 244.74C455.88 261.48 419.5 301.25 438.18 317.13C453.78 330.4 479.85 321.39 488.25 314.86Z" fill="#8226f7"/>
<path d="M657.239 95.8303C656.985 96.3127 656.603 96.7165 656.137 96.9985C655.67 97.2804 655.135 97.4297 654.589 97.4303C654.101 97.4257 653.622 97.3058 653.189 97.0803C652.838 96.8962 652.526 96.6442 652.272 96.3388C652.019 96.0334 651.829 95.6808 651.712 95.3013C651.596 94.9218 651.556 94.523 651.595 94.128C651.634 93.7331 651.751 93.3497 651.939 93.0003C654.139 88.8603 662.189 83.0003 672.489 78.7703C670.369 73.2898 667.399 68.1773 663.689 63.6203C658.636 66.8858 654.254 71.088 650.779 76.0003C650.504 76.4009 650.135 76.7286 649.705 76.955C649.274 77.1815 648.795 77.3 648.309 77.3003C647.763 77.2999 647.227 77.1503 646.759 76.8676C646.291 76.5848 645.91 76.1797 645.655 75.6959C645.401 75.2121 645.284 74.6681 645.316 74.1225C645.349 73.5769 645.53 73.0506 645.839 72.6003C649.586 67.2733 654.277 62.6774 659.679 59.0403C642.379 40.8503 615.789 31.0403 605.899 29.5303C571.649 41.4103 537.979 70.5303 528.109 102.71C509.279 164.05 589.329 171.59 634.049 149.92C642.199 143.19 655.249 135.92 666.909 126.48C670.123 120.919 672.425 114.879 673.729 108.59C675.907 100.76 676.093 92.5102 674.269 84.5903C665.529 88.2103 658.779 92.9303 657.239 95.8303Z" fill="#8226f7"/>
<path d="M591.886 96.3328C594.588 95.2501 595.391 90.9105 593.679 86.6402C591.968 82.3699 588.39 79.7858 585.689 80.8686C582.987 81.9514 582.184 86.2909 583.896 90.5612C585.607 94.8316 589.185 97.4156 591.886 96.3328Z" fill="#0E1C36"/>
<path d="M630.815 81.7371C633.517 80.6544 634.319 76.3148 632.608 72.0445C630.896 67.7742 627.319 65.1901 624.617 66.2729C621.916 67.3557 621.113 71.6952 622.824 75.9655C624.536 80.2359 628.113 82.8199 630.815 81.7371Z" fill="#0E1C36"/>
<path d="M627 89.6601L623.15 98.2201C622.863 98.8201 622.354 99.2845 621.73 99.5143C621.106 99.744 620.417 99.721 619.81 99.4501L611.81 95.9001C611.382 95.726 611.016 95.4271 610.761 95.0423C610.505 94.6576 610.372 94.2049 610.377 93.7431C610.383 93.2813 610.527 92.8319 610.791 92.4532C611.056 92.0746 611.428 91.7843 611.86 91.6201L623.75 86.6201C624.183 86.4241 624.665 86.3609 625.135 86.4385C625.605 86.5161 626.041 86.731 626.388 87.0562C626.736 87.3814 626.98 87.8022 627.088 88.2656C627.197 88.729 627.166 89.2143 627 89.6601Z" fill="#0E1C36"/>
<path d="M621.13 96.1006C623.26 101.171 632.78 111.601 632.7 101.431" stroke="#0E1C36" stroke-width="6" stroke-linecap="round" stroke-linejoin="round"/>
<path d="M621.38 96C623.51 101.08 626.8 117.38 616.88 107.49" stroke="#0E1C36" stroke-width="6" stroke-linecap="round" stroke-linejoin="round"/>
<path d="M571.729 106.25C561.729 101.25 542.619 101.96 526.159 111.16C525.78 113.595 525.596 116.056 525.609 118.52C540.859 108.43 559.909 107.01 569.029 111.6C569.382 111.801 569.773 111.928 570.177 111.973C570.581 112.018 570.99 111.981 571.379 111.864C571.768 111.746 572.129 111.551 572.44 111.29C572.751 111.028 573.006 110.706 573.189 110.344C573.373 109.981 573.48 109.584 573.505 109.179C573.531 108.773 573.473 108.367 573.337 107.984C573.2 107.601 572.987 107.25 572.711 106.952C572.435 106.654 572.101 106.415 571.729 106.25Z" fill="#0E1C36"/>
<path d="M573.999 115.54C559.659 114.54 541.149 118.89 528.449 133.03C529.279 135.018 530.283 136.929 531.449 138.74C545.999 120.74 568.849 121.21 573.579 121.53C574.375 121.584 575.16 121.321 575.761 120.796C576.362 120.272 576.73 119.531 576.784 118.735C576.839 117.939 576.575 117.155 576.05 116.554C575.526 115.953 574.785 115.584 573.989 115.53L573.999 115.54Z" fill="#0E1C36"/>
<path d="M630.59 149.87C656.27 137.18 714.13 109.64 683.19 50.3601C652.25 -8.91992 546.93 41.3601 528.11 102.73C509.29 164.1 587.43 171.22 630.59 149.87Z" stroke="#0E1C36" stroke-width="6" stroke-linecap="round" stroke-linejoin="round"/>
<path d="M593.7 189.49C594.32 188.97 594.95 188.49 595.6 187.95C598.604 185.64 602.079 184.018 605.78 183.2C629.33 177.8 727.07 155.26 739.32 150.45C753.26 144.98 742.21 179.99 720.76 188.12C708.33 192.84 660.76 215.59 622.88 233.88C594.68 247.52 569.76 209.69 593.7 189.49Z" stroke="#0E1C36" stroke-width="6" stroke-linecap="round" stroke-linejoin="round"/>
<path d="M524.229 60.7407C535.276 46.6882 550.042 36.0143 566.849 29.9307C526.719 21.9307 497.849 19.5407 495.989 37.3707C498.129 44.4007 516.479 56.0707 524.229 60.7407Z" fill="#8226f7"/>
<path d="M531.499 52.5305C533.159 50.8605 534.829 49.2805 536.499 47.8105C515.779 42.0005 511.319 30.5705 511.089 30.0005C510.824 29.2499 510.272 28.6355 509.553 28.2923C508.835 27.9491 508.01 27.9053 507.259 28.1705C506.509 28.4357 505.894 28.9882 505.551 29.7065C505.208 30.4248 505.164 31.2499 505.429 32.0005C505.659 32.5905 510.339 45.4305 531.499 52.5305Z" fill="#0E1C36"/>
<path d="M501.77 108.901C506.43 89.5005 513.83 74.6505 522.28 63.2705C479.03 63.9005 443.28 63.6705 447.45 89.8505C455.45 110.351 500.4 111.201 500.4 111.201L501.77 108.901Z" fill="#8226f7"/>
<path d="M505.46 96.0705C496.497 97.895 487.233 97.6029 478.404 95.2176C469.575 92.8324 461.424 88.4197 454.6 82.3305C454.323 82.0372 453.991 81.8025 453.622 81.6404C453.254 81.4783 452.856 81.3921 452.453 81.387C452.051 81.3818 451.651 81.4578 451.278 81.6105C450.905 81.7631 450.567 81.9893 450.284 82.2754C450 82.5616 449.777 82.9019 449.628 83.2761C449.479 83.6502 449.407 84.0506 449.416 84.4533C449.425 84.856 449.515 85.2528 449.68 85.62C449.846 85.9872 450.084 86.3172 450.38 86.5905C462.236 97.286 477.622 103.229 493.59 103.281C496.891 103.276 500.187 103.022 503.45 102.521C504.09 100.314 504.76 98.1639 505.46 96.0705Z" fill="#0E1C36"/>
</g>
<defs>
<clipPath id="clip0_1_3082">
<rect width="1138.76" height="761.01" fill="white"/>
</clipPath>
</defs>
</svg>
