<?xml version="1.0" encoding="utf-8"?>
<!-- Generator: Adobe Illustrator 27.5.0, SVG Export Plug-In . SVG Version: 6.00 Build 0)  -->
<svg version="1.1" xmlns="http://www.w3.org/2000/svg" xmlns:xlink="http://www.w3.org/1999/xlink" x="0px" y="0px"
	 viewBox="0 0 3000 2000" style="enable-background:new 0 0 3000 2000;" xml:space="preserve">
<g id="BACKGROUND">
	<rect style="fill:#FFFFFF;" width="3000" height="2000"/>
</g>
<g id="OBJECTS">
	<g>
		<path style="opacity:0.35;fill:#E0E0FF;" d="M2739.167,787.659c-19.706-318.314-219.673-573.039-552.948-585.443
			c-98.546-3.668-195.422,15.241-287.474,49.835c-119.263,44.82-222.51,124.521-344.895,162.004
			c-170.642,52.263-344.563,34.638-520.243,38.847c-119.784,2.87-241.359,16.259-351.706,62.953
			c-461.202,195.163-405.448,794.8-256.1,1178.042c7.24,18.577,14.807,37.052,22.629,55.436h2047.409
			C2656.512,1454.635,2758.866,1105.871,2739.167,787.659z"/>
		<g>
			<rect x="708.07" y="1424.717" style="fill:#E0E0FF;" width="246.867" height="324.616"/>
			<rect x="1133.624" y="1307.415" style="fill:#E0E0FF;" width="248.219" height="441.918"/>
			<rect x="1555.178" y="1164.52" style="fill:#E0E0FF;" width="259.869" height="584.814"/>
			<rect x="2006.719" y="978.488" style="fill:#E0E0FF;" width="272.141" height="770.845"/>
			<g>
				<g>
					<path style="fill:#E0E0FF;" d="M720.387,1174.02l-0.779-48.039c71.09-1.184,265.113-19.551,490.59-80.566
						c165.242-44.717,323.607-105.08,470.701-179.412c183.594-92.779,350.066-207.721,494.785-341.633l32.633,35.262
						c-148.234,137.162-318.684,254.814-506.617,349.689c-150.199,75.826-311.844,137.352-480.438,182.871
						C934.012,1169.746,728.975,1173.883,720.387,1174.02z"/>
				</g>
				<g>
					<polygon style="fill:#E0E0FF;" points="2238.588,638.089 2090.088,489.589 2238.588,489.589 					"/>
				</g>
			</g>
		</g>
		<g>
			<g>
				<path style="fill:#FFFFFF;" d="M1907.324,657.056l-55.289-34.025c-0.452-2.233-0.969-4.465-1.609-6.693
					c-13.016-45.358-60.338-71.576-105.696-58.561c-41.411,11.883-66.85,52.362-61.062,93.834l-39.681,48.526
					c-0.608,0.743,0.119,1.823,1.037,1.54l51.228-15.837c19.811,31.1,58.366,46.883,95.615,36.194
					c29.933-8.59,51.52-32.122,59.007-60.168l55.844-2.472C1907.962,659.339,1908.385,657.709,1907.324,657.056z"/>
				<path style="fill:#8226f7;" d="M1768.219,726.89c-10.592,0-21.13-1.966-31.24-5.883c-16.854-6.529-31.503-18.365-41.369-33.398
					l-50.142,15.502c-1.053,0.326-2.166-0.071-2.778-0.981c-0.612-0.911-0.557-2.093,0.138-2.942l39.269-48.021
					c-2.68-20.334,1.978-41.04,13.145-58.38c11.395-17.694,28.824-30.639,49.077-36.451c46.084-13.222,94.328,13.508,107.552,59.589
					c0.541,1.885,1.035,3.909,1.506,6.169l54.735,33.685c1.041,0.64,1.533,1.865,1.227,3.047c-0.306,1.182-1.332,2.013-2.552,2.067
					l-54.753,2.424c-8.111,28.889-30.914,51.884-59.751,60.159C1784.343,725.754,1776.265,726.889,1768.219,726.89z
					 M1696.902,684.069l0.615,0.965c19.822,31.118,58.446,45.743,93.936,35.558c28.61-8.21,50.281-30.308,57.972-59.112l0.284-1.063
					l56.173-2.487l-55.187-33.962l-0.129-0.638c-0.495-2.442-1.012-4.593-1.58-6.577c-12.769-44.49-59.354-70.298-103.841-57.532
					c-39.936,11.459-65.726,51.09-59.99,92.184l0.091,0.649l-38.982,47.671L1696.902,684.069z"/>
			</g>
			<g>
				<g>
					<path style="fill:#FFFFFF;" d="M1791.549,634.333c0-13.289-11.521-23.888-25.121-22.352
						c-9.922,1.121-18.148,9.037-19.622,18.913c-0.897,6.012,0.607,11.637,3.675,16.109c1.195,1.742,1.809,3.812,1.809,5.925v13.904
						h33.518V652.93c0-2.088,0.582-4.148,1.769-5.867C1790.076,643.444,1791.549,639.065,1791.549,634.333z"/>
					<path style="fill:#8226f7;" d="M1787.308,668.333h-36.518v-15.404c0-1.846-0.534-3.602-1.546-5.077
						c-3.435-5.006-4.827-11.107-3.921-17.179c1.566-10.501,10.372-18.989,20.938-20.182c6.841-0.773,13.683,1.392,18.771,5.939
						c5.095,4.551,8.017,11.077,8.017,17.903c0,4.872-1.466,9.568-4.238,13.583c-0.983,1.424-1.503,3.158-1.503,5.014V668.333z
						 M1753.79,665.333h30.518V652.93c0-2.468,0.703-4.792,2.034-6.719c2.425-3.511,3.707-7.618,3.707-11.877
						c0-5.974-2.557-11.684-7.015-15.667c-4.52-4.037-10.359-5.882-16.438-5.194c-9.237,1.043-16.937,8.463-18.307,17.643
						c-0.794,5.319,0.424,10.66,3.429,15.04c1.355,1.977,2.071,4.319,2.071,6.773V665.333z"/>
				</g>
				<g>
					<rect x="1752.29" y="676.369" style="fill:#FFFFFF;" width="33.518" height="12.357"/>
					<path style="fill:#8226f7;" d="M1787.308,690.226h-36.518v-15.357h36.518V690.226z M1753.79,687.226h30.518v-9.357h-30.518
						V687.226z"/>
				</g>
				<g>
					<path style="fill:#FFFFFF;" d="M1761.049,624.833c0,0-6.5,4.25-3.25,12.25"/>
					<path style="fill:#8226f7;" d="M1756.409,637.648c-2.938-7.233,1.213-12.366,3.818-14.07l1.643,2.511l-0.821-1.255l0.827,1.252
						c-0.223,0.148-5.416,3.719-2.688,10.434L1756.409,637.648z"/>
				</g>
				<g>
					<line style="fill:#FFFFFF;" x1="1741.549" y1="612.833" x2="1722.299" y2="599.083"/>
					
						<rect x="1730.424" y="594.13" transform="matrix(0.5812 -0.8137 0.8137 0.5812 232.1748 1663.0767)" style="fill:#8226f7;" width="3" height="23.656"/>
				</g>
				<g>
					<line style="fill:#FFFFFF;" x1="1795.049" y1="611.583" x2="1814.299" y2="597.833"/>
					
						<rect x="1792.846" y="603.208" transform="matrix(0.8137 -0.5813 0.5813 0.8137 -15.2927 1161.7021)" style="fill:#8226f7;" width="23.656" height="3"/>
				</g>
				<g>
					<line style="fill:#FFFFFF;" x1="1768.521" y1="598.362" x2="1769.274" y2="574.717"/>
					
						<rect x="1757.069" y="585.04" transform="matrix(0.0319 -0.9995 0.9995 0.0319 1126.2175 2335.822)" style="fill:#8226f7;" width="23.657" height="3"/>
				</g>
			</g>
		</g>
		<g>
			<g>
				<path style="fill:#FFFFFF;" d="M1178.563,669.542c-36.761,0-66.563,29.801-66.563,66.563c0,7.363,1.243,14.425,3.451,21.046
					l-28.991,35.213c-0.467,0.568,0.138,1.382,0.816,1.098l38.96-16.306c12.186,15.511,31.07,25.511,52.326,25.511
					c36.761,0,66.563-29.801,66.563-66.563C1245.125,699.343,1215.324,669.542,1178.563,669.542z"/>
				<path style="fill:#8226f7;" d="M1178.563,804.167c-20.6,0-39.775-9.167-52.792-25.19l-37.916,15.869
					c-0.938,0.393-2.015,0.096-2.621-0.719c-0.605-0.815-0.578-1.932,0.068-2.716l28.467-34.577
					c-2.17-6.773-3.27-13.742-3.27-20.729c0-37.53,30.533-68.063,68.063-68.063s68.063,30.533,68.063,68.063
					S1216.092,804.167,1178.563,804.167z M1126.71,775.331l0.706,0.898c12.451,15.849,31.093,24.938,51.146,24.938
					c35.875,0,65.063-29.187,65.063-65.063s-29.187-65.063-65.063-65.063s-65.063,29.187-65.063,65.063
					c0,6.936,1.135,13.857,3.374,20.572l0.263,0.788l-27.478,33.375L1126.71,775.331z"/>
			</g>
			<g>
				<polyline style="fill:#FFFFFF;" points="1157.5,740.5 1176.5,760 1200,703.5 				"/>
				<polygon style="fill:#8226f7;" points="1177.012,762.675 1156.426,741.547 1158.574,739.453 1175.988,757.325 1198.615,702.924 
					1201.385,704.076 				"/>
			</g>
		</g>
		<g>
			<path style="fill:#E0E0FF;" d="M2524,796.35c0,49.888-40.462,90.317-90.35,90.317s-90.317-40.429-90.317-90.317
				c0-49.585,39.924-89.845,89.408-90.317c-0.303,9.83-0.606,21.376-0.842,32.888c-30.902,0.909-55.711,26.257-55.711,57.428
				c0,31.71,25.752,57.462,57.462,57.462c31.744,0,57.462-25.752,57.462-57.462c0-6.261-1.01-12.287-2.895-17.909l31.407-9.829
				C2522.485,777.364,2524,786.655,2524,796.35z"/>
			<path style="fill:#CBCBFF;" d="M2519.624,768.612l-31.407,9.829c-7.473-22.992-29.084-39.553-54.567-39.553
				c-0.573,0-1.178,0-1.75,0.034c0.236-11.513,0.539-23.059,0.842-32.888c0.303-0.034,0.606-0.034,0.909-0.034
				C2473.843,706,2507.943,732.29,2519.624,768.612z"/>
		</g>
		<g>
			<g>
				<circle style="fill:#CBCBFF;" cx="561.584" cy="1527.791" r="69.67"/>
				<g>
					<path style="fill:#FFFFFF;" d="M555.673,1573.305v-10.592c-7.476-0.336-14.729-2.344-18.967-4.796l3.347-13.053
						c4.683,2.562,11.268,4.905,18.517,4.905c6.359,0,10.71-2.453,10.71-6.913c0-4.242-3.57-6.922-11.822-9.71
						c-11.94-4.015-20.084-9.592-20.084-20.411c0-9.819,6.917-17.513,18.853-19.857v-10.601h10.932v9.819
						c7.476,0.336,12.499,1.898,16.178,3.679l-3.234,12.608c-2.902-1.226-8.035-3.797-16.064-3.797c-7.253,0-9.597,3.125-9.597,6.25
						c0,3.679,3.906,6.022,13.389,9.592c13.276,4.687,18.631,10.819,18.631,20.865c0,9.928-7.031,18.403-19.857,20.638v11.373
						H555.673z"/>
				</g>
			</g>
			<g>
				<circle style="fill:#CBCBFF;" cx="450.699" cy="1392.252" r="36.65"/>
				<g>
					<path style="fill:#FFFFFF;" d="M447.59,1416.194v-5.572c-3.933-0.177-7.748-1.233-9.977-2.523l1.761-6.867
						c2.463,1.348,5.928,2.58,9.741,2.58c3.345,0,5.634-1.29,5.634-3.636c0-2.232-1.878-3.641-6.219-5.108
						c-6.281-2.112-10.565-5.046-10.565-10.737c0-5.165,3.639-9.213,9.918-10.446v-5.577h5.751v5.166
						c3.933,0.177,6.575,0.999,8.51,1.935l-1.701,6.633c-1.527-0.645-4.227-1.997-8.451-1.997c-3.816,0-5.048,1.644-5.048,3.288
						c0,1.935,2.055,3.168,7.043,5.046c6.984,2.466,9.801,5.691,9.801,10.976c0,5.223-3.699,9.681-10.446,10.857v5.983H447.59z"/>
				</g>
			</g>
			<g>
				<circle style="fill:#CBCBFF;" cx="600.703" cy="1295.317" r="36.65"/>
				<g>
					<path style="fill:#FFFFFF;" d="M597.593,1319.259v-5.572c-3.933-0.177-7.748-1.233-9.977-2.523l1.761-6.867
						c2.463,1.347,5.928,2.58,9.741,2.58c3.345,0,5.634-1.29,5.634-3.636c0-2.232-1.878-3.641-6.219-5.108
						c-6.281-2.112-10.565-5.046-10.565-10.737c0-5.166,3.639-9.213,9.918-10.446v-5.576h5.751v5.166
						c3.933,0.177,6.575,0.999,8.51,1.935l-1.701,6.633c-1.527-0.645-4.227-1.997-8.451-1.997c-3.816,0-5.049,1.644-5.049,3.288
						c0,1.935,2.055,3.168,7.044,5.046c6.984,2.466,9.801,5.691,9.801,10.976c0,5.223-3.698,9.681-10.446,10.857v5.983H597.593z"/>
				</g>
			</g>
		</g>
		<g>
			<g>
				<circle style="fill:#CBCBFF;" cx="2437.522" cy="1376.945" r="74.171"/>
				<g>
					<path style="fill:#FFFFFF;" d="M2431.229,1425.4v-11.276c-7.959-0.358-15.681-2.495-20.192-5.106l3.563-13.896
						c4.985,2.727,11.996,5.222,19.713,5.222c6.769,0,11.402-2.611,11.402-7.359c0-4.516-3.801-7.369-12.586-10.338
						c-12.712-4.274-21.382-10.212-21.382-21.73c0-10.454,7.364-18.645,20.071-21.14v-11.286h11.638v10.454
						c7.959,0.358,13.307,2.021,17.223,3.917l-3.443,13.423c-3.09-1.306-8.553-4.042-17.102-4.042
						c-7.722,0-10.217,3.327-10.217,6.653c0,3.917,4.158,6.411,14.254,10.212c14.133,4.99,19.834,11.517,19.834,22.213
						c0,10.57-7.485,19.592-21.14,21.971v12.108H2431.229z"/>
				</g>
			</g>
			<g>
				
					<ellipse transform="matrix(0.7071 -0.7071 0.7071 0.7071 -95.1614 2102.9697)" style="fill:#CBCBFF;" cx="2490.928" cy="1166.355" rx="45.38" ry="45.38"/>
				<g>
					<path style="fill:#FFFFFF;" d="M2487.078,1196v-6.899c-4.869-0.219-9.594-1.526-12.354-3.124l2.18-8.502
						c3.05,1.668,7.34,3.195,12.061,3.195c4.142,0,6.976-1.598,6.976-4.503c0-2.763-2.325-4.509-7.701-6.325
						c-7.777-2.615-13.082-6.248-13.082-13.295c0-6.396,4.506-11.407,12.28-12.934v-6.905h7.121v6.396
						c4.869,0.219,8.141,1.237,10.538,2.396l-2.106,8.212c-1.891-0.799-5.233-2.473-10.464-2.473c-4.724,0-6.251,2.035-6.251,4.071
						c0,2.396,2.544,3.923,8.721,6.248c8.647,3.053,12.135,7.047,12.135,13.591c0,6.467-4.58,11.987-12.934,13.443V1196H2487.078z"
						/>
				</g>
			</g>
		</g>
		<g>
			<g>
				<path style="fill:#D28572;" d="M1577.645,739.536c1.162,0.581,17.719,18.88,10.457,22.366
					c-7.262,3.486-17.138,2.033-17.138,2.033L1577.645,739.536z"/>
				<polygon style="fill:#FFBC96;" points="1504.88,778.52 1484.76,837.68 1538.16,865.8 1552,787 1504.9,778.521 				"/>
				<path style="fill:#D28572;" d="M1550.92,789.72l-7.04,42.04C1526.32,809.64,1519,785,1519,785l9.88-0.56L1550.92,789.72z"/>
				<path style="fill:#FFBC96;" d="M1577.313,712.342c0,0,11.989,82.963-11.03,89.197c-23.019,6.234-61.383-23.019-61.383-23.019
					l11.509-69.056l33.569-11.03L1577.313,712.342z"/>
				<path style="fill:#1B1B43;" d="M1577.313,712.342c0,0-21.58-8.632-35.967,28.294l-7.193,12.468l-35.487-3.836l5.755-45.078
					l31.171-15.346C1535.591,688.844,1570.599,665.346,1577.313,712.342z"/>
				<path style="fill:#1B1B43;" d="M1537.03,693.64c0,0-18.063-12.948-46.837,15.825c-28.773,28.773-14.067,86,16.625,85.361
					c29.915-0.623,21.58-30.212,19.662-35.487C1524.562,754.064,1537.03,693.64,1537.03,693.64z"/>
				
					<ellipse transform="matrix(0.866 -0.5 0.5 0.866 -169.8721 867.0934)" style="fill:#FFBC96;" cx="1533.075" cy="750.531" rx="13.822" ry="15.765"/>
				<path style="fill:#1B1B43;" d="M1537,756.503c0-0.05-0.058-5.035-3.056-7.76c-1.542-1.402-3.67-1.987-6.309-1.75l-0.271-2.987
					c3.524-0.32,6.424,0.532,8.614,2.532c3.976,3.631,4.021,9.705,4.021,9.962h-3h1.5L1537,756.503z"/>
				<circle style="opacity:0.4;fill:#FE5B52;" cx="1559.25" cy="759" r="11.5"/>
				
					<ellipse transform="matrix(0.2745 -0.9616 0.9616 0.2745 372.0081 1926.5963)" style="fill:#1B1B43;" cx="1462.767" cy="716.767" rx="25.9" ry="25.9"/>
			</g>
			<g>
				<g>
					<path style="fill:#D28572;" d="M1514.096,1690.371c-4.28-16.171-7.134-44.678-7.134-44.678l-54.815,3.379l1.339,35.497
						c13.811,8.922,40.817,23.54,69.582,23.709C1519.13,1703.044,1515.889,1697.145,1514.096,1690.371z"/>
					<path style="fill:#1B1B43;" d="M1557.272,1739.555c-6.899-7.526-23.297-16.782-34.203-31.276
						c-28.765-0.169-55.771-14.787-69.582-23.709l2.415,63.996h10.888l6.007-30.411c0,0,36.418,29.285,61.948,30.786
						C1560.276,1750.443,1561.402,1744.06,1557.272,1739.555z"/>
				</g>
				<path style="fill:#1B1B43;" d="M1426.617,1128.177c-12.743,11.08,10.137,412.24,18.021,533.884l75.465-1.126l-12.39-516.989
					L1426.617,1128.177z"/>
				<g>
					<path style="fill:#FFBC96;" d="M1564.781,1690.371c-4.28-16.171-7.134-44.678-7.134-44.678l-54.815,3.379l1.339,35.497
						c13.811,8.922,40.817,23.54,69.582,23.709C1569.815,1703.044,1566.574,1697.145,1564.781,1690.371z"/>
					<path style="fill:#1B1B43;" d="M1607.958,1739.555c-6.899-7.526-23.297-16.782-34.204-31.276
						c-28.765-0.169-55.771-14.787-69.582-23.709l2.415,63.996h10.888l6.007-30.411c0,0,36.418,29.285,61.948,30.786
						C1610.961,1750.443,1612.088,1744.06,1607.958,1739.555z"/>
				</g>
				<path style="fill:#8226f7;" d="M1451.397,1134.936L1494,1662l79.041,2.314c0,0,3.379-424.629-14.642-522.62L1451.397,1134.936z"
					/>
				<path style="fill:#1B1B43;" d="M1566.279,1391.673c-0.18,0-0.359-0.008-0.541-0.022l-7.863-0.655l0.25-2.99l7.862,0.655
					c1.651,0.13,3.16-0.936,3.564-2.552c0.252-1.009,0.034-2.06-0.599-2.884s-1.592-1.306-2.631-1.322l-25.346-0.402l0.047-3
					l25.346,0.402c1.96,0.031,3.769,0.94,4.963,2.495c1.193,1.555,1.605,3.537,1.13,5.438
					C1571.744,1389.709,1569.192,1391.673,1566.279,1391.673z"/>
			</g>
			<g>
				<path style="fill:#FED3D1;" d="M1490.068,823.315l5.256-23.465c0,0,25.352,11.831,41.487,24.232
					c6.808,5.232,11.057,13.108,11.659,21.674l1.481,21.111l-45.053-12.39L1490.068,823.315z"/>
				<path style="fill:#D28572;" d="M1773.529,1084.25c-25.436-1.245-44.118-10.217-58.57-24.028l-0.751-38.671l66.078,5.256
					l18.397,17.271L1773.529,1084.25z"/>
				<path style="fill:#1B1B43;" d="M1616.217,1073.362c0,0,28.158-6.383,30.786-60.447l-24.779,19.523L1616.217,1073.362z"/>
				<path style="fill:#FE5B52;" d="M1490.068,823.315l40.924,21.184c14.965,7.746,25.77,21.68,29.458,38.122
					c11.548,51.472,32.402,172.093,11.465,303.375c0,0-84.475-2.628-165.572-51.061l31.755-240.143
					c2.755-20.835,13.337-39.841,29.598-53.156L1490.068,823.315z"/>
				<path style="fill:#FFBC96;" d="M1622.975,1011.789l74.02,3.282c7.531,0.334,14.931,2.268,21.555,5.868
					c10.32,5.609,20.153,12.437,29.492,20.5c5.452,4.707,6.777,12.666,3.233,18.936l0,0c-0.924,1.635-2.144,3.084-3.598,4.273
					l-9.038,7.395c-0.766,0.627-1.592,1.177-2.466,1.643l-12.901,6.88c-1.952,1.041-4.103,1.675-6.313,1.762
					c-6.916,0.272-22.382-0.86-34.663-14.411l-94.612-10.7l15.769-35.48L1622.975,1011.789z"/>
				<path style="fill:#D28572;" d="M1780.287,1026.807l-44.638-14.704c-2.16-0.711-4.448-0.846-6.675-0.387
					c-10.634,2.194-41.923,9.451-36.542,17.907c3.942,6.195,35.292-3.567,35.292-3.567L1780.287,1026.807z"/>
				<g>
					<path style="fill:#D28572;" d="M1672.723,1071.276L1672.723,1071.276c-2.751-1.88-3.457-5.634-1.577-8.385l6.812-9.967
						c1.88-2.751,5.634-3.457,8.385-1.577l0,0c2.751,1.88,3.457,5.634,1.577,8.385l-6.812,9.967
						C1679.229,1072.45,1675.474,1073.156,1672.723,1071.276z"/>
					<path style="fill:#D28572;" d="M1681.314,1076.286L1681.314,1076.286c-2.751-1.88-3.457-5.635-1.577-8.386l9.09-13.301
						c1.88-2.751,5.635-3.457,8.385-1.577h0c2.751,1.88,3.457,5.635,1.577,8.385l-9.09,13.301
						C1687.82,1077.46,1684.065,1078.166,1681.314,1076.286z"/>
					<path style="fill:#D28572;" d="M1691.729,1081.092L1691.729,1081.092c-2.751-1.88-3.457-5.635-1.577-8.385l6.812-9.967
						c1.88-2.751,5.635-3.457,8.385-1.577h0c2.751,1.88,3.457,5.635,1.577,8.385l-6.812,9.967
						C1698.234,1082.266,1694.48,1082.972,1691.729,1081.092z"/>
					<path style="fill:#D28572;" d="M1701.31,1085.201l-0.368-0.252c-2.311-1.58-2.904-4.734-1.325-7.045l4.865-7.118
						c1.579-2.311,4.734-2.904,7.045-1.325l0.368,0.252c2.311,1.579,2.904,4.734,1.325,7.045l-4.865,7.118
						C1706.775,1086.188,1703.621,1086.781,1701.31,1085.201z"/>
				</g>
				<path style="fill:#FE5B52;" d="M1526.11,866.116c0,0,26.281-15.018,33.039,129.904l87.854,16.895
					c-14.685,18.271-24.977,38.407-30.786,60.447l-74.812-8.038c-10.424-1.12-20.219-5.539-27.956-12.614l0,0
					c-9.232-8.441-14.905-20.081-15.864-32.553l-9.77-127.01L1526.11,866.116z"/>
				<path style="fill:#1B1B43;" d="M1617.383,1074.989l-79.551-8.123c-13.095-1.338-25.355-7.972-33.638-18.203
					c-6.667-8.235-10.589-18.601-11.043-29.188l-3.983-92.745l2.997-0.129l3.983,92.745c0.428,9.949,4.113,19.69,10.378,27.43
					c7.783,9.613,19.305,15.849,31.61,17.105l76.922,7.854c7.497-31.273,23.563-51.621,29.026-57.855l-86.263-16.589
					l-15.306-103.072l2.967-0.44l14.993,100.969l89.592,17.229l-2.006,2.001c-0.216,0.216-21.709,21.993-30.383,59.72
					L1617.383,1074.989z"/>
				
					<rect x="1525.167" y="1073.025" transform="matrix(0.2239 -0.9746 0.9746 0.2239 114.406 2340.335)" style="fill:#1B1B43;" width="3" height="50.618"/>
				<g>
					<polygon style="fill:#D28572;" points="1748.377,1063.988 1739.027,1047.257 1729.803,1042.645 1730.697,1040.855 
						1740.473,1045.743 1750.123,1063.012 					"/>
					
						<rect x="1732.319" y="1052.781" transform="matrix(0.8583 -0.5132 0.5132 0.8583 -299.9409 1040.1259)" style="fill:#D28572;" width="2" height="20.732"/>
					
						<rect x="1720.069" y="1059.531" transform="matrix(0.8583 -0.5132 0.5132 0.8583 -305.1407 1034.7961)" style="fill:#D28572;" width="2" height="20.732"/>
				</g>
			</g>
		</g>
		<g>
			<g>
				<g>
					<polygon style="fill:#1B1B43;" points="1909.065,1650.047 1908.314,1707.115 1845.239,1748.414 1964.631,1748.414 
						1969.136,1642.538 					"/>
					
						<rect x="1916.157" y="1702.083" transform="matrix(0.5855 -0.8107 0.8107 0.5855 -594.6007 2265.5308)" style="fill:#FEFEFE;" width="3.999" height="24.283"/>
				</g>
				<g>
					<polygon style="fill:#1B1B43;" points="2158.737,1626.019 2172.253,1699.231 2215.053,1748.414 2126.073,1748.414 
						2108.802,1642.538 					"/>
					
						<rect x="2153.57" y="1705.615" transform="matrix(0.6646 -0.7472 0.7472 0.6646 -549.8873 2190.0979)" style="fill:#FEFEFE;" width="22.446" height="3.999"/>
				</g>
				<path style="fill:#8226f7;" d="M1919.578,1112.409c0,0-36.794,148.677-25.53,547.4h85.602c0,0,22.527-333.396,54.064-558.663
					L1919.578,1112.409z"/>
				<polygon style="fill:#8226f7;" points="2114.059,1098.893 2181.263,1649.672 2093.034,1664.314 1986.667,1100 				"/>
				<polygon style="fill:#1B1B43;" points="2033.189,1353.591 2009.369,1217.289 1981.064,1212.143 1981.602,1209.191 
					2011.965,1214.711 2012.145,1215.742 2036.145,1353.075 				"/>
				<path style="fill:#1B1B43;" d="M1899.567,1439.368c-1.239,0-2.431-0.423-3.404-1.217c-1.122-0.914-1.818-2.211-1.962-3.65
					c-0.28-2.796,1.668-5.37,4.436-5.859l24.685-4.368l0.523,2.953l-24.686,4.369c-1.231,0.218-2.098,1.363-1.974,2.606
					c0.065,0.641,0.374,1.218,0.873,1.624c0.5,0.407,1.125,0.595,1.768,0.528l10.603-1.097l0.309,2.984l-10.603,1.097
					C1899.945,1439.358,1899.756,1439.368,1899.567,1439.368z"/>
				<path style="fill:#1B1B43;" d="M2053.588,1433.521c-1.239,0-2.431-0.423-3.404-1.216c-1.121-0.915-1.818-2.212-1.962-3.651
					c-0.28-2.796,1.668-5.37,4.436-5.859l24.685-4.368l0.523,2.953l-24.686,4.369c-1.231,0.218-2.098,1.363-1.974,2.606
					c0.064,0.641,0.374,1.218,0.873,1.625c0.499,0.406,1.119,0.597,1.767,0.527l10.604-1.097l0.309,2.984l-10.604,1.097
					C2053.965,1433.512,2053.775,1433.521,2053.588,1433.521z"/>
			</g>
			<g>
				<polygon style="fill:#FFFFFF;" points="2004.234,812.721 1927.837,1008.786 1919.578,1112.409 2084.023,1123.672 
					2060.067,814.302 				"/>
				<path style="opacity:0.2;fill:#1B1B43;" d="M1922.667,985.667c12.722,0.96,25.211-0.281,37.281-2.906
					c12.053-2.701,23.661-6.903,34.623-12.469c5.316-3.082,10.856-5.815,15.806-9.534c2.522-1.774,5.24-3.299,7.621-5.282
					c2.384-1.977,4.817-3.902,7.279-5.811c2.543-1.822,4.742-4.029,7.041-6.147l6.963-6.338c4.472-4.415,8.69-9.108,13.387-13.513
					c-3.264,5.455-6.713,10.879-10.443,16.114l-6.17,7.414c-2.052,2.493-4.172,4.931-6.581,7.091
					c-9.041,9.293-19.824,16.807-31.246,23.116c-11.713,5.782-24.296,9.938-37.244,11.491
					C1948.111,990.485,1934.8,989.903,1922.667,985.667z"/>
				<path style="fill:#1B1B43;" d="M2004.234,812.721c0,0-31.561,45.995-61.857,380.107c-0.166,1.833-2.261,2.821-3.757,1.749
					l-50.204-35.989l43.927-286.09L2004.234,812.721z"/>
				<path style="fill:#1B1B43;" d="M2004.234,812.721l-66.66,18.124c-10.227,2.78-18.231,10.744-21.064,20.956l-43.863,158.111
					l-92.36,16.895l-6.758,57.443l119.847-5.618c14.265-0.669,26.211-11.032,28.887-25.06l32.606-170.937L2004.234,812.721z"/>
				<path style="fill:#1B1B43;" d="M2060.067,814.302c0,0-35.067,241.698-34.067,379.698l110-5l0.21-232.026L2060.067,814.302z"/>
				<path style="fill:#CBCBFF;" d="M2139.497,1169.584l-157.838-20.961c-2.467-0.328-4.202-2.594-3.874-5.061L1993.397,1026
					c0.328-2.468,2.594-4.202,5.061-3.874l157.838,20.961c2.467,0.328,4.202,2.594,3.874,5.061l-15.612,117.561
					C2144.231,1168.177,2141.965,1169.911,2139.497,1169.584z"/>
				<path style="fill:#FFFFFF;" d="M2077.874,1105.054c-0.069,0-0.14-0.004-0.21-0.014h-0.001l-20.279-2.693
					c-0.418-0.056-0.79-0.271-1.047-0.606c-0.256-0.336-0.366-0.751-0.31-1.169l2.006-15.103c0.056-0.419,0.271-0.791,0.607-1.047
					c0.335-0.256,0.747-0.364,1.168-0.31l20.276,2.692c0.418,0.056,0.79,0.271,1.046,0.606c0.257,0.335,0.367,0.749,0.312,1.167
					l-2.006,15.104c-0.056,0.418-0.271,0.789-0.605,1.046C2078.553,1104.941,2078.22,1105.054,2077.874,1105.054z M2058.065,1100.42
					l19.444,2.582l1.895-14.271l-19.444-2.581L2058.065,1100.42z M2058.01,1100.835v0.002
					C2058.01,1100.836,2058.01,1100.836,2058.01,1100.835z M2059.542,1086.095c0.001,0,0.002,0,0.002,0H2059.542z"/>
				<path style="fill:#D28572;" d="M2094.562,1089.078l-4.841,6.916c-3.274,4.678-7.932,8.227-13.341,10.056
					c-10.939,3.7-33.38,10.7-30.38,17.616c1.719,3.964,22.614-1.433,22.614-1.433s-24.146,28.471-14.055,37.12
					c2.807,2.406,7.589,4.381,13.107,5.668c7.155,1.669,14.208,1.245,19.35,0.447c5.052-0.784,9.643-3.331,13.005-7.183
					c3.22-3.689,7.474-9.081,11.229-15.536c10.266-17.651,16.056-31.503,18.631-40.698L2094.562,1089.078z"/>
				<path style="fill:#1B1B43;" d="M2060.067,814.302l49.553,10.967c13.568,3.003,24.749,12.567,29.817,25.507l49.692,114.513
					c7.565,17.432,6.381,37.425-3.188,53.843l-56.115,96.281l-43.552-23.278l41.299-103.623L2060.067,814.302z"/>
				<path style="fill:#1B1B43;" d="M2028.487,849.546c-15.305,0-26.606-8.919-26.762-9.045l1.882-2.336
					c0.2,0.16,20.195,15.874,42.344,3.85l1.432,2.637C2040.766,848.244,2034.334,849.546,2028.487,849.546z"/>
				
					<rect x="1768.999" y="1019.295" transform="matrix(0.142 -0.9899 0.9899 0.142 626.8411 2764.749)" style="fill:#8226f7;" width="278.417" height="2.999"/>
				<polygon style="fill:#8226f7;" points="2087.654,1092.725 2084.896,1091.546 2131.704,981.996 2096.617,898.581 
					2099.383,897.419 2134.962,982.004 				"/>
				<g>
					
						<rect x="2052.256" y="1151" transform="matrix(0.5623 -0.8269 0.8269 0.5623 -49.9899 2209.5508)" style="fill:#925D4F;" width="20.154" height="2.001"/>
					
						<rect x="2062.923" y="1156" transform="matrix(0.5623 -0.8269 0.8269 0.5623 -49.4561 2220.5593)" style="fill:#925D4F;" width="20.155" height="2.001"/>
					
						<rect x="2078.589" y="1156.333" transform="matrix(0.5624 -0.8269 0.8269 0.5624 -42.9054 2233.6001)" style="fill:#925D4F;" width="20.155" height="2.001"/>
				</g>
			</g>
			<g>
				<path style="fill:#925D4F;" d="M1988.608,719.239c0,0-24.581,21.069-16.855,28.092c7.725,7.023,18.26,8.428,18.26,8.428
					L1988.608,719.239z"/>
				<path style="fill:#D28572;" d="M2061.64,743.72l-1.56,70.6c-27.92,28.96-55.84-1.6-55.84-1.6l2-14.48l0.88-6.44l3.96-28.84
					l1.04-7.64l29.12-6.8L2061.64,743.72z"/>
				<path style="fill:#925D4F;" d="M2044,759.52c0,0-9.2,18.2-37.76,38.72l0.88-6.44l3.96-28.84l29.92-6.44L2044,759.52z"/>
				<path style="fill:#D28572;" d="M1987.203,694.658c0,0-16.153,87.085,5.618,85.681c21.771-1.405,62.505-23.878,62.505-23.878
					l4.916-41.436l-18.26-27.39l-31.604,0.702L1987.203,694.658z"/>
				<path style="fill:#1B1B43;" d="M2037.155,736.972c0,0,18.436,31.867,27.653,30.813c9.218-1.053,25.81-60.047,5.531-84.539
					c-20.279-24.493-66.368-10.534-70.055-10.534c-3.687,0-24.229-0.527-38.188-0.79c0,0,11.325,41.875,57.677,29.233
					c0,0,5.531,20.279,16.592,22.913L2037.155,736.972z"/>
				<path style="fill:#D28572;" d="M2049.516,733.25c-2.87,8.396-10.74,13.306-17.578,10.969
					c-6.838-2.338-10.054-11.038-7.184-19.434c2.87-8.396,10.74-13.306,17.578-10.969
					C2049.17,716.154,2052.386,724.855,2049.516,733.25z"/>
				<circle style="opacity:0.3;fill:#BE443D;" cx="2004.25" cy="740.5" r="11.75"/>
				<path style="fill:#1B1B43;" d="M2031.293,737.856c-0.054-0.221-1.288-5.457,1.608-9.833c1.854-2.802,4.918-4.569,9.106-5.253
					l0.484,2.961c-3.33,0.543-5.716,1.872-7.09,3.948c-2.18,3.295-1.205,7.424-1.195,7.465L2031.293,737.856z"/>
			</g>
		</g>
		<g>
			<g>
				<g>
					<path style="fill:#FFBC96;" d="M1051.547,1363.582l-75.465-28.909c8.338,44.468,12.817,303.642,13.44,342.108l52.419,9.917
						C1050.796,1564.446,1051.547,1363.582,1051.547,1363.582z"/>
					<path style="fill:#FE5B52;" d="M1095.106,1743.542c-23.286-28.167-33.422-19.157-53.321-55.951
						c0.053-0.285,0.103-0.602,0.156-0.894l-52.419-9.917c0.05,3.104,0.076,4.804,0.076,4.804l-1.502,67.58h14.267l8.26-30.411
						l34.165,30.411h46.676C1094.357,1749.165,1096.949,1745.772,1095.106,1743.542z"/>
				</g>
				<g>
					<path style="fill:#FFBC96;" d="M964.416,1361.714l-70.508-39.487c1.839,45.206-31.094,302.318-36.023,340.472l50.441,17.371
						C934.714,1560.371,964.416,1361.714,964.416,1361.714z"/>
					<path style="fill:#FE5B52;" d="M952.74,1743.984c-18.981-31.23-30.311-23.775-44.697-63.053
						c0.094-0.274,0.189-0.581,0.283-0.862l-50.441-17.371c-0.398,3.079-0.617,4.764-0.617,4.764l-11.229,66.658l14.118,2.057
						l12.558-28.902l32.409,41.139l43.203,0.609C951.188,1749.44,954.243,1746.457,952.74,1743.984z"/>
				</g>
				<path style="fill:#1B1B43;" d="M883.723,1123.672c0,0-15.769,140.792,6.758,244.415c0,0,84.475,27.032,161.066-4.505
					c0,0,6.758-221.888-23.653-255.679L883.723,1123.672z"/>
				<path style="fill:#8226f7;" d="M968.97,1344.477c-42.077,0-78.601-5.896-79.214-5.997l0.488-2.959
					c1.026,0.17,103.292,16.667,162.219-5.921l1.074,2.801C1029.263,1341.706,997.81,1344.477,968.97,1344.477z"/>
				<path style="fill:#8226f7;" d="M971.513,1186.199c-0.922-6.867-9.013-67.186-9.013-70.199h3c0,2.128,5.375,42.908,8.987,69.801
					L971.513,1186.199z"/>
				<path style="fill:#D28572;" d="M1037,1421c-0.325,0-8.014-0.065-12.562-5.751c-1.243-1.554-0.765-2.941-0.501-3.466
					c0.844-1.682,3.247-3.301,15.006-3.751c6.103-0.232,11.883-0.039,12.126-0.031l-0.138,3.998
					c-9.118-0.313-19.722,0.169-22.829,1.363c3.448,3.595,8.841,3.638,8.898,3.638V1421z"/>
				<path style="fill:#D28572;" d="M941,1429c-0.325,0-8.014-0.065-12.562-5.751c-1.243-1.554-0.765-2.941-0.501-3.466
					c0.844-1.682,3.247-3.301,15.006-3.751c6.102-0.233,11.883-0.039,12.126-0.031l-0.138,3.998
					c-9.118-0.313-19.721,0.169-22.829,1.363c3.448,3.595,8.841,3.638,8.898,3.638V1429z"/>
			</g>
			<g>
				<path style="fill:#CBCBFF;" d="M1004,865.667l24.173,28.234c11.214,13.098,16.853,30.068,15.707,47.273l-7.351,110.414
					c0,0,2.253,57.068,9.762,66.078c7.509,9.011-14.267,17.271-45.054,22.527c-30.786,5.256-126.15,4.505-130.655-9.762
					c-4.505-14.267,18.772-24.028,11.263-59.32l15.018-162.193l19.899-34.541l52.187-2.253L1004,865.667z"/>
				<polygon style="fill:#8226f7;" points="989,1092 1025,958.5 1132.643,964.295 1093.221,1096.64 				"/>
				<path style="fill:#FFBC96;" d="M957.685,1031.313c0,0,52.75-13.516,67.392-10.7c14.642,2.816,20.837,12.953,18.021,15.769
					c-2.816,2.816-9.011,2.253-9.011,2.253s-2.816,26.469-12.953,30.411c-10.137,3.942-85.226,17.083-85.226,17.083l-8.26-21.588
					L957.685,1031.313z"/>
				<path style="fill:#CBCBFF;" d="M957.7,1031.313l-21.806,54.83l-69.923,0.541h-0.225c-16.985,0-32.258-10.498-38.25-26.401
					c-3.199-8.56-3.469-17.931-0.721-26.672l40.999-130.43c0.18-0.631,0.405-1.262,0.63-1.892
					c3.559-9.101,11.128-16.084,20.589-18.833l27.753-8.065l-0.315,2.073l-23.338,151.83L957.7,1031.313z"/>
				<path style="fill:#8226f7;" d="M970.75,915.5c-3.722,0-6.75-3.028-6.75-6.75s3.028-6.75,6.75-6.75s6.75,3.028,6.75,6.75
					S974.472,915.5,970.75,915.5z M970.75,905c-2.068,0-3.75,1.682-3.75,3.75s1.682,3.75,3.75,3.75s3.75-1.682,3.75-3.75
					S972.818,905,970.75,905z"/>
				<polygon style="fill:#8226f7;" points="936.911,1087.646 881.996,1087.5 882.004,1084.5 934.878,1084.64 955.529,1032.713 
					891.218,1029.708 909.54,952.155 912.46,952.845 894.969,1026.88 959.871,1029.912 				"/>
				<polygon style="fill:#1B1B43;" points="1063.998,953.833 1061.333,968.93 1094.369,970.884 1096.5,956.142 				"/>
				<g>
					<polygon style="fill:#D28572;" points="1033.661,1039.538 1024.825,1035.356 1012.102,1036.662 1011.898,1034.672 
						1025.175,1033.31 1034.517,1037.729 					"/>
					
						<rect x="1025.667" y="1041.859" transform="matrix(0.5021 -0.8648 0.8648 0.5021 -395.011 1409.5388)" style="fill:#D28572;" width="2.001" height="11.949"/>
					
						<rect x="1021.5" y="1051.942" transform="matrix(0.5277 -0.8495 0.8495 0.5277 -416.1119 1368.493)" style="fill:#D28572;" width="2" height="12.95"/>
				</g>
				<g>
					<path style="fill:#FFBC96;" d="M1103.734,1060.597c0,0-17.12-36.719-12.014-40.548c3.004-2.253,6.382,0.751,6.382,0.751
						s-4.881-11.263-1.126-13.141c3.755-1.877,6.383,2.253,6.383,2.253s0.375-8.635,3.379-8.635c3.004,0,6.383,5.256,6.383,5.256
						s-0.375-6.007,3.754-6.383c4.13-0.375,13.516,19.148,15.393,36.043c1.746,15.712,1.126,43.176-32.664,39.797L1103.734,1060.597
						z"/>
					
						<rect x="1100.218" y="1020.232" transform="matrix(0.9357 -0.3527 0.3527 0.9357 -292.1734 454.5064)" style="fill:#D28572;" width="2" height="17.669"/>
					
						<rect x="1106.551" y="1009.184" transform="matrix(0.9302 -0.3669 0.3669 0.9302 -297.1705 477.5899)" style="fill:#D28572;" width="2" height="22.431"/>
					
						<rect x="1116.052" y="1004.949" transform="matrix(0.924 -0.3823 0.3823 0.924 -303.6258 504.2506)" style="fill:#D28572;" width="1.999" height="22.402"/>
				</g>
			</g>
			<g>
				<polygon style="fill:#FFBC96;" points="992.333,870 935.333,872 943.328,786.447 978.785,808.433 988.607,814.515 
					991.04,848.485 				"/>
				<path style="fill:#D28572;" d="M991.04,848.485c-26.221-4.956-40.503-36.043-40.503-36.043l28.248-4.01l9.822,6.082
					L991.04,848.485z"/>
				<path style="fill:#FFBC96;" d="M1013.138,742.516c0,0,18.049,85.321-14.767,85.868c-32.816,0.547-65.085-19.143-65.085-19.143
					l0.82-45.942l19.963-19.143l32.269-10.392L1013.138,742.516z"/>
				<path style="fill:#1B1B43;" d="M1018.96,746.56c-1.16,3.08-3.24,5.96-6.2,7.4c-8.32,3.88-18.28-5.04-26.92-1.88
					c-8.56,3.16-9.32,15.32-16.2,21.32c-6.48,5.6-16.36,4.16-24.68,2.08l5.92,12.04c-6.04,6.92-8.68,17.36-7.92,31.32
					c1.4,11.44-0.121,22.16-4.4,31.72c-9.893,22.107-21.227,24.44-21.227,24.44L889,882.44c-9.48,2.76-17.04,9.76-20.6,18.84
					c-2.92-3.96-5.52-8.12-7.4-12.64c-3-7.64-3.48-16.72,0.8-23.76c2.68-4.44,7.16-7.84,9.28-12.6c4.16-9.48-1.92-21.76,3.92-30.36
					c3.2-4.76,9.04-6.72,14.28-9c5.2-2.28,10.76-5.76,11.84-11.32c1.04-5.32-2.36-10.36-5.28-14.88
					c-2.96-4.52-5.72-10.16-3.56-15.08c3.24-7.36,14.04-6.88,20.24-12c5.8-4.88,6.2-13.44,7.8-20.84
					c2.72-12.88,11.28-25.12,23.8-29.08c14.08-4.4,29.2,2.24,41.24,10.68c1.2,0.84,2.44,1.72,3.88,2.12
					c2.76,0.76,5.64-0.4,8.48-0.96c6.48-1.24,13.6,1.24,17.92,6.28C1019.92,732.92,1021.24,740.32,1018.96,746.56z"/>
				<g>
					
						<ellipse transform="matrix(0.8429 -0.538 0.538 0.8429 -273.7148 635.2214)" style="fill:#FFBC96;" cx="951.041" cy="786.383" rx="14.904" ry="16.818"/>
					<path style="fill:#1B1B43;" d="M953.252,793.186c-0.003-0.055-0.274-5.508-3.724-8.55c-1.797-1.583-4.199-2.261-7.153-2.017
						l-0.249-2.989c3.801-0.318,6.968,0.615,9.403,2.772c4.411,3.905,4.709,10.391,4.72,10.665L953.252,793.186z"/>
				</g>
				<circle style="opacity:0.4;fill:#FE5B52;" cx="971.333" cy="792.667" r="7.413"/>
				<path style="fill:#D28572;" d="M1000.747,779.815c1.9,1.358,3.615,2.904,5.231,4.578c1.612,1.683,3.116,3.476,4.338,5.633
					c0.299,0.548,0.567,1.125,0.783,1.775c0.204,0.646,0.401,1.375,0.278,2.293c-0.067,0.453-0.25,0.962-0.572,1.381
					c-0.318,0.422-0.739,0.721-1.135,0.908c-0.395,0.192-0.797,0.287-1.128,0.339c-0.309,0.047-0.615,0.088-0.914,0.116
					c-2.39,0.223-4.683,0.135-6.999-0.166l-0.008-1.081c2.241-0.381,4.516-0.662,6.639-1.101c0.265-0.055,0.52-0.12,0.769-0.187
					c0.224-0.069,0.379-0.119,0.491-0.193c0.218-0.166,0.174-0.154,0.205-0.366c0.012-0.22-0.046-0.635-0.209-1.062
					c-0.149-0.431-0.384-0.883-0.624-1.338c-0.997-1.834-2.368-3.619-3.714-5.397l-4.175-5.349L1000.747,779.815z"/>
				<circle style="fill:#1B1B43;" cx="989" cy="780" r="2.563"/>
				<circle style="fill:#1B1B43;" cx="1012.688" cy="778.563" r="2.563"/>
				<path style="fill:#1B1B43;" d="M989.646,773.259l-8,1.295c-1.219,0.197-2.368-0.631-2.565-1.851l0,0
					c-0.197-1.219,0.631-2.368,1.851-2.565l8-1.295c1.219-0.197,2.368,0.631,2.565,1.851l0,0
					C991.694,771.913,990.866,773.062,989.646,773.259z"/>
				<path style="fill:#1B1B43;" d="M1015.228,772.31h-6.366c-1.235,0-2.237-1.002-2.237-2.237l0,0c0-1.235,1.002-2.237,2.237-2.237
					h6.366c1.235,0,2.237,1.001,2.237,2.237l0,0C1017.464,771.309,1016.463,772.31,1015.228,772.31z"/>
				<path style="fill:#1B1B43;" d="M985.149,799.487c1.274,1.448,2.74,2.769,4.303,3.86c1.571,1.091,3.278,1.948,5.074,2.494
					c1.791,0.539,3.665,0.874,5.57,0.805c0.956,0.06,1.903-0.125,2.872-0.189c0.964-0.111,1.908-0.366,2.902-0.491l0.263,0.736
					c-0.934,0.404-1.881,0.831-2.874,1.123c-1.009,0.224-2.016,0.544-3.071,0.575c-2.089,0.261-4.245-0.036-6.264-0.663
					c-2.021-0.642-3.913-1.68-5.508-3.036c-1.599-1.355-2.962-2.939-3.93-4.804L985.149,799.487z"/>
				<path style="fill:#CBCBFF;" d="M968.96,872.12l-18.4,25.52l-32.52-22.4l0.6-0.48c9.04-6.68,15.76-14.88,19.92-24.2
					L968.96,872.12z"/>
				<polygon style="fill:#CBCBFF;" points="968.949,872.123 991.1,896.903 1012,874.667 991.1,848.47 				"/>
				<polygon style="fill:#8226f7;" points="950.911,899.722 915.897,875.627 917.597,873.155 950.193,895.586 966.836,872.489 
					936.982,851.901 938.685,849.432 971.061,871.758 				"/>
				<polygon style="fill:#8226f7;" points="991.073,899.123 966.916,872.1 990.005,847.445 992.195,849.496 970.982,872.147 
					991.127,894.683 1010.573,873.973 1012.76,876.027 				"/>
			</g>
		</g>
		<rect x="325.519" y="1747.333" style="fill:#1B1B43;" width="2284.962" height="4"/>
	</g>
</g>
</svg>
