<?xml version="1.0" standalone="no"?>
<!DOCTYPE svg PUBLIC "-//W3C//DTD SVG 20010904//EN"
 "http://www.w3.org/TR/2001/REC-SVG-20010904/DTD/svg10.dtd">
<!-- <svg version="1.0" xmlns="http://www.w3.org/2000/svg"
 width="1600.000000pt" height="1600.000000pt" viewBox="0 0 1600.000000 1600.000000"
 preserveAspectRatio="xMidYMid meet">

<g transform="translate(0.000000,1600.000000) scale(0.100000,-0.100000)"
fill="#000000" stroke="none"> -->

<svg version="1.0" xmlns="http://www.w3.org/2000/svg" width="1600.000000pt" height="1600.000000pt" viewBox="0 0 1600.000000 1600.000000" preserveAspectRatio="xMidYMid meet">
  <defs>
    <!-- Define the linear gradient -->
    <linearGradient id="svgGradient" x1="0%" y1="0%" x2="100%" y2="100%">
      <stop offset="0%" style="stop-color:#fe655D;stop-opacity:1" />
      <stop offset="100%" style="stop-color:#8226f7;stop-opacity:1" />
    </linearGradient>
  </defs>
  <!-- Apply the linear gradient to the fill attribute of the <g> element -->
  <g transform="translate(0.000000,1600.000000) scale(0.100000,-0.100000)" fill="url(#svgGradient)" stroke="none">
    <!-- Your SVG content goes here -->

<path d="M3306 14335 c-64 -22 -146 -118 -146 -169 0 -12 -16 -7 -65 20 -71
39 -150 64 -206 64 -47 0 -133 -26 -149 -45 -11 -14 -10 -14 14 -5 71 27 215
3 319 -53 58 -31 60 -33 63 -76 5 -85 39 -139 125 -202 81 -58 104 -107 103
-213 -1 -84 10 -77 22 13 4 32 1 67 -10 104 -14 49 -26 64 -91 123 -113 101
-133 159 -97 273 32 103 128 173 214 157 44 -8 103 -58 131 -109 18 -36 22
-58 22 -150 0 -86 2 -104 12 -91 44 60 17 248 -45 318 -45 50 -140 68 -216 41z"/>
<path d="M8141 14198 c-5 -14 -12 -59 -16 -99 -3 -41 -11 -98 -16 -126 -9 -47
-13 -53 -35 -53 -13 0 -41 11 -62 23 -93 59 -104 55 -47 -14 65 -76 65 -74
-24 -119 -44 -21 -82 -44 -85 -49 -3 -5 26 -12 67 -16 39 -3 84 -8 99 -11 l26
-5 -5 -140 c-4 -80 -2 -139 3 -139 10 0 24 30 48 96 7 22 26 64 40 92 l26 52
58 -36 c31 -20 79 -52 107 -70 53 -36 65 -40 65 -23 0 14 -97 176 -123 206
l-20 22 29 11 c42 15 85 40 112 64 22 19 22 21 6 33 -11 8 -48 13 -96 13 -94
0 -87 -11 -118 176 -12 71 -24 131 -26 133 -2 2 -8 -8 -13 -21z m19 -143 c0
-44 21 -124 38 -145 13 -16 36 -22 102 -28 l85 -9 -50 -22 c-27 -12 -65 -28
-82 -36 -18 -8 -33 -21 -33 -30 0 -8 20 -45 45 -82 25 -36 43 -68 41 -71 -3
-2 -35 15 -73 37 -38 23 -75 41 -82 41 -7 0 -29 -36 -49 -80 l-37 -80 3 105 4
105 -44 1 c-23 1 -56 4 -73 8 -29 6 -29 7 30 36 59 29 62 35 54 79 -3 17 2 20
34 21 20 1 40 5 43 8 10 9 23 87 24 135 0 26 4 41 10 37 6 -3 10 -17 10 -30z"/>
<path d="M13536 14048 c-3 -7 -14 -58 -25 -112 -11 -54 -23 -101 -26 -104 -2
-3 -50 -11 -105 -18 -156 -20 -159 -31 -20 -74 55 -18 100 -35 100 -38 -1 -14
-29 -138 -35 -154 -12 -30 10 -20 61 25 71 64 88 71 123 52 16 -8 32 -19 36
-24 3 -6 19 -20 36 -32 l30 -21 -7 53 c-4 30 -13 69 -20 88 -17 42 -17 41 2
41 9 0 46 9 82 19 37 11 79 22 95 25 15 4 27 11 27 16 0 6 -28 7 -73 4 l-74
-7 -7 33 c-5 27 -2 38 16 57 25 27 17 44 -10 20 -10 -9 -34 -23 -54 -32 -35
-14 -38 -14 -57 7 -11 11 -32 56 -46 99 -27 79 -41 102 -49 77z m75 -204 c5
-7 29 -15 53 -18 40 -6 56 -20 56 -46 0 -4 -13 -13 -30 -20 -48 -20 -53 -32
-30 -81 27 -60 26 -78 -2 -52 -13 11 -38 28 -56 38 -38 18 -33 21 -111 -50
-27 -25 -32 -26 -28 -10 16 56 29 116 26 119 -2 2 -37 15 -76 28 l-73 25 74
13 c41 7 79 16 86 20 6 4 16 27 21 51 6 24 15 62 21 84 l11 40 24 -65 c13 -36
29 -70 34 -76z"/>
<path d="M8506 13650 c12 -12 140 -30 199 -28 26 0 4 7 -65 19 -124 21 -148
23 -134 9z"/>
<path d="M6635 13415 c-9 -44 -22 -102 -28 -130 l-12 -49 -105 -18 c-205 -34
-324 -60 -354 -75 -34 -18 -28 -23 49 -43 104 -26 335 -101 335 -109 0 -4 -12
-18 -26 -32 -38 -35 -137 -159 -132 -164 2 -2 28 11 58 30 79 50 172 95 196
95 31 0 40 -14 124 -183 41 -83 80 -152 86 -154 7 -2 14 10 16 27 8 51 -10
240 -31 335 -10 50 -16 93 -13 96 11 11 218 39 357 48 145 10 185 20 163 39
-21 17 -109 38 -290 68 -90 15 -165 29 -167 31 -3 2 3 17 12 32 27 47 20 55
-20 22 -21 -17 -43 -31 -50 -31 -6 0 -36 46 -67 103 -85 158 -81 155 -101 62z
m71 -87 c56 -111 70 -125 127 -131 64 -8 340 -57 345 -62 2 -2 -32 -6 -75 -10
-135 -11 -286 -36 -329 -55 -23 -10 -67 -41 -98 -69 -31 -28 -64 -51 -74 -51
-9 0 -25 14 -34 31 -28 48 -118 82 -357 135 -13 3 -21 7 -19 9 2 3 100 20 217
39 129 20 217 39 221 46 5 7 14 48 21 92 7 43 16 78 21 78 4 0 20 -23 34 -52z
m73 -418 c11 -58 23 -132 26 -165 l6 -60 -53 100 c-30 55 -63 114 -74 132
l-19 32 40 41 c21 22 42 37 46 32 4 -4 17 -54 28 -112z m-219 40 c0 -9 -32
-30 -46 -30 -4 0 1 9 11 20 19 21 35 26 35 10z"/>
<path d="M6734 13144 c-13 -19 -14 -28 -5 -37 14 -14 27 -1 36 36 9 35 -9 36
-31 1z"/>
<path d="M13167 13424 c-44 -14 -77 -27 -75 -29 4 -4 120 28 158 43 48 20 -6
11 -83 -14z"/>
<path d="M10565 13249 c-462 -70 -1088 -399 -1673 -881 -640 -527 -1336 -1374
-2215 -2695 l-181 -271 -130 -33 c-308 -75 -1591 -450 -1646 -481 -33 -18
-117 -117 -260 -308 -169 -225 -212 -305 -188 -354 13 -28 97 -93 131 -101 15
-4 137 -80 272 -169 134 -88 332 -217 440 -286 107 -69 195 -128 195 -131 0
-3 -51 -25 -112 -49 -460 -174 -709 -327 -878 -537 -144 -178 -209 -413 -166
-595 l16 -68 -77 -97 c-280 -359 -621 -985 -718 -1318 -27 -96 -65 -294 -65
-345 l0 -32 68 58 c182 156 451 441 753 799 157 185 357 437 406 512 l35 51
96 -5 c54 -3 98 -7 100 -8 2 -2 -48 -92 -111 -202 -265 -459 -512 -943 -584
-1143 -95 -262 -113 -373 -113 -689 l0 -230 -35 15 c-69 29 -54 13 31 -32 187
-98 304 -245 355 -442 44 -173 2 -375 -105 -498 l-31 -36 -813 1 -814 2 -24
27 c-33 38 -91 158 -104 216 -12 54 -15 217 -5 262 56 249 254 442 498 484 54
10 74 10 99 -1 27 -11 32 -10 44 6 15 21 9 31 -21 37 -13 2 -25 18 -35 46 -13
38 -13 49 3 110 32 126 143 239 269 277 67 19 200 19 267 -1 29 -8 55 -13 58
-11 15 15 -24 47 -79 66 -158 54 -352 0 -473 -130 -72 -78 -98 -147 -99 -259
l-1 -86 -75 -18 c-234 -56 -421 -240 -480 -472 -22 -86 -27 -227 -10 -315 13
-67 65 -181 96 -210 13 -12 24 -25 24 -29 0 -4 -217 -10 -482 -14 -441 -6
-516 -11 -495 -32 3 -4 273 -11 599 -16 600 -10 3114 -3 3221 8 34 4 57 12 57
19 0 14 -395 25 -884 25 l-298 0 31 35 c102 117 147 339 102 515 -38 152 -134
308 -231 375 -22 15 -40 31 -40 35 0 4 19 13 42 20 65 19 204 92 290 152 162
112 294 240 559 543 262 300 615 722 709 847 l45 61 13 -33 c30 -74 29 -77
-70 -211 -342 -461 -681 -1039 -788 -1344 -38 -109 -80 -278 -80 -323 l0 -32
37 19 c160 81 481 367 787 701 256 279 613 698 623 730 3 11 20 15 63 17 95 2
169 22 267 69 256 123 448 427 510 809 12 74 17 164 16 342 l0 241 106 -87
c140 -116 419 -337 484 -383 29 -21 60 -38 70 -38 11 0 17 -8 17 -24 0 -27 62
-87 117 -114 29 -14 34 -14 58 2 26 17 437 559 457 603 17 35 -50 1065 -107
1653 -32 325 -32 287 2 323 48 51 324 402 504 642 364 484 700 979 990 1462
627 1041 982 2064 956 2753 -6 154 -16 207 -45 233 -23 21 -75 27 -147 16z
m80 -226 c19 -336 -77 -827 -264 -1337 -28 -77 -54 -143 -59 -148 -9 -9 -282
127 -412 206 -181 111 -445 301 -575 414 -59 51 -235 225 -235 231 1 12 389
280 512 355 210 126 437 235 648 312 91 33 289 79 351 83 l27 1 7 -117z
m-1548 -744 c242 -260 700 -584 1073 -756 92 -43 115 -57 113 -73 -5 -36 -125
-306 -239 -535 -146 -294 -264 -499 -290 -503 -47 -7 -306 117 -540 258 -352
212 -706 519 -931 807 l-65 83 158 167 c159 165 324 324 484 464 93 81 173
148 178 149 2 0 28 -27 59 -61z m-833 -893 c136 -178 417 -440 655 -610 248
-177 581 -358 764 -416 20 -6 37 -16 37 -22 0 -15 -146 -256 -299 -493 -305
-472 -690 -1009 -1026 -1430 -61 -77 -118 -150 -127 -163 -16 -23 -16 -23 -23
28 -12 88 -70 118 -119 63 -13 -16 -190 -255 -393 -533 -465 -637 -572 -780
-757 -1015 -340 -431 -334 -424 -389 -450 -78 -36 -308 -125 -324 -125 -16 0
36 79 276 420 205 292 269 384 439 630 74 107 158 229 187 270 162 235 322
480 350 538 86 175 70 393 -40 543 -148 200 -460 227 -627 52 -20 -21 -102
-137 -184 -258 -81 -121 -175 -260 -209 -310 -210 -306 -683 -1001 -797 -1169
-74 -110 -140 -202 -146 -204 -13 -4 -14 69 -3 358 5 151 9 181 27 215 23 44
257 414 388 614 104 158 159 243 359 556 351 548 545 862 554 893 4 16 -1 33
-15 50 -19 25 -24 27 -96 25 -57 -1 -74 1 -69 10 73 119 502 740 703 1017 209
287 463 616 684 883 109 132 133 155 141 141 6 -9 41 -58 79 -108z m-1554
-2060 c0 -9 -753 -1201 -785 -1244 -1 -1 -143 63 -314 143 -172 80 -340 157
-372 170 -32 14 -134 61 -225 105 -92 44 -173 80 -180 80 -8 0 -53 -39 -102
-87 -49 -49 -136 -135 -195 -192 l-106 -103 -42 28 c-65 45 -68 55 -28 105 43
56 312 383 351 428 28 31 47 39 251 97 122 34 404 114 627 178 363 102 823
228 1015 276 71 18 105 23 105 16z m536 -637 c57 -18 77 -30 129 -82 44 -45
67 -78 83 -120 29 -77 38 -176 22 -252 -14 -66 -54 -165 -68 -165 -4 0 -89 61
-188 136 -98 75 -230 175 -292 222 l-112 85 26 36 c110 148 234 191 400 140z
m-2263 -228 c78 -38 171 -83 207 -99 36 -16 198 -91 360 -167 162 -75 305
-141 318 -146 l23 -9 -28 -51 c-15 -28 -33 -53 -39 -56 -7 -2 -101 41 -211 95
-267 134 -799 382 -834 389 -16 3 -29 10 -29 16 0 10 79 97 88 97 2 0 67 -31
145 -69z m1973 -118 c82 -65 212 -165 287 -222 80 -61 134 -108 130 -115 -20
-35 -585 -868 -743 -1096 -48 -69 -149 -217 -224 -330 -76 -113 -141 -206
-145 -207 -3 -2 -7 18 -9 45 -6 125 -52 248 -118 315 -64 66 -148 97 -259 97
-63 0 -176 -23 -230 -46 -15 -6 -11 4 17 41 127 168 882 1253 1053 1512 44 67
82 122 85 122 3 1 73 -52 156 -116z m-2117 -6 l112 -53 -31 -29 c-16 -16 -35
-43 -42 -61 l-11 -33 -51 26 c-28 14 -78 44 -111 67 -32 22 -64 44 -70 48 -11
8 62 88 81 88 6 0 62 -24 123 -53z m-137 -149 c62 -39 140 -87 173 -106 33
-19 98 -60 145 -90 47 -31 148 -95 225 -142 277 -172 375 -235 375 -242 0 -5
-49 -84 -66 -107 -2 -2 -36 19 -76 46 -129 89 -930 604 -957 616 -14 6 -27 12
-29 13 -7 4 74 83 85 84 7 0 63 -32 125 -72z m406 21 c59 -28 108 -52 110 -54
2 -2 -13 -25 -34 -52 -20 -26 -41 -58 -47 -70 -6 -13 -15 -23 -21 -23 -11 0
-128 68 -195 113 l-43 29 53 54 c29 30 57 54 61 54 5 0 57 -23 116 -51z m3058
-141 c22 -201 53 -510 69 -703 29 -345 85 -1093 85 -1133 0 -35 -12 -59 -80
-159 -182 -270 -296 -428 -311 -431 -9 -1 -35 15 -59 36 l-44 39 21 29 c11 16
44 74 74 129 29 55 84 154 121 220 51 89 67 126 63 144 -6 23 -425 441 -682
681 -73 68 -133 125 -133 128 0 2 71 99 158 216 261 348 594 796 646 869 27
37 51 66 53 63 3 -3 11 -60 19 -128z m-2781 10 c44 -22 82 -42 84 -44 2 -2 -8
-13 -23 -25 -32 -25 -86 -102 -86 -123 0 -30 19 -16 75 57 32 39 60 73 64 75
9 3 211 -95 211 -103 0 -3 -26 -38 -57 -78 -32 -40 -65 -83 -73 -95 l-15 -23
-90 56 c-49 31 -99 65 -110 74 -11 10 -61 41 -111 70 -51 28 -97 57 -103 64
-8 10 4 29 52 79 71 75 64 74 182 16z m400 -205 c-13 -35 -130 -212 -140 -212
-5 0 -21 8 -34 19 l-23 20 51 55 c28 31 63 74 78 95 19 27 36 40 52 40 18 0
22 -4 16 -17z m-305 -443 c19 -10 18 -13 -10 -68 -36 -70 -50 -152 -50 -304 0
-135 1 -135 -85 -94 -119 56 -220 186 -249 322 l-7 31 139 52 c76 29 152 60
168 70 29 18 46 16 94 -9z m-421 -194 c36 -149 158 -284 300 -331 57 -18 61
-30 61 -154 l-1 -76 -106 -85 c-94 -74 -197 -179 -271 -274 l-22 -29 -73 12
c-288 47 -505 355 -446 632 13 61 35 84 158 167 94 62 373 204 382 194 4 -4
12 -29 18 -56z m2339 -363 c75 -71 208 -198 297 -283 88 -85 208 -201 267
-256 l106 -102 -35 -52 -35 -52 -81 79 c-45 43 -163 153 -262 243 -99 91 -218
201 -265 245 -47 45 -112 105 -145 134 -33 30 -64 60 -68 68 -6 10 3 28 30 58
21 24 42 44 47 44 5 1 70 -56 144 -126z m-2949 -2 c-28 -179 67 -398 225 -517
80 -61 122 -81 213 -105 42 -10 78 -21 80 -23 8 -8 -130 -202 -150 -209 -33
-13 -203 3 -265 24 -300 103 -407 472 -219 749 37 54 119 152 123 147 2 -2 -1
-32 -7 -66z m2804 -138 l37 -39 -47 -60 c-27 -32 -58 -73 -69 -89 l-22 -29
-56 44 c-31 25 -69 54 -84 65 -15 11 -30 23 -32 28 -3 4 28 50 69 102 l74 94
46 -38 c25 -22 63 -57 84 -78z m-1261 -29 c120 -38 175 -193 149 -415 -13
-109 -44 -231 -78 -307 -26 -60 -21 -59 -128 -15 -111 46 -199 95 -308 170
-59 42 -111 72 -114 69 -12 -12 79 -94 176 -159 137 -91 143 -94 234 -131 73
-30 82 -36 79 -57 -3 -30 -82 -170 -99 -176 -11 -4 -107 43 -245 122 -27 15
-48 22 -48 17 0 -22 100 -96 182 -135 48 -23 87 -45 88 -49 1 -36 -441 -623
-795 -1054 -394 -480 -592 -692 -755 -806 -117 -83 -261 -158 -302 -158 l-31
0 5 138 c5 126 9 147 47 260 92 279 427 897 718 1326 177 261 264 365 377 451
43 33 26 38 157 -50 41 -27 102 -63 136 -80 71 -34 73 -42 44 -126 -43 -126
-161 -328 -338 -581 -244 -347 -761 -1028 -877 -1155 -57 -62 -7 -33 75 45
165 155 812 996 1022 1330 97 154 184 335 197 409 18 107 -17 192 -105 253
-144 99 -291 77 -434 -68 -159 -160 -424 -559 -675 -1015 -166 -304 -244 -471
-317 -687 -32 -95 -35 -81 -14 65 39 273 158 536 553 1215 183 316 453 752
487 788 1 1 15 -2 30 -8 35 -13 43 -6 21 19 -11 12 -15 27 -12 38 8 21 166
205 181 210 6 2 28 -20 49 -47 38 -50 122 -117 133 -106 3 3 -32 44 -77 91
l-83 87 44 39 c63 56 204 151 276 188 l62 31 55 -58 c96 -100 158 -115 67 -16
-77 84 -79 91 -34 103 81 23 142 21 225 -5z m1408 -109 c63 -63 64 -65 44 -80
-12 -8 -40 -44 -64 -80 -28 -43 -46 -62 -54 -57 -25 20 -151 116 -155 119 -2
1 9 13 25 26 16 14 49 50 74 81 25 31 49 56 55 56 6 0 40 -29 75 -65z m-395
-35 c33 -28 94 -77 135 -110 41 -33 107 -86 146 -117 40 -32 182 -147 318
-256 135 -109 246 -206 246 -214 0 -19 -38 -73 -51 -73 -9 0 -228 171 -429
334 -70 57 -392 314 -470 375 l-34 27 34 42 c19 23 37 42 40 41 3 0 32 -22 65
-49z m556 -109 c58 -54 62 -61 47 -73 -20 -16 -98 -119 -98 -130 0 -5 9 -8 20
-8 14 0 36 22 67 64 l47 65 27 -20 c15 -10 49 -39 75 -62 l48 -44 -36 -43
c-20 -23 -44 -57 -53 -76 -16 -34 -16 -34 -43 -17 -15 9 -56 42 -92 73 -36 31
-92 77 -125 102 -95 72 -95 72 -48 121 22 23 50 57 62 75 12 17 26 32 30 32 5
0 37 -27 72 -59z m-658 -85 l87 -70 0 -192 c0 -220 8 -204 -99 -204 -84 0
-167 21 -245 63 -67 35 -174 134 -200 184 l-16 33 37 15 c21 9 58 23 83 31 92
30 143 66 200 141 30 40 57 72 60 70 3 -1 44 -33 93 -71z m1057 -268 c13 -4
-16 -75 -61 -147 l-20 -34 -42 40 c-23 22 -63 57 -89 78 -27 20 -48 41 -48 45
0 4 11 12 24 18 13 6 39 35 57 65 l34 54 66 -57 c37 -32 72 -59 79 -62z
m-3702 50 c38 -55 126 -137 175 -163 21 -11 35 -25 32 -32 -6 -17 -266 -363
-478 -638 -197 -254 -466 -571 -632 -744 l-23 -23 9 45 c68 364 339 881 761
1448 61 82 115 149 119 149 4 0 21 -19 37 -42z m2163 -47 c96 -153 315 -262
497 -247 l73 6 -6 -73 c-10 -111 -33 -244 -57 -327 -27 -89 -73 -142 -167
-189 -78 -40 -136 -52 -241 -52 -234 1 -433 133 -505 336 l-17 51 33 49 c53
79 142 263 172 356 l28 85 72 32 c40 17 74 31 77 31 3 0 21 -26 41 -58z
m-1034 -297 c65 -31 113 -84 113 -124 l0 -29 -23 23 c-12 12 -71 51 -130 86
-59 35 -107 68 -107 73 0 16 92 -2 147 -29z m613 -337 c67 -137 212 -252 371
-291 133 -33 306 -13 415 48 26 14 49 24 52 21 3 -2 -17 -42 -44 -87 -147
-246 -401 -368 -626 -298 -169 52 -289 186 -333 372 -22 94 -20 115 18 158 19
20 49 62 68 93 18 31 36 57 39 57 3 0 21 -33 40 -73z m-132 -523 c50 -63 167
-149 226 -166 23 -6 43 -13 44 -14 10 -7 -417 -536 -641 -794 -128 -146 -402
-420 -532 -530 -147 -125 -136 -118 -129 -79 10 53 77 235 122 331 49 105 171
325 260 466 136 217 583 843 601 841 3 0 25 -25 49 -55z"/>
<path d="M10223 12914 c-59 -12 -119 -38 -158 -68 -33 -26 5 -20 71 11 51 24
71 28 153 28 l93 0 35 -40 c76 -86 94 -171 68 -315 -10 -52 -20 -108 -23 -124
-3 -20 -1 -27 6 -22 23 14 54 141 59 242 8 146 -10 182 -132 261 -53 35 -99
42 -172 27z"/>
<path d="M9914 12752 c-158 -97 -307 -212 -292 -227 5 -5 268 167 356 232 30
23 42 43 24 43 -5 0 -44 -22 -88 -48z"/>
<path d="M10415 12238 c-40 -85 -61 -174 -50 -215 8 -26 9 -24 17 25 4 28 24
94 44 145 20 50 39 98 41 105 3 6 0 12 -6 12 -7 0 -27 -33 -46 -72z"/>
<path d="M9160 11717 c-163 -47 -275 -169 -303 -331 -13 -76 -2 -149 35 -225
31 -64 121 -152 193 -186 53 -26 71 -29 155 -30 86 0 101 3 162 32 159 75 252
238 233 405 -9 79 -62 184 -121 238 -95 87 -244 128 -354 97z m197 -88 c77
-29 152 -104 182 -183 93 -249 -152 -497 -404 -409 -113 40 -206 175 -205 301
2 216 222 366 427 291z"/>
<path d="M9983 11083 c-39 -39 -263 -448 -263 -481 0 -42 53 42 227 361 64
116 77 161 36 120z"/>
<path d="M8095 10532 c-146 -44 -237 -104 -372 -245 -188 -197 -293 -405 -293
-582 1 -419 435 -741 830 -616 219 69 437 308 547 599 53 141 63 246 38 378
-39 205 -194 382 -397 454 -88 31 -268 37 -353 12z m289 -82 c151 -38 269
-131 331 -261 46 -96 59 -164 52 -279 -6 -109 -29 -186 -100 -327 -115 -228
-221 -345 -362 -401 -64 -25 -177 -44 -172 -28 2 6 46 41 98 77 52 36 110 86
129 112 47 62 179 308 187 348 11 56 -11 25 -93 -126 -102 -190 -141 -238
-264 -325 -56 -40 -104 -78 -107 -86 -6 -17 -44 -18 -115 -3 -74 16 -133 43
-209 95 l-66 45 -7 157 c-5 106 -3 175 4 212 16 76 103 255 152 313 59 71 35
72 -29 2 -66 -73 -128 -195 -149 -296 -12 -57 -14 -103 -8 -201 5 -92 3 -128
-5 -128 -18 0 -67 74 -97 148 -37 89 -46 251 -19 334 56 169 206 384 350 498
158 125 323 165 499 120z"/>
<path d="M7245 10019 c-118 -110 -376 -490 -362 -532 2 -6 28 24 57 68 89 133
243 335 329 433 64 72 78 92 62 92 -11 0 -50 -28 -86 -61z"/>
<path d="M8638 9053 c-43 -51 -304 -471 -296 -478 8 -9 237 330 286 423 34 64
38 87 10 55z"/>
<path d="M6390 9059 c-19 -5 -98 -26 -175 -45 -271 -70 -648 -185 -627 -192 6
-2 62 10 124 27 62 16 176 46 253 66 153 39 361 103 440 134 52 21 45 26 -15
10z"/>
<path d="M7960 7863 c0 -9 28 -229 59 -463 11 -85 27 -218 36 -294 15 -138 19
-155 32 -143 9 9 -34 476 -56 617 -27 165 -54 290 -63 290 -4 0 -8 -3 -8 -7z"/>
<path d="M5140 5766 c0 -19 100 -110 149 -135 66 -34 85 -22 28 17 -26 19 -74
56 -107 83 -64 53 -70 56 -70 35z"/>
<path d="M5060 5324 c-49 -53 -130 -164 -225 -309 -347 -534 -458 -716 -417
-691 6 3 89 124 186 269 194 288 243 359 380 552 102 143 129 188 124 212 -2
11 -17 1 -48 -33z"/>
<path d="M4193 6068 c-42 -44 -271 -365 -406 -568 -124 -188 -131 -200 -118
-200 10 0 57 61 283 370 281 385 310 430 278 430 -3 0 -20 -15 -37 -32z"/>
<path d="M4342 5982 c-30 -20 -85 -90 -289 -367 -363 -495 -532 -739 -519
-753 10 -9 8 -12 353 448 438 583 487 651 481 673 -3 13 -6 13 -26 -1z"/>
<path d="M5724 4773 c-209 -263 -593 -807 -579 -821 3 -3 6 -3 8 -1 2 2 21 27
43 54 64 78 486 643 531 710 98 146 96 182 -3 58z"/>
<path d="M5918 4713 c-138 -146 -687 -876 -688 -915 0 -20 21 -3 71 60 154
187 619 798 674 885 29 45 1 31 -57 -30z"/>
<path d="M5187 3812 c-32 -33 -36 -54 -6 -26 20 18 44 54 36 54 -2 0 -15 -13
-30 -28z"/>
<path d="M13010 13210 c0 -5 11 -10 25 -10 14 0 25 5 25 10 0 6 -11 10 -25 10
-14 0 -25 -4 -25 -10z"/>
<path d="M13190 13210 c0 -5 25 -10 55 -10 30 0 55 5 55 10 0 6 -25 10 -55 10
-30 0 -55 -4 -55 -10z"/>
<path d="M4444 13124 c-14 -32 -30 -69 -35 -81 l-8 -21 -92 34 c-50 19 -96 34
-102 34 -25 0 31 -41 104 -75 l82 -38 17 23 c9 12 25 44 34 71 10 27 22 51 26
54 4 3 18 -22 30 -55 24 -65 40 -76 98 -65 l36 7 -24 -21 c-14 -11 -20 -20
-13 -21 6 0 14 4 18 9 3 5 40 26 83 47 89 43 77 55 -25 25 -37 -11 -83 -22
-102 -23 -34 -3 -35 -2 -63 72 -16 41 -31 76 -33 79 -3 2 -17 -22 -31 -55z"/>
<path d="M4366 12948 c-2 -7 -19 -57 -37 -110 -18 -53 -30 -100 -26 -104 3 -4
26 11 49 32 24 22 60 52 80 68 l38 28 37 -30 c21 -17 54 -46 72 -66 19 -20 38
-36 42 -36 4 0 -4 41 -17 92 -13 51 -24 100 -24 110 0 10 -7 18 -15 18 -19 0
-19 -5 0 -66 8 -27 15 -58 15 -69 -1 -20 -1 -20 -18 0 -25 30 -73 65 -88 65
-7 0 -38 -20 -69 -45 -30 -25 -55 -43 -55 -41 0 9 30 135 36 150 3 9 1 16 -5
16 -7 0 -13 -6 -15 -12z"/>
<path d="M2878 12660 c-198 -32 -355 -115 -497 -266 -130 -137 -194 -289 -195
-464 -1 -47 2 -101 7 -121 l7 -35 -79 -23 c-132 -38 -243 -125 -316 -246 -108
-181 -106 -426 6 -573 l39 -52 -173 0 c-161 0 -213 -8 -193 -27 27 -28 5104
-28 5132 0 4 4 4 10 0 15 -7 7 -673 18 -1249 21 l-268 1 31 38 c37 46 67 128
82 227 24 156 -41 342 -161 464 -63 63 -170 130 -231 144 -24 6 -25 9 -26 89
-2 168 -62 320 -172 439 -73 79 -75 70 23 122 56 30 66 32 160 32 92 0 105 -3
167 -33 75 -36 152 -113 188 -187 l22 -45 96 0 c178 0 293 -45 416 -160 176
-166 276 -411 276 -676 0 -114 -17 -196 -60 -291 -27 -58 -28 -64 -9 -47 29
26 62 94 90 184 33 103 33 285 1 413 -60 240 -190 433 -367 542 -103 64 -188
87 -310 87 l-101 -1 -28 55 c-61 117 -225 214 -361 214 -83 0 -216 -53 -265
-105 l-22 -23 -60 39 c-110 71 -217 101 -358 102 -143 0 -276 -42 -399 -126
l-43 -29 -45 51 c-85 98 -227 182 -379 226 -99 29 -278 40 -376 25z m299 -65
c194 -41 339 -125 450 -260 l46 -55 48 35 c125 90 245 129 394 128 180 0 317
-55 440 -178 119 -118 175 -258 175 -435 l0 -97 51 -11 c141 -33 269 -140 337
-283 52 -108 68 -201 52 -301 -11 -76 -60 -196 -90 -223 -16 -14 -111 -16
-914 -16 -712 0 -901 3 -915 13 -30 21 -67 70 -97 128 -40 78 -46 217 -14 322
42 137 111 246 201 315 58 44 48 56 -15 19 -131 -77 -245 -301 -246 -483 0
-114 40 -223 106 -287 l37 -36 -510 0 c-280 0 -578 -3 -660 -7 l-151 -6 -28
29 c-15 16 -43 63 -62 104 -32 67 -36 86 -40 177 -5 125 17 209 79 302 44 66
135 149 197 180 115 57 260 63 399 15 41 -14 76 -24 78 -22 2 2 -1 24 -6 48
-6 25 -9 93 -7 151 4 92 8 114 35 171 36 76 98 148 162 190 51 32 36 37 -26 8
-90 -40 -181 -170 -203 -289 -5 -29 -10 -90 -10 -133 0 -72 -2 -79 -17 -73
-44 16 -131 35 -165 35 -52 0 -62 26 -61 165 0 93 4 121 25 177 88 236 294
416 546 478 96 23 282 26 379 5z"/>
<path d="M3468 12101 c-125 -40 -219 -129 -252 -238 -11 -35 7 -27 28 12 25
46 111 127 164 154 23 12 76 29 118 37 88 18 185 9 274 -26 82 -32 92 -21 21
25 -89 56 -242 71 -353 36z"/>
<path d="M3005 11593 c-54 -53 -74 -203 -38 -278 17 -35 42 -51 28 -17 -4 9
-10 56 -13 104 -4 77 -2 92 22 144 28 62 29 75 1 47z"/>
<path d="M13595 12171 c-25 -6 -18 -8 36 -14 238 -26 470 -195 510 -371 11
-50 10 -57 -13 -107 -14 -30 -40 -69 -58 -86 -43 -42 -22 -43 24 -3 147 130
76 365 -152 499 -105 62 -266 100 -347 82z"/>
<path d="M12730 12055 c-36 -8 -93 -29 -128 -46 -77 -37 -180 -132 -213 -194
-21 -40 -28 -45 -59 -45 -94 0 -251 -119 -308 -233 -101 -200 -80 -462 49
-601 l41 -45 -148 -3 c-96 -2 -149 -7 -151 -14 -7 -21 119 -24 987 -24 1026 0
1470 8 1470 25 0 18 -476 28 -1380 29 l-754 1 -38 50 c-84 111 -117 287 -84
437 19 85 66 171 129 235 45 47 142 99 197 108 28 4 41 14 65 53 41 64 128
146 196 182 210 111 471 66 652 -113 82 -81 138 -178 157 -270 l12 -58 71 -35
c124 -63 220 -187 247 -319 12 -56 9 -151 -6 -188 -3 -9 -2 -17 4 -17 16 0 32
59 32 121 0 69 9 80 87 109 80 30 164 35 246 16 128 -30 210 -89 268 -192 55
-96 70 -72 20 31 -99 206 -405 287 -589 156 l-28 -19 -23 64 c-43 121 -148
232 -258 274 -46 17 -47 18 -63 86 -9 38 -29 96 -45 129 -37 74 -159 200 -236
242 -125 70 -292 97 -419 68z"/>
<path d="M12708 11495 c-108 -40 -188 -163 -188 -289 0 -71 17 -72 23 -2 8 87
40 157 94 207 60 55 104 72 186 73 59 0 66 2 51 13 -23 17 -118 16 -166 -2z"/>
<path d="M4255 10511 c-90 -23 -142 -80 -159 -173 -20 -111 82 -228 199 -228
158 0 256 193 164 321 -41 59 -139 96 -204 80z m112 -47 c44 -22 79 -67 93
-125 10 -41 9 -53 -8 -93 -25 -56 -97 -106 -151 -106 -110 1 -198 108 -171
209 29 107 139 161 237 115z"/>
<path d="M12372 10499 c-151 -75 -156 -297 -8 -368 64 -32 106 -36 164 -17 67
23 118 76 138 143 17 58 13 96 -16 153 -49 96 -179 138 -278 89z m192 -46 c74
-53 97 -143 56 -224 -22 -43 -62 -72 -122 -91 -75 -22 -181 45 -207 132 -23
78 17 158 104 205 43 23 119 13 169 -22z"/>
<path d="M3055 10483 c-31 -8 -72 -52 -79 -84 -7 -38 14 -91 45 -113 13 -9 42
-16 65 -16 116 0 146 161 38 206 -35 15 -36 15 -69 7z m80 -48 c44 -43 30
-114 -25 -134 -37 -12 -72 -1 -94 31 -24 34 -19 66 13 99 36 36 73 37 106 4z"/>
<path d="M13895 9813 c-16 -43 -32 -88 -37 -101 -8 -23 -9 -22 -46 18 -22 22
-45 40 -52 40 -12 0 -11 -5 6 -66 11 -40 -55 -75 -210 -109 -43 -9 -21 -22 72
-39 117 -22 117 -23 81 -76 -16 -25 -39 -63 -50 -84 -25 -47 -23 -47 97 24 46
27 91 50 99 50 8 0 40 -12 72 -26 96 -43 183 -74 183 -65 0 4 -13 26 -30 47
-57 74 -92 125 -88 128 1 2 46 26 98 54 52 28 104 58 115 67 22 18 36 19 -125
-6 -111 -16 -125 -9 -140 81 -7 39 -10 87 -8 106 6 55 -7 39 -37 -43z m121
-171 c40 2 70 0 68 -4 -3 -4 -34 -21 -69 -37 -36 -17 -65 -37 -65 -45 0 -8 20
-41 44 -73 24 -32 43 -59 41 -61 -1 -2 -41 15 -89 38 l-86 40 -80 -40 -79 -40
30 45 c17 24 34 47 40 50 24 16 6 34 -38 40 -27 4 -66 12 -88 19 l-40 13 88
23 87 23 0 34 0 34 29 -20 c45 -32 60 -27 84 29 l21 51 15 -62 15 -61 72 4z"/>
<path d="M2525 9726 c-66 -21 -98 -42 -148 -95 -63 -67 -60 -83 3 -20 126 126
304 142 409 38 75 -75 91 -184 42 -285 -28 -57 -33 -63 -112 -103 -109 -56
-136 -78 -167 -130 -36 -61 -41 -163 -13 -246 l20 -60 -7 55 c-24 189 12 256
183 343 76 38 117 76 135 121 9 24 14 27 38 22 58 -14 134 -59 155 -92 26 -40
41 -45 27 -9 -25 65 -116 135 -174 135 -19 0 -21 6 -21 68 0 93 -24 151 -87
206 -27 25 -66 50 -86 56 -50 13 -148 12 -197 -4z"/>
<path d="M13060 9331 c-36 -36 -46 -73 -30 -112 18 -43 56 -69 102 -69 32 0
47 7 74 34 38 38 44 77 19 126 -19 37 -43 50 -95 50 -32 0 -48 -6 -70 -29z
m111 -1 c10 -6 26 -24 34 -41 14 -27 14 -33 0 -63 -38 -79 -134 -65 -151 22
-5 26 -1 36 24 62 32 31 60 37 93 20z"/>
<path d="M11288 9144 c-59 -31 -80 -135 -39 -192 45 -63 148 -70 205 -13 28
28 31 37 31 92 0 57 -2 62 -37 95 -32 29 -45 34 -85 34 -27 -1 -60 -7 -75 -16z
m138 -35 c12 -12 28 -34 34 -50 27 -64 -60 -154 -126 -129 -69 27 -97 84 -69
144 31 64 111 82 161 35z"/>
<path d="M12475 8686 c-8 -19 -15 -40 -15 -46 0 -16 -52 -12 -122 10 -34 11
-72 20 -83 20 l-20 -1 20 -15 c11 -9 45 -28 75 -44 85 -43 97 -62 105 -155 15
-189 28 -199 72 -57 l31 97 98 5 99 5 -40 18 c-155 70 -168 81 -180 150 -10
51 -23 55 -40 13z m73 -124 c52 -17 54 -30 5 -34 -37 -3 -38 -4 -59 -68 l-21
-65 -12 80 c-6 43 -18 86 -26 95 -22 24 -19 30 15 30 26 0 30 4 37 38 l8 37 5
-49 c5 -48 6 -50 48 -64z"/>
<path d="M1810 8655 c-17 -25 -40 -50 -52 -56 -19 -10 -25 -8 -44 15 -25 28
-44 34 -44 12 0 -7 -3 -28 -6 -45 -7 -35 14 -45 23 -11 5 19 7 19 22 6 15 -14
20 -14 46 0 17 8 42 28 57 45 l26 31 14 -48 14 -49 97 -3 c53 -1 97 -6 97 -11
0 -9 -130 -71 -148 -71 -16 0 -15 -29 3 -80 8 -24 13 -45 11 -48 -3 -2 -35 5
-72 17 -37 12 -73 21 -80 21 -7 0 -18 -34 -28 -87 -9 -47 -17 -88 -19 -90 -2
-2 -11 38 -20 88 -9 51 -18 93 -19 95 -2 1 -31 -3 -65 -10 l-61 -13 50 46 c50
46 53 53 46 115 -2 16 0 15 -163 90 -65 30 -122 53 -125 50 -9 -9 48 -50 157
-111 56 -32 103 -63 103 -70 0 -7 -32 -44 -71 -83 -40 -39 -69 -73 -66 -77 4
-3 45 4 92 17 47 13 88 21 91 18 3 -3 12 -48 20 -99 23 -154 25 -162 34 -153
4 5 18 64 30 132 12 67 23 122 24 122 17 -1 106 -35 145 -55 29 -14 55 -24 58
-21 3 3 -11 40 -31 82 -20 42 -35 77 -34 78 31 12 162 84 170 93 18 22 3 27
-105 32 -113 7 -108 3 -122 94 -3 20 -10 37 -15 37 -5 0 -23 -20 -40 -45z"/>
<path d="M3935 8589 c-98 -33 -171 -71 -225 -118 -46 -39 -26 -39 52 1 34 17
119 50 188 72 91 30 126 46 128 59 5 26 -38 22 -143 -14z"/>
<path d="M13534 8502 c-70 -130 -124 -222 -132 -222 -5 0 -16 26 -26 58 -10
31 -25 68 -32 82 -13 23 -14 19 -8 -45 12 -138 47 -159 116 -71 23 30 44 54
45 52 2 -2 -4 -35 -13 -74 -9 -40 -14 -78 -11 -86 3 -8 21 -17 39 -21 47 -10
231 -64 236 -70 3 -3 -28 -5 -69 -6 -107 -2 -194 -13 -192 -24 1 -6 4 -44 8
-85 l7 -75 -28 32 c-16 17 -48 48 -72 69 l-43 37 -45 -49 c-44 -48 -45 -48
-40 -19 2 17 2 43 -1 59 -6 28 -6 28 -62 22 l-56 -6 58 39 c32 21 65 50 72 64
12 24 11 28 -18 52 l-32 25 45 -2 c37 -3 45 0 48 16 3 13 0 17 -9 14 -16 -6
-123 6 -157 16 -38 12 -24 -9 33 -50 86 -62 84 -72 -32 -136 -40 -22 -83 -49
-96 -59 -22 -19 -21 -19 85 -13 l107 7 -5 -39 c-3 -22 -10 -56 -16 -77 -6 -20
-9 -40 -6 -42 5 -6 40 29 104 103 l29 33 42 -39 c22 -21 53 -57 68 -80 47 -72
54 -64 52 56 l-2 107 105 7 c151 10 231 21 232 33 1 12 -191 79 -272 95 -110
22 -99 14 -85 67 61 230 76 294 73 305 -3 7 -22 -20 -44 -60z"/>
<path d="M3858 8095 c-74 -27 -214 -106 -275 -155 -62 -50 -148 -148 -139
-158 3 -2 34 22 69 54 77 70 191 139 324 198 61 26 99 49 101 59 4 21 -27 22
-80 2z"/>
<path d="M10446 7827 c-3 -12 -6 -33 -6 -46 l0 -24 -120 6 c-66 4 -120 3 -120
-2 0 -10 68 -40 149 -66 53 -17 53 -18 47 -51 -3 -19 -9 -50 -12 -69 -8 -45 2
-44 59 5 l46 41 43 -38 c23 -21 49 -44 56 -51 20 -18 52 -34 52 -25 0 5 -18
44 -40 88 -22 44 -40 85 -40 90 0 6 23 23 52 38 82 46 130 78 125 84 -3 3 -32
-3 -64 -12 -32 -10 -82 -23 -111 -30 -50 -12 -52 -12 -46 7 6 20 -16 52 -47
69 -13 6 -18 3 -23 -14z m46 -57 c3 -23 7 -25 56 -25 l53 1 -33 -16 c-20 -10
-39 -13 -49 -9 -11 6 -5 -12 18 -57 19 -36 33 -67 31 -69 -2 -2 -21 11 -43 30
-21 19 -40 35 -42 35 -2 0 -17 -15 -34 -32 l-30 -33 6 48 6 47 -43 20 -43 20
52 0 c56 0 73 14 73 61 0 30 17 13 22 -21z"/>
<path d="M4247 7750 c-31 -61 -35 -124 -11 -158 22 -32 37 -27 31 11 -2 17 0
65 5 106 5 40 7 78 5 84 -2 6 -15 -13 -30 -43z"/>
<path d="M13600 7751 c0 -17 95 -172 98 -161 4 10 -85 170 -94 170 -2 0 -4 -4
-4 -9z"/>
<path d="M13094 7683 c-51 -62 -94 -120 -94 -127 0 -3 3 -6 8 -6 6 0 30 30
125 158 6 7 8 15 5 17 -3 3 -22 -16 -44 -42z"/>
<path d="M3423 7411 c-141 -75 -250 -180 -306 -294 -44 -92 -40 -104 11 -27
78 120 189 215 342 297 55 30 79 63 43 63 -10 0 -51 -18 -90 -39z"/>
<path d="M3874 7312 c-228 -67 -348 -289 -268 -496 5 -13 0 -16 -25 -16 -66 0
-170 -32 -229 -69 -195 -126 -245 -380 -114 -579 83 -126 248 -204 363 -171
l44 13 -77 7 c-138 12 -260 98 -322 229 -27 57 -31 76 -31 150 0 74 4 93 29
145 72 147 220 227 388 211 80 -7 81 -6 41 80 -58 126 -28 263 78 358 67 61
141 88 254 94 69 3 100 0 129 -12 43 -18 56 -14 40 12 -34 55 -186 77 -300 44z"/>
<path d="M11801 7203 c-60 -67 -73 -87 -48 -77 17 7 126 144 114 144 -3 0 -33
-30 -66 -67z"/>
<path d="M11276 7154 c-3 -9 -6 -79 -6 -157 0 -78 -3 -151 -6 -163 -4 -16 -32
-30 -122 -63 -135 -49 -225 -92 -223 -106 0 -5 57 -15 125 -22 126 -12 186
-31 186 -58 0 -8 -16 -40 -35 -72 -39 -65 -41 -73 -20 -73 8 0 33 25 56 55 23
30 45 52 50 49 16 -9 83 -105 124 -176 62 -108 66 -94 35 122 -10 74 -21 142
-25 151 -5 13 15 23 102 53 189 66 310 116 329 138 l19 21 -207 -7 c-157 -5
-208 -4 -208 5 0 19 -149 319 -159 319 -5 0 -12 -7 -15 -16z m91 -201 c28 -60
54 -116 57 -127 6 -17 16 -18 174 -11 92 4 165 5 162 2 -8 -9 -344 -117 -363
-117 -9 0 -27 -12 -40 -27 -12 -15 -36 -43 -53 -62 l-32 -35 -29 31 c-38 40
-86 53 -200 53 -53 0 -93 4 -93 10 0 5 39 21 88 35 230 68 249 76 256 113 3
15 7 75 8 135 1 59 5 107 8 107 4 0 29 -48 57 -107z m39 -437 c8 -50 17 -102
19 -116 4 -20 1 -19 -14 10 -11 19 -40 60 -65 90 -25 30 -46 59 -46 65 0 5 17
27 37 49 36 38 37 38 45 16 5 -13 15 -64 24 -114z"/>
<path d="M11391 6774 c-12 -15 -21 -36 -21 -47 0 -24 1 -24 28 31 25 48 22 53
-7 16z"/>
<path d="M8585 7141 c-3 -5 23 -65 58 -133 137 -267 193 -561 136 -713 -24
-66 -19 -82 11 -34 70 114 67 326 -6 549 -46 137 -155 340 -183 340 -6 0 -12
-4 -16 -9z"/>
<path d="M10856 7101 c9 -15 32 -46 51 -67 30 -33 32 -34 17 -9 -38 65 -67
105 -76 105 -5 0 -2 -13 8 -29z"/>
<path d="M11706 6378 c16 -27 103 -134 125 -153 l23 -20 -24 35 c-46 67 -113
150 -122 150 -5 0 -6 -6 -2 -12z"/>
<path d="M10357 6093 c-2 -5 -12 -32 -22 -61 -21 -65 -38 -74 -184 -98 -56
-10 -101 -21 -101 -25 0 -9 93 -37 154 -45 25 -4 46 -8 46 -9 0 -2 -23 -42
-51 -90 -28 -47 -48 -89 -45 -92 3 -3 33 16 68 42 96 72 109 77 155 61 21 -8
65 -30 97 -50 58 -35 76 -42 76 -31 0 10 -52 109 -72 138 -19 27 -19 27 2 27
12 0 55 14 96 31 71 30 93 49 57 49 -37 1 -201 20 -215 25 -9 4 -21 31 -28 66
-12 57 -24 78 -33 62z m36 -139 c4 -4 46 -15 95 -24 l87 -16 -68 -19 c-37 -10
-70 -22 -73 -27 -3 -4 9 -33 26 -63 17 -30 29 -55 25 -55 -3 0 -32 14 -65 30
-33 17 -70 30 -82 30 -13 0 -47 -16 -76 -36 l-53 -35 26 41 c14 22 30 52 35
65 10 27 10 27 -80 44 l-45 8 45 11 c132 35 134 36 154 77 l20 39 10 -31 c6
-17 14 -35 19 -39z"/>
<path d="M12682 6038 c-45 -92 -73 -160 -68 -165 2 -3 12 10 21 27 29 56 86
193 82 197 -2 2 -18 -25 -35 -59z"/>
<path d="M9307 6068 c-2 -7 3 -40 11 -73 8 -33 15 -104 16 -157 0 -54 4 -98 8
-98 15 0 30 107 25 179 -7 102 -44 194 -60 149z"/>
<path d="M12416 5978 c4 -7 32 -43 61 -80 29 -37 53 -72 53 -78 0 -14 -73 -81
-132 -122 -27 -18 -48 -36 -48 -39 0 -3 27 -18 60 -33 33 -15 60 -32 60 -37 0
-4 -30 -31 -67 -58 -98 -72 -116 -87 -78 -66 58 33 165 119 162 130 -2 5 -24
20 -50 33 -26 12 -47 26 -47 30 0 4 18 18 40 32 37 23 125 128 125 150 0 9
-133 150 -142 150 -2 0 -1 -6 3 -12z"/>
<path d="M12595 5843 c6 -6 44 -22 85 -37 108 -39 109 -40 57 -65 -68 -33
-127 -79 -127 -99 0 -10 7 -27 15 -38 13 -20 12 -22 -26 -39 -46 -21 -46 -22
-53 -175 l-5 -115 19 130 c10 72 19 131 19 131 1 1 16 7 34 14 58 24 61 30 30
62 -28 29 -28 30 -8 44 11 8 62 36 112 62 51 26 93 49 93 52 0 4 -48 21 -107
39 -141 44 -150 46 -138 34z"/>
<path d="M2300 5813 c0 -17 83 -145 103 -157 12 -8 55 -19 94 -26 40 -6 75
-15 77 -19 3 -4 -26 -17 -65 -30 -38 -12 -69 -27 -69 -34 0 -6 11 -27 24 -46
13 -20 27 -49 30 -66 6 -29 5 -28 -35 18 -23 26 -45 47 -50 47 -5 0 -21 -24
-36 -52 -15 -29 -28 -46 -29 -38 -2 8 -6 41 -9 73 l-6 57 -72 0 -72 1 73 31
c68 29 72 33 72 62 -1 17 -7 42 -16 56 -14 24 -15 24 -12 -22 3 -53 15 -43
-119 -99 -29 -12 -53 -25 -53 -30 0 -13 70 -29 126 -29 61 0 64 -5 64 -117 0
-40 3 -73 8 -73 4 0 22 29 41 65 18 36 37 65 41 65 4 0 33 -28 65 -62 32 -35
60 -58 62 -52 2 6 -8 53 -22 105 -14 52 -25 97 -25 100 0 3 34 16 75 29 56 18
75 28 73 39 -3 18 -85 38 -155 40 -24 1 -43 3 -43 6 0 3 9 33 21 66 29 87 18
108 -16 32 -16 -35 -31 -63 -34 -63 -7 1 -58 71 -79 107 -12 22 -32 31 -32 16z"/>
<path d="M3452 5610 c-39 -60 -41 -103 -7 -117 28 -10 36 11 33 83 l-3 69 -23
-35z"/>
<path d="M12458 5443 c-64 -113 -90 -163 -84 -163 5 0 156 246 156 254 0 23
-24 -8 -72 -91z"/>
<path d="M7500 5389 c-19 -16 -59 -43 -87 -59 -78 -44 -67 -64 22 -39 46 13
115 77 115 108 0 28 -8 26 -50 -10z"/>
<path d="M7988 5272 c-58 -35 -74 -116 -35 -173 39 -59 98 -74 163 -43 61 29
83 107 50 172 -30 58 -120 81 -178 44z m135 -40 c59 -57 18 -162 -64 -162
-101 1 -136 146 -44 186 38 17 73 10 108 -24z"/>
<path d="M9184 5175 c-118 -59 -129 -209 -21 -289 40 -30 144 -30 183 0 64 47
89 124 65 197 -15 45 -68 93 -118 106 -51 15 -52 14 -109 -14z m144 -37 c112
-68 60 -248 -71 -248 -81 0 -137 58 -137 142 0 39 6 54 31 83 50 56 108 64
177 23z"/>
<path d="M7250 4971 c0 -5 15 -41 34 -81 131 -272 4 -550 -259 -568 -85 -5
-147 10 -179 45 l-24 26 -18 -28 c-14 -21 -17 -42 -15 -84 2 -31 4 -101 5
-156 1 -91 -2 -105 -27 -155 -74 -145 -218 -220 -399 -207 -153 10 -288 104
-326 226 l-17 56 -3 -39 c-10 -114 109 -241 263 -280 162 -43 340 1 448 109
95 94 134 238 108 390 -7 37 -11 69 -9 70 2 2 30 -6 63 -17 80 -27 186 -21
267 15 161 72 260 261 229 440 -15 88 -46 166 -83 211 -28 34 -58 48 -58 27z"/>
<path d="M11775 4271 c-166 -28 -318 -96 -446 -199 l-84 -69 -58 28 c-33 15
-95 33 -143 40 -77 11 -95 10 -191 -9 -147 -29 -250 -81 -342 -171 l-69 -68
-62 39 c-296 188 -690 198 -953 24 -74 -49 -156 -130 -207 -206 -39 -58 -42
-60 -85 -60 -62 0 -191 -43 -250 -84 -58 -39 -86 -65 -135 -123 l-35 -41 -57
38 c-31 21 -80 43 -110 50 -31 8 -67 25 -87 43 -19 16 -60 41 -90 56 -49 22
-69 26 -161 26 -96 0 -110 -3 -165 -29 -113 -56 -205 -173 -236 -302 -17 -71
-14 -229 4 -289 9 -27 15 -51 13 -53 -2 -2 -28 4 -57 12 -128 36 -234 29 -332
-19 -101 -51 -164 -133 -174 -229 l-5 -51 -52 -1 c-115 -4 -232 -80 -279 -182
-17 -36 -22 -66 -22 -132 0 -74 3 -91 28 -134 15 -27 27 -49 27 -50 0 0 -267
0 -593 2 -622 2 -640 1 -624 -40 5 -14 237 -16 2089 -22 3262 -10 6854 -4
6870 12 9 9 10 17 2 30 -10 15 -34 17 -208 20 -108 1 -196 6 -196 10 0 4 7 25
15 47 46 129 -18 321 -139 417 -77 61 -136 86 -247 106 l-101 18 -22 60 c-27
75 -51 108 -119 170 -93 85 -243 141 -354 132 l-53 -5 -6 36 c-10 61 -43 154
-73 206 -62 108 -188 217 -304 262 -46 18 -50 23 -71 84 -98 278 -350 498
-664 580 -86 23 -303 33 -387 20z m383 -104 c258 -69 455 -225 574 -454 41
-79 46 -103 24 -103 -16 0 -42 -28 -33 -36 3 -3 31 -12 64 -20 104 -27 182
-73 263 -154 120 -119 178 -255 167 -393 -5 -59 -4 -68 10 -65 9 2 24 19 34
38 23 43 52 52 126 40 151 -25 256 -87 324 -192 20 -32 42 -80 49 -107 l12
-50 56 -6 c217 -22 327 -86 399 -232 34 -69 38 -84 38 -157 0 -59 -5 -90 -18
-113 l-18 -33 -370 0 -370 0 32 46 c89 130 94 315 12 479 -102 201 -316 320
-487 271 -72 -21 -84 -39 -19 -31 65 9 179 -16 252 -55 102 -55 176 -141 227
-265 24 -61 28 -84 29 -170 0 -93 -2 -105 -32 -166 -18 -35 -44 -76 -58 -89
l-26 -24 -1270 1 c-699 1 -1274 4 -1276 7 -3 3 6 20 20 38 104 138 159 358
137 544 -54 449 -400 795 -884 881 -381 67 -777 -57 -1023 -320 -108 -116
-181 -244 -224 -392 -21 -69 -24 -102 -24 -235 0 -133 3 -165 23 -224 28 -86
84 -193 128 -244 19 -22 34 -42 34 -45 0 -7 -2003 -19 -2033 -12 -20 5 -35 21
-54 58 -67 133 -3 294 141 358 40 17 68 22 139 21 l89 -1 -7 27 c-24 95 -14
139 43 197 20 21 66 51 101 68 58 27 75 31 155 30 62 0 116 -7 169 -21 42 -12
83 -22 91 -22 9 0 3 26 -22 93 -32 83 -35 102 -35 192 0 115 20 185 78 272
115 173 349 207 531 78 27 -19 57 -35 66 -35 26 0 117 -38 165 -68 35 -22 43
-33 45 -62 l3 -35 34 49 c97 140 262 236 407 236 39 0 43 3 78 55 20 31 63 82
96 114 158 156 330 219 565 208 177 -8 308 -49 466 -144 85 -51 93 -54 102
-37 21 40 135 142 198 177 104 58 208 80 348 74 64 -3 135 -11 159 -18 l42
-14 -46 -68 c-40 -60 -49 -68 -70 -63 -110 28 -249 12 -352 -39 -64 -32 -142
-98 -130 -110 3 -4 30 9 60 29 30 19 87 44 127 56 63 20 87 22 174 16 56 -3
120 -9 142 -11 40 -6 40 -5 80 56 97 148 288 281 475 330 140 36 332 34 478
-4z m-1968 -636 c218 -49 399 -150 543 -300 265 -278 329 -648 166 -961 -22
-41 -51 -88 -64 -103 l-25 -28 -843 0 -842 1 -43 46 c-138 150 -200 402 -154
625 80 385 418 677 854 739 93 13 309 3 408 -19z"/>
<path d="M11836 3890 c-81 -14 -80 -30 2 -30 203 0 393 -94 478 -238 24 -41
48 -44 33 -4 -35 94 -113 174 -213 221 -97 45 -214 65 -300 51z"/>
<path d="M12281 3449 c-65 -20 -108 -56 -136 -113 -36 -74 -29 -106 8 -37 53
97 150 141 264 120 32 -6 71 -18 86 -26 48 -24 28 8 -22 36 -49 27 -146 37
-200 20z"/>
<path d="M8635 2923 c-48 -25 -105 -84 -132 -137 -27 -54 -53 -159 -53 -222 0
-87 70 -244 113 -252 13 -3 10 9 -18 55 -68 114 -78 215 -34 348 31 94 77 150
175 212 18 11 18 12 -1 12 -11 0 -33 -7 -50 -16z"/>
<path d="M11164 2769 c-30 -9 -72 -45 -62 -54 3 -3 20 3 39 12 22 12 56 18 99
18 79 0 136 -29 181 -89 31 -42 39 -34 15 13 -46 88 -164 131 -272 100z"/>
<path d="M12472 2516 c-91 -30 -150 -105 -167 -213 -10 -63 9 -53 35 18 54
150 186 208 311 137 74 -42 121 -142 101 -220 l-11 -43 19 25 c43 55 34 138
-23 211 -60 78 -174 114 -265 85z"/>
<path d="M9746 3249 c-108 -26 -189 -72 -267 -149 -59 -58 -149 -194 -137
-206 3 -2 21 22 41 54 76 124 215 223 358 257 136 32 340 13 473 -45 72 -31
173 -106 203 -151 28 -43 48 -52 38 -16 -12 39 -57 97 -109 139 -151 121 -392
168 -600 117z"/>
<path d="M5940 3492 c0 -17 51 -52 76 -52 12 0 35 5 51 11 27 11 26 12 -32 24
-33 7 -68 16 -77 20 -10 4 -18 3 -18 -3z"/>
<path d="M1410 2610 c0 -13 7 -20 20 -20 13 0 20 7 20 20 0 13 -7 20 -20 20
-13 0 -20 -7 -20 -20z"/>
<path d="M2662 2261 c-73 -4 -121 -10 -120 -16 3 -12 632 -14 644 -2 4 4 4 10
0 15 -9 9 -356 11 -524 3z"/>
<path d="M3065 2091 l-150 -6 109 -7 c136 -10 642 -9 756 1 l85 8 -116 1 c-64
1 -210 4 -325 6 -115 2 -276 1 -359 -3z"/>
<path d="M13750 1785 c0 -8 9 -15 20 -15 11 0 20 7 20 15 0 8 -9 15 -20 15
-11 0 -20 -7 -20 -15z"/>
<path d="M13617 1753 c-11 -11 -8 -21 9 -27 19 -7 47 12 38 25 -6 11 -38 12
-47 2z"/>
<path d="M13900 1746 c0 -20 33 -29 81 -21 58 10 43 29 -24 33 -45 2 -57 0
-57 -12z"/>
<path d="M11970 1740 l-65 -5 75 -8 c41 -5 342 -7 669 -5 465 2 595 6 599 16
3 9 -122 12 -605 10 -334 -1 -637 -4 -673 -8z"/>
<path d="M13390 1735 c0 -9 9 -15 25 -15 16 0 25 6 25 15 0 9 -9 15 -25 15
-16 0 -25 -6 -25 -15z"/>
<path d="M13740 1714 c0 -10 7 -14 22 -12 32 5 35 28 4 28 -17 0 -26 -5 -26
-16z"/>
</g>
</svg>
