<?xml version="1.0" standalone="no"?>
<!DOCTYPE svg PUBLIC "-//W3C//DTD SVG 20010904//EN"
 "http://www.w3.org/TR/2001/REC-SVG-20010904/DTD/svg10.dtd">
<svg version="1.0" xmlns="http://www.w3.org/2000/svg"
 width="397.000000pt" height="397.000000pt" viewBox="0 0 397.000000 397.000000"
 preserveAspectRatio="xMidYMid meet">

<g transform="translate(0.000000,397.000000) scale(0.100000,-0.100000)"
fill="#000000" stroke="none">
<path d="M729 3576 c-99 -26 -174 -89 -227 -189 -24 -47 -27 -62 -27 -152 0
-90 3 -105 29 -157 31 -62 98 -134 115 -124 7 5 2 20 -14 44 -32 49 -49 132
-41 201 14 119 90 223 202 276 50 24 71 28 139 28 123 -1 184 -36 230 -135 14
-29 25 -48 25 -41 0 24 -50 118 -81 151 -88 93 -225 132 -350 98z"/>
<path d="M1162 3285 c0 -16 2 -22 5 -12 2 9 2 23 0 30 -3 6 -5 -1 -5 -18z"/>
<path d="M810 3260 c0 -13 -7 -20 -20 -20 -16 0 -20 -7 -20 -30 0 -37 31 -70
65 -70 31 0 75 41 75 70 0 29 -44 70 -75 70 -18 0 -25 -5 -25 -20z"/>
<path d="M1161 3190 c-1 -14 -4 -36 -6 -50 l-6 -25 11 25 c6 13 9 36 7 50 l-4
25 -2 -25z"/>
<path d="M1131 3082 c-20 -47 -92 -120 -151 -152 -62 -33 -61 -41 1 -10 22 12
58 37 80 57 40 36 96 119 87 129 -3 2 -11 -8 -17 -24z"/>
<path d="M687 2910 c13 -14 82 -29 128 -29 17 1 1 7 -35 13 -36 7 -74 16 -85
21 -16 6 -18 5 -8 -5z"/>
<path d="M888 2893 c7 -3 16 -2 19 1 4 3 -2 6 -13 5 -11 0 -14 -3 -6 -6z"/>
<path d="M1640 2790 c0 -5 5 -10 11 -10 5 0 7 5 4 10 -3 6 -8 10 -11 10 -2 0
-4 -4 -4 -10z"/>
<path d="M1656 2755 c-3 -8 -1 -15 5 -15 6 0 8 -4 4 -9 -3 -5 6 -22 20 -38 21
-24 26 -26 35 -13 15 23 12 55 -8 73 -23 21 -48 22 -56 2z"/>
<path d="M1810 2653 c-25 -13 -36 -26 -38 -45 -2 -15 -11 -33 -21 -40 -10 -7
-26 -25 -35 -40 -10 -16 -26 -28 -36 -28 -31 0 -50 -27 -43 -60 6 -31 -1 -36
-26 -21 -8 6 -12 20 -9 39 2 17 1 29 -4 26 -4 -3 -8 -18 -8 -35 0 -16 -5 -29
-11 -29 -6 0 -9 -9 -6 -20 3 -11 0 -23 -5 -27 -7 -3 -8 -1 -4 5 4 7 2 12 -4
12 -6 0 -8 5 -4 12 4 6 3 8 -3 5 -14 -9 -4 -57 13 -57 7 0 16 4 19 10 6 10 75
-18 75 -32 0 -4 5 -8 11 -8 5 0 7 5 3 11 -4 7 -1 10 7 7 8 -3 13 -10 12 -15
-1 -5 12 -9 28 -8 16 1 32 -2 35 -7 3 -4 17 -8 32 -8 20 0 23 -3 12 -10 -10
-6 -5 -9 18 -8 l32 1 -30 19 c-17 10 -34 18 -39 18 -5 0 -12 6 -14 13 -4 8 -6
8 -6 0 -1 -12 -41 -6 -41 7 0 4 11 11 24 14 17 4 26 15 31 35 3 16 13 35 21
42 8 7 19 20 25 30 8 16 5 18 -28 16 -38 -2 -38 -2 -38 37 -1 31 7 46 38 80
22 22 37 33 33 23 -3 -10 -6 -25 -6 -33 0 -9 -5 -12 -12 -8 -7 4 -3 -3 10 -15
13 -13 30 -20 38 -17 16 6 19 -10 3 -19 -6 -4 -9 -34 -7 -72 3 -63 10 -84 23
-63 3 5 19 10 34 10 35 0 51 18 57 62 18 128 18 124 -18 162 -41 44 -89 54
-138 29z"/>
<path d="M1507 2568 c-20 -24 -57 -65 -82 -93 -24 -27 -43 -54 -42 -60 2 -5
27 -23 56 -39 40 -21 55 -25 61 -16 6 9 10 6 15 -9 4 -13 9 -20 11 -18 3 2 0
15 -6 29 -10 20 -7 38 13 99 52 154 43 189 -26 107z"/>
<path d="M1774 2539 c-3 -6 -2 -15 3 -20 5 -5 9 -1 10 11 2 22 -2 25 -13 9z"/>
<path d="M2755 2498 c-120 -43 -214 -173 -256 -353 -11 -50 -24 -96 -27 -103
-12 -24 6 -225 27 -302 27 -98 80 -205 131 -262 42 -48 127 -98 167 -98 14 0
26 -7 29 -17 3 -10 10 -27 15 -38 8 -16 9 -17 4 -1 -4 15 -1 17 15 13 11 -3
23 0 27 5 3 7 1 8 -5 4 -8 -5 -12 0 -12 13 0 15 6 21 23 21 41 0 125 50 172
102 81 90 136 236 151 396 7 72 7 72 -18 72 -24 0 -25 -4 -36 -94 -44 -359
-277 -535 -465 -352 -51 49 -109 161 -134 256 -23 88 -23 272 1 365 60 246
223 384 373 316 116 -53 202 -216 228 -433 6 -43 9 -48 31 -48 29 0 30 11 10
127 -37 207 -143 366 -275 411 -42 15 -135 14 -176 0z"/>
<path d="M1786 2348 c3 -4 11 -5 19 -1 21 7 19 12 -4 10 -11 0 -18 -5 -15 -9z"/>
<path d="M1820 2340 c-9 -6 -10 -10 -3 -10 6 0 15 5 18 10 8 12 4 12 -15 0z"/>
<path d="M1875 2271 c11 -5 29 -12 40 -16 20 -6 20 -7 1 -21 -11 -8 -15 -14
-9 -14 7 0 15 5 18 10 12 19 35 -10 36 -44 1 -18 3 -23 6 -13 13 49 -20 88
-82 101 -23 4 -25 3 -10 -3z"/>
<path d="M1748 2203 c6 -2 18 -2 25 0 6 3 1 5 -13 5 -14 0 -19 -2 -12 -5z"/>
<path d="M1875 2143 c11 -3 24 -9 30 -14 5 -5 13 -9 19 -9 5 0 1 7 -10 15 -10
8 -28 14 -39 14 l-20 -1 20 -5z"/>
<path d="M2233 2071 c-38 -28 -42 -35 -53 -101 -9 -56 -9 -77 0 -101 16 -37
26 -37 45 1 9 18 21 28 27 24 6 -4 8 -3 4 4 -3 6 0 14 8 19 8 4 14 15 13 23
-1 8 3 16 8 18 12 3 16 -84 5 -113 -8 -22 4 -55 20 -55 6 0 10 7 10 15 0 10
10 15 28 15 36 0 52 17 52 55 0 34 -15 55 -39 55 -14 0 -14 -1 -1 -10 8 -5 10
-10 4 -10 -19 0 -37 29 -30 47 6 15 8 15 17 3 6 -10 7 -5 3 18 -4 21 -3 32 5
32 7 0 9 -5 5 -12 -6 -10 -4 -10 8 0 13 10 17 10 22 -5 4 -10 2 -19 -3 -21 -6
-2 -9 -8 -5 -13 3 -5 -1 -9 -8 -9 -7 0 -2 -7 11 -16 19 -14 25 -14 32 -3 5 8
6 21 3 29 -4 8 -7 27 -8 42 -1 15 -6 31 -11 35 -4 5 -5 2 -1 -4 4 -7 2 -13 -3
-13 -6 0 -11 4 -11 9 0 5 -8 12 -17 14 -14 4 -12 5 5 6 55 3 -7 51 -66 51 -27
0 -51 -9 -79 -29z"/>
<path d="M2830 2015 c0 -19 -5 -25 -21 -25 -19 0 -21 -4 -16 -40 7 -52 22 -70
58 -70 53 0 77 84 38 134 -27 34 -59 35 -59 1z"/>
<path d="M1501 1938 c-6 -12 -35 -90 -66 -173 -32 -82 -85 -222 -120 -310 -56
-142 -280 -731 -290 -762 -2 -7 2 -16 9 -20 7 -5 16 -23 19 -41 5 -25 4 -31
-6 -26 -6 4 -9 3 -4 -1 18 -20 48 -15 59 10 6 14 15 25 19 25 4 0 44 -13 89
-29 55 -19 83 -25 86 -17 2 6 44 132 94 280 49 148 91 270 93 272 1 1 20 -77
41 -174 21 -97 51 -233 67 -301 16 -68 28 -126 25 -128 -5 -5 -457 -54 -503
-55 -32 0 -33 -1 -33 -44 0 -32 4 -44 15 -44 8 0 15 7 15 16 0 19 -31 19 493
-7 212 -11 250 -10 261 2 14 14 97 211 178 419 23 58 44 108 47 112 3 4 42 11
86 17 44 6 116 15 159 21 44 5 81 8 83 6 2 -2 -7 -28 -21 -57 -102 -219 -216
-484 -216 -505 0 -23 3 -24 56 -24 35 0 53 4 49 10 -4 6 -10 8 -14 6 -4 -3
-13 -1 -21 4 -16 10 -25 -5 267 422 172 252 182 273 144 319 -19 23 -25 24
-185 27 l-166 3 0 75 c0 67 -2 76 -29 106 -35 39 -35 39 -51 -84 l-12 -86 -50
-7 c-28 -4 -110 -4 -183 0 l-132 7 -11 -43 c-6 -24 -8 -47 -6 -51 7 -11 -15
-146 -25 -152 -4 -3 -26 73 -49 167 -30 123 -41 183 -36 212 22 155 48 299 64
351 17 55 23 107 21 160 -1 18 -21 27 -138 64 -76 24 -144 45 -150 47 -7 3
-17 -6 -22 -19z"/>
<path d="M2256 1838 c3 -5 10 -6 15 -3 13 9 11 12 -6 12 -8 0 -12 -4 -9 -9z"/>
<path d="M2295 1713 c-3 -21 -10 -56 -15 -77 -8 -38 -6 -44 47 -120 31 -45 60
-85 66 -91 15 -15 -1 13 -47 78 -41 59 -41 59 -41 153 0 52 -1 94 -2 94 -1 0
-5 -17 -8 -37z"/>
<path d="M2425 1410 c27 -12 43 -12 25 0 -8 5 -22 9 -30 9 -10 0 -8 -3 5 -9z"/>
<path d="M2488 1393 c7 -3 16 -2 19 1 4 3 -2 6 -13 5 -11 0 -14 -3 -6 -6z"/>
<path d="M2788 1283 c7 -3 16 -2 19 1 4 3 -2 6 -13 5 -11 0 -14 -3 -6 -6z"/>
<path d="M2830 825 c0 -438 0 -445 20 -445 20 0 20 7 20 445 0 438 0 445 -20
445 -20 0 -20 -7 -20 -445z"/>
</g>
</svg>
