<svg width="239" height="227" viewBox="0 0 239 227" fill="none" xmlns="http://www.w3.org/2000/svg">
<rect width="239" height="227" fill="#F9FBF2"/>
<g clip-path="url(#clip0_53_2250)">
<path d="M185.174 203.48C185.334 203.242 184.378 202.366 182.626 200.935C180.874 199.424 178.088 197.515 174.584 195.288C171.08 193.061 166.78 190.436 161.764 187.971C156.827 185.347 151.094 182.801 144.963 180.495C143.688 180.018 142.495 179.541 141.3 179.143C140.026 178.745 138.832 178.268 137.557 177.871C131.267 175.802 125.294 174.212 119.801 173.019C117.093 172.383 114.466 171.985 111.997 171.508C109.529 171.11 107.299 170.792 105.229 170.553C101.088 170.076 97.7439 169.837 95.4348 169.837C93.1256 169.837 91.8516 169.917 91.8516 170.156C91.8516 170.394 93.046 170.713 95.3552 171.11C97.6644 171.508 100.929 172.065 104.99 172.701C106.981 173.099 109.21 173.496 111.599 173.973C113.988 174.53 116.536 175.008 119.243 175.723C124.658 176.995 130.471 178.666 136.682 180.734C137.955 181.131 139.15 181.529 140.345 182.007C141.538 182.484 142.733 182.881 144.008 183.358C150.059 185.664 155.712 188.05 160.649 190.516C165.665 192.902 169.966 195.288 173.549 197.277C177.132 199.344 179.999 201.014 181.989 202.128C183.9 203.162 185.015 203.639 185.174 203.48Z" fill="#171F25"/>
<path d="M37.3865 38.2114C37.6253 38.3705 37.8642 38.3705 38.2623 38.2909C38.5808 38.2114 39.0586 38.1319 39.4568 38.1319C39.8549 38.2114 40.0937 38.3705 40.253 38.6886C40.253 38.8477 40.3327 38.9272 40.253 39.2453C40.1734 39.4839 40.0937 39.8815 39.9345 40.1997C39.8549 40.3587 39.7752 40.5178 39.6956 40.5974C39.616 40.7564 39.5364 40.836 39.3771 40.995L39.1383 41.2336L39.0586 41.3132C39.0586 41.3132 39.0586 41.3132 38.979 41.3132L38.7401 41.1541C38.5808 40.995 38.5013 40.836 38.4216 40.7564C38.2623 40.5178 38.1031 40.2792 37.9438 40.1201C37.705 39.7225 37.6253 39.4043 37.6253 39.0863C37.6253 38.6886 37.6253 38.3705 37.3865 38.2114C37.2272 38.0523 36.9087 38.1319 36.5106 38.45C36.1124 38.7681 35.7143 39.5635 35.7939 40.5974C35.8736 41.0746 35.9531 41.5518 36.1921 42.029C36.3513 42.2676 36.4309 42.4266 36.5106 42.6652C36.5902 42.7448 36.6698 42.9038 36.7494 42.9833C36.8291 43.1424 36.9884 43.3014 37.1476 43.4605C37.705 44.0968 38.5808 44.6535 39.5364 44.4945C40.0142 44.4149 40.4123 44.1763 40.8105 43.8582C40.9697 43.6991 41.2085 43.4605 41.3678 43.3014L41.6863 42.9038C41.8456 42.7448 42.0048 42.4266 42.1641 42.2676C42.3234 42.029 42.4826 41.7904 42.5622 41.5518C42.8807 40.9155 43.04 40.1997 43.1196 39.4839C43.1992 38.6886 42.9604 37.8137 42.4826 37.1774C41.5271 35.8254 39.9345 35.5868 38.979 35.9845C38.0235 36.3026 37.5457 36.8594 37.3069 37.3365C37.1476 37.7342 37.2272 38.0523 37.3865 38.2114Z" fill="#171F25"/>
<path d="M157.942 123.629C158.181 123.789 158.419 123.789 158.817 123.709C159.136 123.629 159.614 123.55 160.012 123.55C160.41 123.629 160.649 123.789 160.808 124.106C160.808 124.266 160.888 124.345 160.808 124.663C160.729 124.902 160.649 125.299 160.49 125.618C160.41 125.776 160.33 125.936 160.251 126.015C160.172 126.175 160.092 126.254 159.932 126.413L159.694 126.652L159.614 126.731C159.614 126.731 159.614 126.731 159.534 126.731L159.375 126.492C159.216 126.333 159.136 126.175 159.057 126.095C158.897 125.856 158.738 125.618 158.579 125.459C158.34 125.061 158.26 124.743 158.26 124.425C158.181 124.106 158.181 123.789 157.942 123.629C157.782 123.47 157.464 123.55 157.066 123.868C156.667 124.186 156.269 124.982 156.349 126.015C156.429 126.492 156.509 126.969 156.747 127.447C156.907 127.685 156.986 127.845 157.066 128.083C157.145 128.162 157.225 128.322 157.305 128.401C157.384 128.561 157.544 128.719 157.702 128.878C158.26 129.515 159.136 130.071 160.092 129.912C160.57 129.833 160.967 129.594 161.365 129.276C161.525 129.117 161.764 128.878 161.923 128.719L162.242 128.322C162.4 128.162 162.56 127.845 162.72 127.685C162.879 127.447 163.038 127.208 163.117 126.969C163.436 126.333 163.595 125.618 163.675 124.902C163.755 124.106 163.515 123.232 163.038 122.596C162.082 121.243 160.49 121.005 159.534 121.403C158.579 121.72 158.101 122.277 157.862 122.755C157.702 123.152 157.782 123.47 157.942 123.629Z" fill="#171F25"/>
<path d="M191.704 93.4072C191.942 93.5662 192.182 93.5662 192.58 93.4867C192.898 93.4072 193.375 93.3276 193.774 93.3276C194.172 93.4072 194.411 93.5662 194.57 93.8844C194.57 94.0434 194.65 94.123 194.57 94.4411C194.49 94.6797 194.411 95.0773 194.252 95.3955C194.172 95.5545 194.092 95.7136 194.013 95.7931C193.933 95.9522 193.853 96.0317 193.695 96.1908L193.455 96.4294L193.375 96.5089C193.375 96.5089 193.375 96.5089 193.296 96.5089L193.137 96.2703C192.978 96.1113 192.898 95.9522 192.818 95.8727C192.659 95.6341 192.5 95.3955 192.34 95.2364C192.102 94.8387 192.022 94.5206 192.022 94.2025C191.942 93.8048 191.942 93.4867 191.704 93.4072C191.545 93.2481 191.225 93.3276 190.828 93.6458C190.43 93.9639 190.032 94.7592 190.111 95.7931C190.19 96.2703 190.27 96.7475 190.509 97.2247C190.668 97.4633 190.748 97.6224 190.828 97.861C190.907 97.9405 190.987 98.0996 191.067 98.1791C191.147 98.3382 191.305 98.4972 191.465 98.6563C192.022 99.2926 192.898 99.8493 193.853 99.6902C194.331 99.6107 194.73 99.3721 195.128 99.054C195.287 98.8949 195.526 98.6563 195.685 98.4972L196.003 98.0996C196.163 97.9405 196.322 97.6224 196.481 97.4633C196.64 97.2247 196.8 96.9861 196.88 96.7475C197.198 96.1113 197.357 95.3955 197.437 94.6797C197.516 93.8844 197.278 93.0095 196.8 92.3732C195.845 91.0212 194.252 90.7826 193.296 91.1803C192.34 91.4984 191.863 92.0551 191.624 92.5323C191.465 92.93 191.545 93.2481 191.704 93.4072Z" fill="#171F25"/>
<path d="M118.447 124.186C117.491 123.789 116.855 124.106 116.536 124.743C116.536 124.743 116.536 124.822 116.456 124.822C116.456 124.822 116.456 124.902 116.376 124.902C116.138 125.618 116.297 126.254 117.253 126.652C118.128 127.049 118.766 126.731 119.163 126.095V126.015C119.163 126.015 119.163 125.936 119.243 125.936C119.561 125.299 119.323 124.583 118.447 124.186Z" fill="#171F25"/>
<path d="M63.0266 101.281C62.3099 101.997 62.3896 102.713 62.7877 103.19L62.8674 103.269L62.9469 103.349C63.4247 103.747 64.1413 103.826 64.858 103.11C65.495 102.474 65.495 101.758 65.0969 101.202L65.0172 101.122L64.9376 101.043C64.3803 100.565 63.7432 100.565 63.0266 101.281Z" fill="#171F25"/>
<path d="M80.8629 24.9297C80.3851 24.9297 79.9869 25.4069 79.8276 26.0431C79.7481 26.7589 79.8276 27.7133 80.1462 28.6677L80.2258 28.9858L80.3851 29.304C80.8629 30.2584 81.4202 30.9741 81.9776 31.3718C82.535 31.7695 83.0924 31.849 83.4905 31.4513C84.2072 30.8151 83.7294 29.5426 83.172 28.0315L83.0924 27.7928L83.0128 27.5543C82.3758 26.1227 81.8183 24.9297 80.8629 24.9297Z" fill="#171F25"/>
<path d="M120.596 29.8607C119.88 29.1449 118.925 29.463 118.048 30.2583C117.969 30.3379 117.969 30.3379 117.889 30.4174C117.81 30.4969 117.81 30.4969 117.73 30.5765C116.934 31.4513 116.615 32.4057 117.332 33.1215C117.969 33.7577 119.004 33.5191 119.88 32.7239C119.96 32.6443 119.96 32.6443 120.039 32.5647C120.119 32.4853 120.119 32.4853 120.198 32.4057C120.995 31.5308 121.234 30.5765 120.596 29.8607Z" fill="#171F25"/>
<path d="M173.708 40.0403C172.991 39.3245 172.593 39.0859 172.434 39.0859C172.355 39.245 172.593 39.5631 173.39 40.3585C174.026 40.9947 174.504 41.3128 174.663 41.2333C174.663 41.1538 174.345 40.7561 173.708 40.0403Z" fill="#171F25"/>
<path d="M125.136 189.641C125.614 190.596 127.764 189.959 130.471 189.004C130.63 188.925 130.709 188.925 130.869 188.846C131.028 188.766 131.107 188.766 131.267 188.687C133.895 187.653 135.965 186.778 135.726 185.744C135.487 184.789 133.099 184.868 130.232 185.824C130.072 185.903 129.914 185.903 129.834 185.982C129.674 186.062 129.515 186.062 129.436 186.141C126.489 187.255 124.658 188.766 125.136 189.641Z" fill="#171F25"/>
<path d="M123.144 188.926C123.543 189.88 125.693 189.403 128.4 188.449C128.559 188.369 128.639 188.369 128.799 188.289C128.957 188.21 129.037 188.21 129.197 188.13C131.824 187.096 133.735 185.983 133.417 185.029C133.098 184.154 130.869 184.313 128.082 185.267C127.922 185.347 127.843 185.347 127.684 185.426C127.524 185.506 127.444 185.506 127.286 185.586C124.578 186.699 122.747 188.051 123.144 188.926Z" fill="#171F25"/>
<path d="M121.154 188.527C121.632 189.482 123.782 188.846 126.489 187.891C126.649 187.811 126.728 187.811 126.887 187.732C127.047 187.653 127.126 187.653 127.286 187.573C129.914 186.539 131.984 185.664 131.745 184.631C131.506 183.676 129.117 183.755 126.251 184.71C126.091 184.789 125.932 184.789 125.852 184.869C125.693 184.948 125.534 184.948 125.454 185.028C122.588 186.141 120.756 187.732 121.154 188.527Z" fill="#171F25"/>
<path d="M119.163 187.812C119.561 188.766 121.711 188.289 124.419 187.335C124.578 187.255 124.658 187.255 124.817 187.176C124.976 187.096 125.056 187.096 125.215 187.016C127.843 185.983 129.754 184.869 129.435 183.914C129.117 183.04 126.887 183.199 124.101 184.153C123.941 184.233 123.861 184.233 123.702 184.313C123.543 184.392 123.463 184.392 123.304 184.471C120.596 185.585 118.845 186.937 119.163 187.812Z" fill="#171F25"/>
<path d="M143.928 110.824C143.37 110.824 143.051 118.459 142.813 131.185C142.573 143.83 142.415 161.486 142.415 181.449C142.415 182.005 142.176 182.482 141.698 182.801C141.618 182.881 141.459 182.96 141.38 183.039C141.3 183.039 141.22 183.119 141.22 183.119H141.14L140.981 183.198L139.548 183.596L138.115 183.994L137.398 184.153L137.239 184.232H137.16C137.08 184.232 137.08 184.232 137 184.232C136.682 184.232 136.283 183.994 136.204 183.675C136.045 173.893 135.885 164.668 135.725 156.317C135.567 147.806 135.407 140.251 135.168 133.968C134.77 121.322 134.292 113.687 133.815 113.687C133.337 113.687 133.098 121.402 132.939 134.048C132.859 140.41 132.859 147.966 132.939 156.476C132.939 160.69 133.019 165.225 133.019 169.837C133.019 172.144 133.019 174.53 133.098 176.995C133.098 178.188 133.098 179.461 133.098 180.653C133.098 181.289 133.098 181.846 133.098 182.482V183.437V183.675V184.074C133.098 184.312 133.178 184.551 133.257 184.789C133.815 186.38 135.407 187.493 137.08 187.414C137.318 187.414 137.478 187.414 137.717 187.334L138.035 187.254L138.195 187.175L138.911 187.016L140.345 186.618L141.778 186.221L141.937 186.141L142.176 186.061C142.335 185.982 142.494 185.903 142.653 185.903C142.972 185.744 143.29 185.584 143.609 185.346C144.724 184.471 145.52 183.039 145.52 181.528C145.52 161.566 145.361 143.91 145.122 131.264C144.803 118.459 144.405 110.824 143.928 110.824Z" fill="#171F25"/>
<path d="M135.567 187.175L129.197 184.868C127.843 184.471 126.887 183.278 126.887 181.846L126.25 115.596L133.735 113.607L135.567 187.175Z" fill="#171F25"/>
<path d="M116.854 118.062C117.411 118.062 117.73 111.779 117.969 101.44C117.969 98.8155 118.128 96.0318 118.049 92.8506C117.969 89.7488 117.571 86.3289 116.775 82.8295C115.978 79.3301 114.705 75.7511 112.873 72.2517C110.962 68.7522 108.494 65.3324 105.07 62.6283C103.716 61.5148 102.203 60.5605 100.61 59.8447C99.0179 59.1289 97.3458 58.4926 95.5143 58.254C93.2848 57.9359 90.9756 58.0154 88.9053 58.6517C86.7554 59.2084 84.8444 60.4013 83.2518 61.7534C80.0667 64.4575 78.1557 67.957 76.8817 71.3769C75.6076 74.7968 75.0502 78.2166 74.8113 81.3184C74.8113 81.7161 74.7317 82.1137 74.7317 82.5113C74.7317 82.9091 74.7317 83.3067 74.7317 83.7043C74.7317 84.4997 74.7317 85.2154 74.7317 85.9312C74.7317 87.3628 74.8113 88.7149 74.8113 89.9874C75.0502 100.327 75.4483 106.61 75.9261 106.61C76.4039 106.61 76.802 100.327 77.0409 89.9874C77.1205 87.4424 77.0409 84.4997 77.3594 81.557C77.6779 78.6143 78.2353 75.433 79.5094 72.4108C80.7037 69.3885 82.5352 66.2867 85.2425 64.0599C86.5961 62.9464 88.109 62.0716 89.7812 61.5944C91.4534 61.1172 93.2848 61.0377 95.1162 61.2762C96.5495 61.5148 97.9828 61.992 99.3364 62.6283C100.69 63.2646 101.964 64.0599 103.159 65.0143C106.184 67.4002 108.494 70.502 110.245 73.6833C111.997 76.8645 113.191 80.2844 114.068 83.5453C114.863 86.8061 115.341 89.9874 115.501 93.0096C115.66 95.9523 115.66 98.895 115.74 101.44C115.978 111.779 116.376 118.062 116.854 118.062Z" fill="#171F25"/>
<path d="M75.926 106.609C75.6076 107.643 83.7294 110.347 94.3995 113.369C94.9569 113.529 95.4346 113.687 95.992 113.846C96.5494 114.006 97.0272 114.165 97.5846 114.323C108.255 117.266 116.616 119.175 116.854 118.141C117.093 117.187 109.051 114.483 98.3809 111.381C97.8234 111.222 97.3456 111.063 96.7883 110.904C96.2309 110.744 95.7532 110.586 95.1958 110.427C84.5257 107.484 76.1649 105.655 75.926 106.609Z" fill="#171F25"/>
<path d="M116.854 118.062C117.013 118.539 123.861 117.108 135.248 114.324C140.902 112.892 147.749 111.222 155.314 109.234C163.277 107.166 172.116 104.859 181.511 102.394C181.511 101.201 181.511 99.9285 181.511 98.656C181.511 96.7472 181.511 94.8384 181.511 92.9297C181.511 91.0209 181.511 89.1122 181.511 87.2033C181.511 83.9426 181.511 80.7613 181.432 77.58C181.352 74.3987 181.034 71.2174 180.476 68.2747C179.282 62.3097 177.052 56.9015 174.106 52.5273C171.08 48.153 167.258 44.8922 163.277 43.1424C161.287 42.2676 159.295 41.7904 157.464 41.7109C155.632 41.6313 153.881 41.8699 152.448 42.3471C147.351 43.9378 144.485 44.9717 144.644 45.2898C144.724 45.608 147.67 45.0512 152.926 43.8582C154.199 43.5402 155.712 43.4606 157.384 43.6196C158.977 43.7788 160.729 44.2559 162.48 45.1308C165.985 46.8009 169.328 49.9027 172.036 53.9589C174.663 58.0945 176.734 63.1846 177.769 68.8314C178.326 71.6946 178.566 74.6373 178.645 77.6595C178.645 80.7613 178.645 83.9426 178.645 87.2033C178.645 89.1122 178.645 91.0209 178.645 92.9297C178.645 94.8384 178.645 96.7472 178.645 98.656C178.645 99.0537 178.645 99.5308 178.645 99.9285V100.008C170.125 102.315 162.082 104.541 154.836 106.53C147.271 108.597 140.503 110.506 134.85 112.176C123.464 115.438 116.695 117.664 116.854 118.062Z" fill="#171F25"/>
<path d="M76.2445 106.61C76.4833 107.644 84.7646 105.814 95.355 103.031C95.9123 102.872 96.3901 102.713 96.9475 102.633C97.5049 102.474 97.9827 102.315 98.54 102.235C109.13 99.2927 117.093 96.6682 116.854 95.7138C116.615 94.7594 108.334 96.5092 97.7437 99.2927C97.1864 99.4519 96.7086 99.6109 96.1513 99.6905C95.5938 99.8495 95.1161 100.009 94.5587 100.088C83.9683 103.031 76.0056 105.735 76.2445 106.61Z" fill="#171F25"/>
<path d="M135.567 47.6762C135.328 46.6422 126.091 48.7101 114.147 51.8119C113.51 51.9709 112.953 52.13 112.395 52.289C111.838 52.4481 111.201 52.6072 110.643 52.7662C98.779 56.0271 89.7812 58.8902 90.02 59.9242C90.2589 60.8785 99.4956 58.8902 111.44 55.7885C112.077 55.6294 112.634 55.4703 113.191 55.3113C113.748 55.1522 114.386 54.9931 114.943 54.8341C126.807 51.5733 135.805 48.6306 135.567 47.6762Z" fill="#171F25"/>
<path d="M116.854 118.778C116.854 118.539 116.297 118.301 115.421 118.46C114.545 118.539 113.271 118.937 111.918 119.811C110.564 120.607 109.13 121.88 107.777 123.47C106.423 125.06 105.149 126.81 103.875 128.878C103.636 129.276 103.397 129.674 103.158 130.151C102.92 130.548 102.681 131.025 102.521 131.423C100.451 135.718 99.416 139.774 98.779 142.637C98.2216 145.501 98.1419 147.33 98.6993 147.489C99.1771 147.648 99.9734 145.978 100.929 143.273C101.964 140.57 103.238 136.752 105.229 132.855C105.468 132.457 105.627 132.059 105.866 131.662C106.105 131.264 106.264 130.946 106.503 130.548C107.618 128.639 108.812 126.81 109.927 125.379C111.042 123.867 112.156 122.674 113.191 121.8C115.262 119.732 116.934 119.255 116.854 118.778Z" fill="#171F25"/>
<path d="M75.5278 106.609C75.5278 106.37 74.9705 106.132 74.0945 106.291C73.2187 106.37 71.9446 106.768 70.5909 107.643C69.2373 108.438 67.804 109.711 66.4503 111.301C65.0967 112.892 63.8226 114.642 62.5487 116.709C62.3097 117.107 62.0709 117.505 61.832 117.982C61.5931 118.379 61.3543 118.857 61.195 119.255C59.1247 123.549 58.0895 127.606 57.4525 130.469C56.8952 133.332 56.8155 135.161 57.3729 135.32C57.8506 135.479 58.6469 133.809 59.6024 131.105C60.6376 128.401 61.9116 124.583 63.9023 120.686C64.1411 120.288 64.3004 119.891 64.5393 119.493C64.7782 119.095 64.9374 118.698 65.1764 118.379C66.2911 116.471 67.4855 114.642 68.6003 113.21C69.7151 111.699 70.8299 110.506 71.865 109.631C73.9353 107.563 75.6074 107.086 75.5278 106.609Z" fill="#171F25"/>
<path d="M98.3013 148.283C98.6197 147.25 90.4978 144.466 79.9074 141.364C79.35 141.205 78.8723 141.047 78.3148 140.887C77.7575 140.728 77.2797 140.569 76.7224 140.41C66.0523 137.388 57.7711 135.399 57.4526 136.434C57.2137 137.308 65.2561 140.171 75.8464 143.353C76.4038 143.512 76.8816 143.671 77.439 143.83C77.9963 143.989 78.4741 144.148 79.0315 144.307C89.7015 147.329 98.0623 149.159 98.3013 148.283Z" fill="#171F25"/>
<path d="M40.2533 44.1767C40.0143 44.0971 39.457 45.6878 38.9792 48.5509C38.7403 49.9825 38.4218 51.8118 38.3422 53.9591C38.2626 56.1065 38.2626 58.572 38.8995 61.2761C39.5365 63.9802 40.8902 67.0025 43.3586 69.3884C45.9068 71.7744 49.3307 73.365 53.1528 73.7627C55.0638 73.9217 57.1341 73.7627 59.0452 73.2855C61.0359 72.7287 63.0266 71.7744 64.619 70.2632C66.2912 68.7521 67.4856 66.6843 67.9634 64.2984C68.3615 61.9919 68.1226 59.5264 67.0875 57.379C66.2912 55.6293 65.0172 54.0386 63.3451 52.9252C62.4691 52.3685 61.5137 51.9708 60.3988 51.8118C59.284 51.6527 58.0897 51.8913 57.1341 52.3685C54.8249 53.482 53.2324 55.4703 52.3565 57.6176C51.4806 59.765 51.2418 62.0714 51.4806 64.2188C51.5603 65.3322 51.7991 66.3661 52.1973 67.4001C52.5157 68.434 52.9935 69.3088 53.4713 70.1838C54.4268 71.9334 55.7009 73.4445 56.9748 74.7966C59.523 77.5007 62.3098 79.489 64.9376 81.3978C67.5653 83.227 70.1133 84.7381 72.4225 86.0106C77.1205 88.5557 81.1815 90.0668 84.048 90.9417C86.9146 91.8165 88.5071 92.0551 88.5868 91.8165C88.6664 91.5779 87.1535 90.9417 84.5258 89.7487C81.8981 88.5557 78.076 86.806 73.5373 84.1019C71.3077 82.7498 68.9189 81.1592 66.4505 79.3299C63.982 77.5007 61.3544 75.4328 59.0452 72.8879C57.9304 71.6153 56.8953 70.2632 56.0194 68.7521C55.2231 67.2411 54.5861 65.6504 54.5064 63.9006C54.3472 62.1509 54.5861 60.4012 55.2231 58.8106C55.8601 57.2199 57.1341 55.8679 58.5674 55.1521C59.1248 54.9135 59.6026 54.834 60.1599 54.834C60.7174 54.9135 61.2747 55.1521 61.8321 55.4703C62.9469 56.1861 63.8228 57.2995 64.4598 58.572C65.1765 60.1626 65.4153 61.9919 65.0968 63.662C64.7783 65.3322 63.982 66.8433 62.708 67.9568C61.5137 69.0702 59.9211 69.8656 58.3285 70.3428C56.736 70.82 55.0639 70.979 53.3917 70.82C50.2066 70.5814 47.1807 69.2293 45.0308 67.4001C42.8809 65.4913 41.6069 63.0258 40.9699 60.6398C40.2533 58.2538 40.094 55.8679 40.0143 53.8796C39.9347 51.8117 40.094 50.0621 40.094 48.6304C40.4125 45.7673 40.4921 44.1767 40.2533 44.1767Z" fill="#171F25"/>
<path d="M144.724 172.303C143.688 172.303 143.291 174.212 143.211 176.598C143.211 176.757 143.211 176.837 143.211 176.995C143.211 177.155 143.211 177.234 143.211 177.394C143.291 179.858 143.688 181.688 144.724 181.688C145.679 181.688 146.157 179.779 146.236 177.394C146.236 177.234 146.236 177.155 146.236 176.995C146.236 176.837 146.236 176.757 146.236 176.598C146.157 174.212 145.679 172.303 144.724 172.303Z" fill="#171F25"/>
<path d="M166.94 93.8046C166.621 92.7707 164.63 92.9297 162.162 93.566C162.003 93.566 161.923 93.6455 161.764 93.6455C161.605 93.6455 161.525 93.725 161.365 93.725C158.897 94.4408 157.145 95.3952 157.384 96.4291C157.623 97.3835 159.693 97.3039 162.162 96.6677C162.321 96.6677 162.4 96.5882 162.56 96.5882C162.72 96.5882 162.799 96.5086 162.958 96.5086C165.427 95.7134 167.178 94.6794 166.94 93.8046Z" fill="#171F25"/>
<path d="M167.497 97.1449C167.258 96.1111 166.223 95.952 164.87 96.1111C164.79 96.1111 164.71 96.1111 164.71 96.1906C164.63 96.1906 164.551 96.1906 164.551 96.1906C163.277 96.5087 162.322 97.1449 162.56 98.1789C162.72 99.1333 163.834 99.3719 165.188 99.2128C165.268 99.2128 165.347 99.2128 165.347 99.1333C165.427 99.1333 165.507 99.1333 165.507 99.1333C166.78 98.7356 167.657 98.0993 167.497 97.1449Z" fill="#171F25"/>
<path d="M141.857 75.5117C141.459 75.8297 141.22 76.2275 140.901 76.466C140.743 76.5456 140.583 76.7046 140.344 76.7842C140.265 76.7842 140.185 76.8637 140.105 76.7842C140.105 76.8637 140.105 76.9432 140.026 77.0228C140.026 77.1023 139.946 77.1023 139.946 77.1023C139.946 77.1023 139.946 77.1023 140.026 77.1023C140.185 77.0228 140.423 76.9432 140.344 76.9432V76.8637C140.344 76.7842 140.344 76.6251 140.344 76.5455C140.344 76.3069 140.423 76.1479 140.503 75.9889C140.663 75.8297 140.743 75.6707 140.822 75.5117C140.981 75.3525 141.14 75.1935 141.3 74.9549C141.379 74.7163 141.379 74.4777 141.061 74.2391C140.743 74.0005 140.185 73.8415 139.548 74.0005C138.911 74.1596 138.194 74.6368 137.716 75.3525C137.478 75.7503 137.318 76.1479 137.318 76.7046C137.238 77.1818 137.318 77.7386 137.637 78.4544C137.796 78.693 137.955 78.9316 138.194 79.1701C138.433 79.4087 138.672 79.5678 138.911 79.6473C140.265 80.2041 141.459 79.6473 142.016 79.0906C142.653 78.5338 142.971 77.7386 143.051 77.1023C143.051 76.466 142.813 75.9889 142.573 75.7503C142.335 75.4321 142.096 75.3525 141.857 75.5117Z" fill="#171F25"/>
<path d="M142.733 74.8761C142.255 75.1147 142.335 75.91 141.857 76.6258C141.618 76.944 141.3 77.3416 140.822 77.6598C140.345 77.9779 139.866 77.9779 139.628 77.8188C139.548 77.8188 139.548 77.8188 139.548 77.7393C139.548 77.7393 139.548 77.7393 139.468 77.6598C139.388 77.5802 139.309 77.3416 139.309 77.0234C139.309 76.7849 139.388 76.4668 139.468 76.2282C139.628 75.751 139.946 75.3533 140.265 75.0352C140.583 74.7171 140.902 74.558 141.14 74.3989C141.38 74.2399 141.698 74.1603 141.778 73.9217C141.857 73.6831 141.778 73.365 141.38 73.1264C140.981 72.8083 140.185 72.7287 139.309 72.9673C138.433 73.2059 137.478 73.9217 136.92 74.9557C136.602 75.5124 136.443 76.0691 136.363 76.7849C136.283 77.4212 136.363 78.2165 136.761 79.0118C136.92 79.3299 137.16 79.6481 137.478 79.8867C137.717 80.1253 138.035 80.3639 138.353 80.5229C140.026 81.2387 141.618 80.5229 142.494 79.8071C143.37 79.0118 143.848 77.9779 143.928 77.103C144.008 76.2282 143.768 75.5124 143.45 75.1942C143.211 74.7966 142.893 74.7171 142.733 74.8761Z" fill="#171F25"/>
<path d="M138.752 70.3425C138.672 70.3425 138.513 71.1379 138.433 72.4899C138.353 73.2057 138.353 74.0806 138.353 75.1144C138.353 75.5916 138.353 76.1484 138.274 76.7847C138.274 77.1823 138.195 77.8185 138.353 78.0571C138.353 78.1367 138.433 78.2163 138.513 78.2957C138.593 78.3753 138.672 78.4548 138.752 78.4548C138.911 78.4548 139.07 78.4548 139.31 78.3753C139.787 78.1367 140.345 77.8981 140.822 77.6595C141.061 77.5799 141.22 77.4209 141.459 77.3413C141.618 77.2619 141.858 77.1823 142.016 77.0232C142.176 76.8642 142.255 76.7051 142.255 76.4665C142.255 74.5578 142.335 72.4103 142.335 70.0244C142.335 67.718 142.335 65.2525 142.415 62.7074C142.415 57.4583 142.415 51.6524 142.415 45.4489C142.415 44.2559 142.415 43.0629 142.415 41.87C142.415 40.677 142.415 39.484 142.415 38.2911C142.415 37.5752 142.415 36.7799 142.415 36.0641C142.415 35.5869 142.415 35.1098 142.415 34.553C142.415 34.3939 142.335 34.2349 142.335 34.0758C142.255 33.9963 142.255 33.9167 142.096 33.7577C141.937 33.6781 141.858 33.5986 141.778 33.5986C141.618 33.5986 141.459 33.5986 141.3 33.5986C140.424 33.8372 139.628 34.0758 138.752 34.3144C138.593 34.3939 138.433 34.4735 138.353 34.553C138.274 34.6325 138.195 34.7916 138.115 34.8711C138.035 35.0302 138.035 35.1892 138.035 35.3484V35.746C138.035 36.0641 138.035 36.3822 138.035 36.7004C138.035 37.9729 138.035 39.2454 138.035 40.5179C138.035 42.9834 138.035 45.4489 138.115 47.6758C138.195 52.2092 138.195 56.2653 138.274 59.6057C138.353 66.2864 138.513 70.3425 138.752 70.3425C138.991 70.3425 139.15 66.3659 139.31 59.6057C139.388 56.2653 139.388 52.2092 139.468 47.6758C139.468 45.3694 139.468 42.9834 139.548 40.5179C139.548 39.2454 139.548 37.9729 139.548 36.7004C139.548 36.3822 139.548 36.0641 139.548 35.746V35.6664C140.026 35.5869 140.424 35.4278 140.902 35.3484C140.902 34.712 140.902 36.939 140.902 38.3705C140.902 39.5635 140.902 40.7565 140.902 41.9495C140.902 43.1425 140.902 44.3355 140.902 45.5285C140.981 51.732 140.981 57.5378 140.981 62.787C140.981 65.4115 141.061 67.877 141.061 70.104C141.061 72.3309 141.141 74.3987 141.141 76.2279C141.141 76.3074 141.061 76.387 140.981 76.387C140.743 76.4665 140.583 76.6256 140.345 76.7051C140.105 76.7847 139.946 76.9437 139.708 77.0232L139.468 77.1028L139.388 77.1823L139.23 77.2619C139.15 77.3414 139.07 77.1823 139.15 77.1823C139.15 77.0233 139.15 76.8642 139.15 76.7847C139.15 76.2279 139.15 75.6712 139.07 75.1144C138.99 74.0806 138.99 73.2057 138.99 72.4899C138.99 71.0583 138.831 70.3425 138.752 70.3425Z" fill="#171F25"/>
<path d="M142.096 42.1087L150.696 35.269L142.096 33.8374V42.1087Z" fill="#171F25"/>
<path d="M72.9798 133.889C73.6168 133.093 72.1836 131.423 69.6354 130.389C69.4762 130.31 69.3966 130.31 69.2374 130.23C69.0781 130.15 68.9984 130.15 68.8392 130.071C66.2911 129.276 64.1412 129.514 64.0616 130.548C63.9819 131.503 65.7338 132.139 67.8837 132.934L68.2022 133.013L68.5207 133.173C70.7503 133.968 72.4224 134.605 72.9798 133.889Z" fill="#171F25"/>
<path d="M105.149 139.456C106.105 139.854 107.618 136.99 109.529 133.491C109.608 133.332 109.688 133.094 109.847 132.934C109.927 132.775 110.006 132.616 110.166 132.378C111.121 130.548 111.918 129.037 112.555 128.003C113.112 126.969 113.59 126.253 113.271 125.776C113.032 125.379 112.077 125.617 110.882 126.492C109.688 127.367 108.573 129.037 107.538 130.866C107.458 131.025 107.379 131.264 107.219 131.423C107.14 131.582 107.06 131.821 106.901 131.98C104.831 135.877 104.194 139.138 105.149 139.456Z" fill="#171F25"/>
</g>
<defs>
<clipPath id="clip0_53_2250">
<rect width="171.516" height="180.856" fill="white" transform="translate(26 22.7822)"/>
</clipPath>
</defs>
</svg>
